<?xml version="1.0" encoding="UTF-8"?>
<svg width="221px" height="196px" viewBox="0 0 221 196" version="1.1" xmlns="http://www.w3.org/2000/svg" xmlns:xlink="http://www.w3.org/1999/xlink">
    <!-- Generator: sketchtool 51.2 (57519) - http://www.bohemiancoding.com/sketch -->
    <title>BDA52D80-8A7E-45F0-A79F-AFD5B654414F</title>
    <desc>Created with sketchtool.</desc>
    <defs>
        <path d="M2.4285896,1.23453305 C2.4285896,1.23453305 1.98893114,5.30451424 3.12646018,6.998944 C4.26398921,8.69337376 5.30032702,6.78190625 5.3743013,8.67871847 C5.44897345,10.5748328 0.615521847,9.87626438 0.615521847,9.87626438 L0.945614629,0.614823977 L2.4285896,1.23453305" id="path-1"></path>
        <linearGradient x1="51.1419917%" y1="99.4114886%" x2="36.3448306%" y2="4.34088904%" id="linearGradient-3">
            <stop stop-color="#FADCB0" offset="0%"></stop>
            <stop stop-color="#F4BC89" offset="100%"></stop>
        </linearGradient>
        <polyline id="path-4" points="33.0609206 26.3006484 24.7785926 4.10696834 0.52200719 0.261003595 8.05272857 20.6960498 33.0609206 26.3006484"></polyline>
        <linearGradient x1="48.5480204%" y1="82.3653954%" x2="51.8255909%" y2="9.32677619%" id="linearGradient-6">
            <stop stop-color="#CDCEC9" offset="0%"></stop>
            <stop stop-color="#FFFFFE" offset="100%"></stop>
        </linearGradient>
    </defs>
    <g id="For-business" stroke="none" stroke-width="1" fill="none" fill-rule="evenodd">
        <g id="For-business-|-Website" transform="translate(-929.000000, -1396.000000)">
            <g id="Products" transform="translate(0.000000, 1163.000000)">
                <g id="3" transform="translate(903.000000, 233.000000)">
                    <g id="Group-5" transform="translate(26.000000, 0.000000)">
                        <g id="Group-2">
                            <path d="M13.0088496,164.544585 L21.6814159,185.59292 L20.8141593,185.59292 L12.4186069,164.910306 C12.3997644,164.834238 10.4973692,157.115092 8.61800373,145.273624 C6.88379535,134.345669 4.81321336,117.566069 4.79925595,99.6859266 C4.78390279,79.5732966 7.3213602,62.1949235 12.3404454,48.0337338 C15.3259357,39.6111338 19.2340109,32.2465057 23.9565011,26.1443254 C29.1577305,19.4231338 35.4741571,14.0690708 42.7299175,10.2314805 C53.3843075,4.59547774 64.7749511,1.38248161 76.5850148,0.681819552 C86.030693,0.12073161 95.7624982,1.15637154 105.510354,3.75942879 C114.180001,6.07496336 121.258502,9.22724475 125.67044,11.4646178 C130.455738,13.8918117 133.232565,15.8004877 133.259782,15.8193302 L132.813843,16.4655584 C132.786626,16.4467158 130.039109,14.5596738 125.291496,12.1534161 C120.91166,9.93348977 113.884801,6.80633172 105.280755,4.5110354 C90.1006742,0.461990321 66.9899923,-1.71257439 43.0976952,10.9251639 C12.0522248,27.3460585 5.56272636,68.2496486 5.58436034,99.6712713 C5.59692201,117.499073 7.66192105,134.235405 9.39124433,145.135446 C11.2657247,156.949697 13.1625369,164.645115 13.1813794,164.721183 L12.4186069,164.910306" id="Fill-650" fill="#202231"></path>
                            <path d="M115.551316,35.932658 L157.48287,25.2929233 C157.48287,25.2929233 152.465878,2.68401023 126.908462,10.5783222 C111.167293,15.4403865 115.551316,35.932658 115.551316,35.932658" id="Fill-651" fill="#DD4F4C"></path>
                            <polygon id="Fill-652" fill="#DD4F4C" points="0.44873078 193.408237 45.369264 193.408237 45.369264 185.077756 0.44873078 185.077756"></polygon>
                        </g>
                        <g id="Group-3" transform="translate(28.253595, 151.254978)">
                            <path d="M3.80269676,19.907456 L4.59547774,13.4723915 L6.69397456,17.9485333 L7.90617575,8.13158794 L9.72482647,15.7104624 L14.1549089,10.3012676 C14.1549089,10.3012676 14.2477257,14.8709241 14.5275718,14.591078 C14.8074179,14.3119298 14.8074179,5.77836836 14.8074179,5.91794248 C14.8074179,6.05821446 17.745453,14.8241668 18.1181159,14.591078 C18.4914766,14.3579892 19.5634058,9.18258103 19.5634058,9.18258103 C19.5634058,9.18258103 22.1280802,12.6314574 22.2215949,12.9120014 C22.3144116,13.1925454 23.8532163,7.36393031 23.9934882,7.36393031 C24.1330624,7.36393031 27.3041863,13.798297 27.3041863,13.798297 C27.3041863,13.798297 30.8012157,9.22864049 30.9414877,9.36891247 C31.0810618,9.50848659 32.530539,14.5512994 32.530539,14.5512994 L33.9876928,9.64875857 L34.2982452,11.4513583 L35.47974,7.90757149 C35.47974,7.90757149 36.4749035,12.1352714 36.8475664,11.824719 C37.2209271,11.5134687 37.4072586,7.09943736 37.4072586,7.09943736 L39.3968876,11.7004981 L40.7026034,8.77851397 C40.7026034,8.77851397 43.1270058,13.6901271 43.3133373,13.6901271 C43.5003666,13.6901271 45.8431181,10.2279912 45.8431181,10.2279912 L49.6548872,14.4361507 L50.7742716,10.7053346 L53.3235928,15.0405066 C53.3235928,15.0405066 56.9916005,7.72124004 57.5512927,8.03249032 C58.1109849,8.34304273 59.1054505,10.3947822 59.1054505,10.3947822 C59.1054505,10.3947822 58.4215373,6.7260766 59.1054505,6.85099544 C59.7893637,6.9752164 61.7789927,10.0214215 61.7789927,10.0214215 L65.6954423,6.66396612 L66.1930241,12.6328532 L68.1826531,7.09943736 L68.8044558,10.3326717 C68.8044558,10.3326717 69.0528977,9.15117685 69.4883689,9.39961878 C69.9231423,9.64875857 71.7264399,13.1283413 71.9748818,12.9120014 C72.2240216,12.6949636 73.2184871,8.90273493 74.0266213,9.95931098 C74.8347554,11.0165849 76.3275006,13.4409873 76.3275006,13.4409873 C76.3275006,13.4409873 77.9437688,10.8302535 78.3171296,11.3271373 C78.6897925,11.824719 80.3688691,12.9120014 80.3688691,12.9120014 C80.3688691,12.9120014 79.8712873,8.71570561 80.6794215,8.96484541 C81.4875556,9.21328733 83.5392951,13.6280166 83.5392951,13.6280166 L85.5910346,11.5762771 L87.0209714,14.5603717 C87.0209714,14.5603717 87.891216,10.4568927 88.4509082,10.7053346 C89.0106004,10.9544744 91.4357006,14.06279 91.4357006,14.06279 L90.1299848,26.6216688 L35.4385657,29.6650824 L3.80269676,19.907456" id="Fill-416" fill="#739F41"></path>
                            <path d="M3.33163413,19.9995749 C3.33163413,19.9995749 2.27296446,9.65155006 2.45022359,9.4749888 C2.62748272,9.29772967 5.50619884,20.5592671 5.50619884,20.5592671 L5.88165321,2.51442768 L7.74496764,14.9637409 L10.3975737,5.21797829 L13.8499394,20.5592671 L18.5277659,6.38551576 L19.5648016,14.2644746 C19.5648016,14.2644746 21.315061,5.39035232 22.0080465,5.77138966 C22.7017298,6.15172912 24.404534,12.8659419 24.404534,12.8659419 L28.0676567,0.416628733 L31.5835286,22.2376459 C31.5835286,22.2376459 33.2535329,8.38980006 33.0832525,10.7674451 C32.9129721,13.145788 34.0951648,18.1816221 34.2738197,18.0413501 C34.4517767,17.901776 35.026822,11.8868295 35.4385657,12.3062497 C35.8503093,12.7256699 36.4218653,16.6707323 37.3249098,16.1668697 C38.2286522,15.6637051 38.9244292,5.21797829 38.9244292,5.21797829 L40.8945178,13.7047824 C40.8945178,13.7047824 42.6384964,6.96684195 42.9881296,8.13158794 C43.3370649,9.29563606 45.3294853,17.0622377 45.3294853,17.0622377 L49.051927,5.21797829 L51.0820325,14.4047465 C51.0820325,14.4047465 54.0347229,6.43157522 54.8742612,7.27041565 C55.7137995,8.10995395 58.2317165,16.1668697 58.2317165,16.1668697 C58.2317165,16.1668697 62.2877403,3.07411988 62.7078584,3.7733862 C63.1272786,4.47265252 65.2257754,15.5234331 65.2257754,15.5234331 L68.1631127,9.64875857 L69.7019173,15.383859 C69.7019173,15.383859 72.0795624,5.87188302 72.9191007,8.80922027 C73.7579411,11.7465575 74.4579053,16.9226636 74.4579053,16.9226636 L78.5139291,6.38551576 L79.6333135,15.5234331 L83.269917,8.13158794 L85.7878341,15.243587 L86.7669465,11.3271373 L89.2848635,16.1668697 C89.2848635,16.1668697 92.2228986,2.88499696 92.5020469,5.21797829 C92.781893,7.55026175 93.9012774,20.6995391 93.9012774,20.6995391 L26.868715,29.6650824 L3.33163413,19.9995749" id="Fill-417" fill="#76AB42"></path>
                            <polygon id="Fill-418" fill="#F1F0ED" points="0.336373617 43.7034469 95.6229241 43.7034469 95.6229241 19.3477638 0.336373617 19.3477638"></polygon>
                        </g>
                        <g id="Group" transform="translate(65.599834, 33.396156)">
                            <path d="M135.143335,138.789011 C138.541964,133.861347 145.291769,132.621928 150.219433,136.01986 C155.147097,139.41849 156.386515,146.167596 152.988583,151.095958 C149.589954,156.023622 142.840149,157.263041 137.912485,153.864411 C132.984821,150.466479 131.745403,143.716675 135.143335,138.789011" id="Fill-740" fill="#DD4F4C"></path>
                            <path d="M150.275262,136.022652 C149.961221,135.806312 149.6402,135.608814 149.312899,135.43016 C153.082796,139.044431 153.784854,144.96028 150.724691,149.398039 C147.542401,154.012359 141.422076,155.392747 136.610957,152.76038 C137.02619,153.158864 137.479108,153.530131 137.968315,153.867202 C142.895979,157.265832 149.645783,156.025716 153.044413,151.09875 C156.442345,146.170388 155.202927,139.421281 150.275262,136.022652" id="Fill-741" fill="#CD4748"></path>
                            <path d="M136.43928,139.968412 C135.790959,139.521077 135.232662,139.330558 134.80417,139.259375 C134.724612,139.388481 134.648545,139.519681 134.575268,139.650881 C135.3841,139.736719 136.980828,140.330607 138.834372,143.278412 C136.580948,145.355275 134.847438,147.952051 134.074895,149.203333 C134.139797,149.355469 134.208188,149.505511 134.280069,149.654856 C134.942348,148.555011 136.709356,145.810287 139.050014,143.635024 C140.553227,146.237383 139.960037,148.083949 139.434541,149.719757 C139.102355,150.753304 138.788313,151.729625 139.157486,152.680822 C139.617383,153.863015 140.692104,154.832357 141.670518,155.513479 C142.018756,155.59164 142.369785,155.651657 142.722209,155.694227 C141.658654,155.068935 140.090539,153.948155 139.539919,152.532176 C139.223086,151.717063 139.502234,150.84961 139.824651,149.844676 C140.354334,148.197004 141.008937,146.154337 139.359869,143.353782 C139.908395,142.866668 140.486232,142.415146 141.086401,142.025734 C142.935758,146.340668 148.257021,152.343751 149.848864,154.087032 C149.966106,154.013057 150.080557,153.936291 150.195007,153.857432 C148.663181,152.183938 143.254684,146.104788 141.438825,141.805207 C141.508612,141.764033 141.578399,141.722859 141.648186,141.68308 C142.226721,141.353685 142.872251,141.080818 143.554769,140.85401 C143.658054,141.18829 143.800419,141.511404 143.981168,141.82056 C145.887052,145.073335 152.57684,147.289772 154.475745,147.863422 C154.51343,147.730826 154.547626,147.598231 154.579728,147.46424 C152.708039,146.889892 146.137588,144.689506 144.334988,141.613293 C144.164708,141.322281 144.036997,141.027082 143.945576,140.730487 C147.640801,139.618081 152.254423,139.777893 153.614573,139.855357 C153.538505,139.711596 153.458948,139.569928 153.375901,139.429656 C151.733812,139.343818 147.412597,139.249605 143.842989,140.328513 C143.333544,137.805711 145.244313,135.243828 146.063614,134.285652 C145.905895,134.255643 145.748176,134.229124 145.590457,134.206792 C145.203139,134.675064 144.673455,135.388287 144.222631,136.251553 C143.437527,137.754069 143.179314,139.181214 143.450088,140.452734 C142.736167,140.690708 142.057836,140.978231 141.445106,141.326468 L141.2832,141.421378 C139.840004,137.684282 140.748631,135.326177 141.2176,134.470588 C141.033362,134.520136 140.85052,134.57457 140.668376,134.633889 C140.147765,135.767231 139.545502,138.114868 140.928682,141.639812 C140.307577,142.038296 139.7102,142.500286 139.142831,143.00066 C138.155344,141.443012 137.229968,140.513449 136.43928,139.968412" id="Fill-742" fill="#BB3C3E"></path>
                            <path d="M0.134689021,159.866796 C0.134689021,161.003627 28.4626514,161.924816 63.4064269,161.924816 C98.3495044,161.924816 126.676769,161.003627 126.676769,159.866796 C126.676769,158.729267 98.3495044,157.808077 63.4064269,157.808077 C28.4626514,157.808077 0.134689021,158.729267 0.134689021,159.866796" id="Fill-743" fill="#A3A3A0"></path>
                            <path d="M64.8566019,35.0575283 L63.815379,32.9304188 L64.0840592,27.0375997 L68.2021934,26.6844772 L70.4032772,28.6741062 C70.4032772,28.6741062 70.7501189,31.8368556 70.4032772,33.3247157 C70.0564356,34.8132736 68.403878,36.5328267 68.403878,36.5328267 L64.8566019,35.0575283" id="Fill-744" fill="#FBDDB0"></path>
                            <polyline id="Fill-745" fill="#FBDDB0" points="65.3388305 29.548538 64.0840592 29.1702922 64.0840592 21.4532394 64.9089422 21.4532394 65.3388305 29.548538"></polyline>
                            <polyline id="Fill-746" fill="#FBDDB0" points="67.0849027 28.9197566 65.6612467 28.6845743 66.3060791 20.1189108 67.1281706 20.1810213 67.0849027 28.9197566"></polyline>
                            <polyline id="Fill-747" fill="#FBDDB0" points="68.8135281 29.548538 67.4366294 29.548538 68.5706691 21.7917066 69.3927606 21.8538171 68.8135281 29.548538"></polyline>
                            <polyline id="Fill-748" fill="#FBDDB0" points="69.65516 32.0825061 68.415044 31.5018778 70.5679747 24.0765348 71.3712237 24.2614705 69.65516 32.0825061"></polyline>
                            <polyline id="Fill-749" fill="#FBDDB0" points="64.9354613 30.2917702 63.9068001 33.118146 59.9791845 26.2615676 60.6519317 25.7842241 62.4573229 28.5163874 64.9354613 30.2917702"></polyline>
                            <polyline id="Fill-750" fill="#282738" points="20.5069269 72.1472558 19.8432519 156.712421 22.4846921 156.712421 31.3518356 95.979536 37.4686712 156.342549 40.2943491 156.342549 42.3125908 72.1472558 20.5069269 72.1472558"></polyline>
                            <path d="M21.4706861,36.5328267 C21.4706861,36.5328267 16.3769288,35.2787533 14.7802009,39.4024705 C13.0194735,43.9477016 -2.81032481,65.2718349 7.66401466,72.1472558 C12.0864205,75.0503974 18.3253834,65.8273399 18.3253834,65.8273399 L13.7159483,63.0435342 L18.2583879,55.117818 L21.4706861,36.5328267" id="Fill-751" fill="#2C2E46"></path>
                            <path d="M45.0963966,37.3032759 C45.0963966,37.3032759 50.4693021,45.1473411 52.2111871,48.7385831 C54.6279129,53.7220769 61.6010357,64.0805698 55.064082,65.3855878 C50.1713114,67.066758 46.2667255,61.2765259 45.6986589,59.9156782 C45.1312901,58.5548306 42.5554498,52.3814675 42.5554498,52.3814675 L45.0963966,37.3032759" id="Fill-752" fill="#2C2E46"></path>
                            <path d="M46.0678324,39.6271849 L43.546426,53.0039681 L42.096251,81.3493772 C42.096251,81.3493772 31.0803639,86.4598834 20.3017529,81.3493772 C19.8432519,78.4622866 16.9519741,52.9272023 16.9519741,52.9272023 C16.9519741,52.9272023 13.6803569,38.0772143 17.3532497,36.9222385 C21.0261426,35.7672627 39.6725465,35.2599108 43.0362826,36.2369296 C46.3993209,37.2146463 44.6811636,38.0339463 46.0678324,39.6271849" id="Fill-753" fill="#DEDED9"></path>
                            <path d="M37.3235141,6.65280019 C37.3235141,6.65280019 37.4351734,22.2655607 37.2990886,24.3040407 C37.1630039,26.3418227 35.3303957,32.1376379 30.8382028,32.530539 C26.0689553,32.9478656 23.7192251,28.6727105 23.1693031,25.6976882 C22.6193811,22.7226659 21.0861594,6.52090265 21.0861594,6.52090265 L29.893984,3.79362445 L37.3235141,6.65280019" id="Fill-754" fill="#FBDDB0"></path>
                            <path d="M18.9088032,15.0523704 C19.0141817,16.1194145 19.9646814,16.898936 21.0317255,16.7935575 C22.0980718,16.6881791 22.8775932,15.7383772 22.7722147,14.6713331 C22.6675342,13.604289 21.7170344,12.8247676 20.6499903,12.930146 C19.5836441,13.0355245 18.8041226,13.9853263 18.9088032,15.0523704" id="Fill-755" fill="#FBDDB0"></path>
                            <path d="M36.1113129,13.6663995 C36.2138999,14.7083202 37.1413699,15.4689992 38.1832907,15.3664122 C39.2245136,15.2638252 39.9858903,14.3356574 39.8833034,13.2944345 C39.7807164,12.2532116 38.8525485,11.4925326 37.8113256,11.5951196 C36.7694049,11.6977066 36.0087259,12.6251766 36.1113129,13.6663995" id="Fill-756" fill="#FBDDB0"></path>
                            <polyline id="Fill-757" fill="#582F1D" points="27.2176503 11.3424905 22.9313292 11.8337913 22.9320271 11.0026275 25.4283101 10.3626802 25.7067605 11.0989336 25.6041735 10.056315 26.0340618 9.91046004 26.2043422 10.7025431 26.4625543 9.97187265 27.3928158 9.77646889 27.2176503 11.3424905"></polyline>
                            <path d="M32.0259786,14.110943 C32.0950678,14.8088136 32.7161726,15.318957 33.4140431,15.2498678 C34.1119137,15.1814765 34.6220571,14.5596738 34.5529679,13.8618032 C34.4845766,13.1639327 33.8627739,12.6544871 33.1649033,12.7228785 C32.4670328,12.7919676 31.9568894,13.4137703 32.0259786,14.110943" id="Fill-758" fill="#FFFFFE"></path>
                            <path d="M32.4844795,13.8338884 C32.5298411,14.2951809 32.940189,14.6322524 33.4021793,14.5868908 C33.8634718,14.5408313 34.2005433,14.1304834 34.1551817,13.669191 C34.1091222,13.2072006 33.6987743,12.8701291 33.236784,12.9161886 C32.7754916,12.9615502 32.4384201,13.372596 32.4844795,13.8338884" id="Fill-759" fill="#582F1D"></path>
                            <path d="M32.358165,13.7738715 C32.3700288,13.8932074 32.476803,13.9804412 32.5961388,13.9685774 C32.7154747,13.9567136 32.8027085,13.8506373 32.7908447,13.7313014 C32.7789809,13.6112677 32.6729046,13.5240339 32.5535687,13.5358977 C32.433535,13.5477615 32.346999,13.6538378 32.358165,13.7738715" id="Fill-760" fill="#FFFFFE"></path>
                            <path d="M34.8851543,13.3118812 C34.8851543,13.3118812 32.524956,12.8987418 31.5842265,13.5044935 C32.5821814,12.7193891 32.7985213,12.5232875 33.3205285,12.5135173 C33.8418378,12.5023514 34.8851543,13.3118812 34.8851543,13.3118812" id="Fill-761" fill="#582F1D"></path>
                            <path d="M24.2740322,14.7557754 C24.3431214,15.453646 24.9642262,15.9637894 25.6620968,15.8947002 C26.3599674,15.825611 26.8701108,15.2045062 26.8010216,14.5066356 C26.7319324,13.8087651 26.1108276,13.2993196 25.412957,13.3677109 C24.7150864,13.4368001 24.2056409,14.0579049 24.2740322,14.7557754" id="Fill-762" fill="#FFFFFE"></path>
                            <path d="M24.7325332,14.4787208 C24.7778948,14.9400133 25.1889405,15.2770848 25.650233,15.2310253 C26.1115254,15.1856637 26.4485969,14.7753158 26.4032353,14.3133255 C26.3571759,13.852033 25.946828,13.5149616 25.4855355,13.5603231 C25.0242431,13.6063826 24.6864737,14.0174284 24.7325332,14.4787208" id="Fill-763" fill="#582F1D"></path>
                            <path d="M24.6062186,14.4180061 C24.6180824,14.537342 24.7248566,14.6252736 24.8441925,14.6134098 C24.9635283,14.601546 25.0507622,14.4947718 25.0388984,14.375436 C25.0270346,14.2561001 24.9209582,14.1681684 24.8016224,14.1807301 C24.6822865,14.191896 24.5943548,14.2986702 24.6062186,14.4180061" id="Fill-764" fill="#FFFFFE"></path>
                            <path d="M27.133208,13.9560158 C27.133208,13.9560158 24.7730097,13.5435743 23.8322801,14.148628 C24.8302351,13.3635236 25.0465749,13.1681199 25.5685821,13.1576518 C26.0898915,13.1471838 27.133208,13.9560158 27.133208,13.9560158" id="Fill-765" fill="#582F1D"></path>
                            <polyline id="Fill-766" fill="#582F1D" points="31.290423 10.9558702 35.6032631 10.8358364 35.485323 10.0123491 32.9234401 9.73320091 32.7510661 10.5008585 32.7057045 9.45475055 32.2590673 9.37170395 32.2025398 10.1791402 31.8438343 9.49243556 30.8947304 9.43102295 31.290423 10.9558702"></polyline>
                            <path d="M22.3723349,6.1663844 C22.3723349,6.1663844 21.3401843,11.0654358 21.5209328,13.2023155 C19.896988,9.74157536 20.2940763,5.28078664 20.2940763,5.28078664 L22.3723349,6.1663844" id="Fill-767" fill="#582F1D"></path>
                            <path d="M35.4874166,5.9458573 C35.4874166,5.9458573 37.2739653,9.94605144 37.5447391,11.6209408 C38.2251629,8.97670921 37.399582,5.3031185 37.399582,5.3031185 L35.4874166,5.9458573" id="Fill-768" fill="#582F1D"></path>
                            <path d="M20.0700599,156.396983 C20.0700599,156.396983 13.270009,157.005526 12.5630661,157.146496 C10.8260662,157.49264 10.6732326,158.588297 10.6732326,158.588297 L22.89504,158.588297 L22.3185989,156.396983 L20.0700599,156.396983" id="Fill-769" fill="#282738"></path>
                            <path d="M37.3912075,158.33497 L44.501113,158.33497 C44.501113,158.33497 45.01335,155.245497 42.6810665,155.074518 C40.348783,154.904238 37.3912075,158.33497 37.3912075,158.33497" id="Fill-770" fill="#282738"></path>
                            <polyline id="Fill-771" fill="#282738" points="37.3283992 155.750755 37.3912075 158.33497 41.6489159 158.058613 40.1429112 155.750755 37.3283992 155.750755"></polyline>
                            <path d="M64.192927,34.4755043 L69.5937474,35.14546 C69.5937474,35.14546 62.3889316,65.152499 54.5330025,65.5398172 C47.5926796,65.8817738 50.691225,58.8346767 50.691225,58.8346767 L64.192927,34.4755043" id="Fill-772" fill="#2C2E46"></path>
                            <polyline id="Fill-773" fill="#FBDDB0" points="25.1512555 35.9989558 30.7230542 35.1063793 35.4197232 35.7219011 30.697233 39.3885131 25.1512555 35.9989558"></polyline>
                            <polyline id="Fill-774" fill="#FBDDB0" points="27.0131742 30.3266637 26.6495837 36.2767082 33.468477 36.5328267 33.468477 29.548538 27.0131742 30.3266637"></polyline>
                            <polyline id="Fill-775" fill="#F1F0ED" points="26.8317279 33.2933115 30.697233 39.3885131 26.5386222 41.7856986 24.4275637 35.7198075 26.8317279 33.2933115"></polyline>
                            <polyline id="Fill-776" fill="#F1F0ED" points="33.468477 33.0406824 30.697233 39.3885131 33.9604758 41.2399638 35.9556878 35.7260884 33.468477 33.0406824"></polyline>
                            <path d="M23.9118374,36.0666492 L30.3769104,58.2603292 C30.3769104,58.2603292 32.7657214,83.3138829 30.0649623,86.0439526 C27.3635053,88.7740223 17.9806354,85.8876296 17.9806354,85.8876296 L16.4830051,51.2069513 L14.7802009,39.4024705 C14.7802009,39.4024705 15.3049996,37.6682622 17.1571481,36.8552429 C19.0099945,36.0415259 23.9118374,36.0666492 23.9118374,36.0666492" id="Fill-777" fill="#2C2E46"></path>
                            <path d="M30.3762125,58.2603292 L22.6124024,46.4809718 L24.4275637,44.6246361 L20.7148923,43.0600102 C20.7148923,43.0600102 20.8844748,36.3883675 23.9118374,36.0666492 C25.4464548,41.3132402 30.3762125,58.2603292 30.3762125,58.2603292" id="Fill-778" fill="#282738"></path>
                            <polyline id="Fill-779" fill="#DD4F4C" points="28.2044393 40.8254287 29.4501383 43.4598901 31.9247873 43.4598901 33.0518483 40.7242374 30.697233 39.3885131 28.2044393 40.8254287"></polyline>
                            <polyline id="Fill-780" fill="#DD4F4C" points="29.3622066 43.2735586 28.2044393 50.7959056 30.3762125 58.2603292 30.697233 58.2603292 33.0518483 49.9389205 31.9247873 43.4598901 29.3622066 43.2735586"></polyline>
                            <path d="M37.162306,35.744233 L30.3769104,58.2603292 C30.3769104,58.2603292 29.0781733,82.7318588 31.7796303,85.4619285 C34.4803894,88.1913003 43.093508,85.5659112 43.093508,85.5659112 L44.5911383,50.885233 L46.2939425,39.0800543 C46.2939425,39.0800543 45.7691438,37.345846 43.9169953,36.5328267 C42.0641489,35.7198075 37.162306,35.744233 37.162306,35.744233" id="Fill-781" fill="#2C2E46"></path>
                            <path d="M37.162306,35.744233 L30.3762125,58.2603292 L37.9697423,47.0860256 L36.6047074,45.3936894 L38.8979101,44.9568225 C38.8979101,44.9568225 40.3173789,40.0982475 39.7165123,37.8057427 C39.1163436,35.51254 37.162306,35.744233 37.162306,35.744233" id="Fill-782" fill="#282738"></path>
                            <path d="M32.4984369,62.9451344 C32.4984369,63.2612698 32.2416206,63.5180861 31.9247873,63.5180861 C31.608652,63.5180861 31.3518356,63.2612698 31.3518356,62.9451344 C31.3518356,62.6283012 31.608652,62.3714848 31.9247873,62.3714848 C32.2416206,62.3714848 32.4984369,62.6283012 32.4984369,62.9451344" id="Fill-783" fill="#282738"></path>
                            <path d="M32.4984369,68.4966948 C32.4984369,68.8135281 32.2416206,69.0703444 31.9247873,69.0703444 C31.608652,69.0703444 31.3518356,68.8135281 31.3518356,68.4966948 C31.3518356,68.1798616 31.608652,67.9237431 31.9247873,67.9237431 C32.2416206,67.9237431 32.4984369,68.1798616 32.4984369,68.4966948" id="Fill-784" fill="#282738"></path>
                            <path d="M32.4984369,73.2861806 C32.4984369,73.602316 32.2416206,73.8591323 31.9247873,73.8591323 C31.608652,73.8591323 31.3518356,73.602316 31.3518356,73.2861806 C31.3518356,72.9693473 31.608652,72.712531 31.9247873,72.712531 C32.2416206,72.712531 32.4984369,72.9693473 32.4984369,73.2861806" id="Fill-785" fill="#282738"></path>
                            <path d="M38.3417073,83.378087 C37.4281947,83.378087 36.347891,83.1429046 35.1210346,82.4771361 C30.9645174,80.2202226 34.1817008,58.8193236 34.1817008,58.8193236 L41.7522008,41.2399638 L41.7522008,82.0402691 C41.7522008,82.0402691 40.5225528,83.378087 38.3417073,83.378087" id="Fill-786" fill="#383850"></path>
                            <path d="M25.3731784,85.421452 C22.9404015,85.421452 19.8432519,84.1513276 19.8432519,84.1513276 L19.3079852,74.9324573 L25.0919365,75.7036043 L27.0829613,65.3395283 C28.4731195,71.3544748 29.1507518,77.7385949 28.2044393,83.6209459 C27.9846101,84.9894701 26.7919493,85.421452 25.3731784,85.421452 M24.3815043,56.1374069 L18.1564988,55.1038606 L17.2939307,40.257362 C17.2939307,40.257362 21.1615295,46.9862301 24.3815043,56.1374069" id="Fill-787" fill="#383850"></path>
                            <polyline id="Fill-788" fill="#DD4F4C" points="15.4480631 54.654432 28.7124891 56.8562136 25.0919365 75.7036043 13.5351998 74.162706 15.4480631 54.654432"></polyline>
                            <path d="M15.4480631,73.6232521 L16.4627669,55.5183957 L27.456322,57.9455896 C27.456322,57.9455896 23.8204163,70.9022547 21.1238444,72.1472558 C18.4279704,73.3922569 15.4480631,73.6232521 15.4480631,73.6232521" id="Fill-789" fill="#E46E6B"></path>
                            <path d="M11.6279195,62.7650838 C11.6279195,62.7650838 18.2702517,60.6309956 19.1732962,63.7211665 C20.0763407,66.8106395 14.2456321,68.7151283 12.9364269,68.4764566 C11.6279195,68.2391806 11.6279195,62.7650838 11.6279195,62.7650838" id="Fill-790" fill="#FBDDB0"></path>
                            <path d="M56.5372868,61.2248834 C53.4122223,61.2241856 53.9733103,56.940656 54.729802,54.5330025 C55.3934769,52.4191525 64.9354613,35.7198075 64.9354613,35.7198075 C64.9354613,35.7198075 59.8807847,61.1292752 56.6398738,61.2234877 C56.6049802,61.2241856 56.5714824,61.2248834 56.5372868,61.2248834" id="Fill-791" fill="#383850"></path>
                            <path d="M37.399582,5.3031185 C37.399582,5.3031185 35.9340538,-0.0963061394 29.2156538,0.0963061394 C22.4965559,0.288918418 20.2940763,5.28078664 20.2940763,5.28078664 L22.4065306,6.51531969 C22.4065306,6.51531969 27.6817342,6.77283393 29.1856453,6.6241875 C30.6902543,6.47623894 35.4874166,5.9458573 35.4874166,5.9458573 L37.399582,5.3031185" id="Fill-792" fill="#582F1D"></path>
                            <path d="M37.3416587,9.60339699 L36.6507669,23.1253373 C36.6507669,23.1253373 34.5585509,21.6821409 29.7990736,21.9550083 C25.0402941,22.2278757 23.3730813,24.1002624 23.3730813,24.1002624 L21.5600136,11.4004137 L20.915879,11.5839537 C20.915879,11.5839537 20.1217023,33.8906887 30.2694383,33.1355928 C40.4171744,32.3804968 37.3416587,9.60339699 37.3416587,9.60339699" id="Fill-793" fill="#582F1D"></path>
                            <g id="Group-796" transform="translate(27.216952, 11.165929)">
                                <mask id="mask-2" fill="white">
                                    <use xlink:href="#path-1"></use>
                                </mask>
                                <g id="Clip-795"></g>
                                <path d="M2.4285896,1.23453305 C2.4285896,1.23453305 1.98893114,5.30451424 3.12646018,6.998944 C4.26398921,8.69337376 5.30032702,6.78190625 5.3743013,8.67871847 C5.44897345,10.5748328 0.615521847,9.87626438 0.615521847,9.87626438 L0.945614629,0.614823977 L2.4285896,1.23453305" id="Fill-794" fill="url(#linearGradient-3)" mask="url(#mask-2)"></path>
                            </g>
                            <path d="M33.1167503,25.0982174 C33.1167503,25.0982174 31.6456391,26.0549979 29.9449285,26.1931763 C28.2442179,26.3320525 26.480699,25.2894339 26.480699,25.2894339 C26.480699,25.2894339 27.6873172,27.0536507 30.007039,26.8247492 C32.3274587,26.5958476 33.1167503,25.0982174 33.1167503,25.0982174" id="Fill-797" fill="#311F16"></path>
                            <path d="M86.9162908,65.6472893 C86.9162908,65.6472893 89.7287092,50.6339996 99.4388804,50.9138457 C109.149749,51.1929939 146.15643,103.477457 125.787682,141.609106 C121.594178,149.459452 111.736756,156.416524 103.93875,158.481523 C73.5360183,166.534251 30.3580679,156.461885 27.9134273,145.928925 C24.8344223,132.665894 30.9826621,112.431137 50.4085874,112.127563 C69.8338149,111.823989 89.3804718,110.109321 89.3804718,110.109321 L86.9162908,65.6472893" id="Fill-798" fill="#EC962D"></path>
                            <path d="M77.3729107,157.303517 C69.3334416,157.303517 62.337987,155.752151 61.0832157,152.257215 C59.9184697,149.013512 59.8061126,143.602922 60.580051,138.625709 C64.0589358,139.800225 67.6787905,140.700478 71.3523812,141.294366 C74.8117257,141.854058 78.2829339,142.133904 81.6752828,142.133904 C85.2288397,142.133904 88.6958608,141.826841 91.9737588,141.214111 C95.2991121,140.59161 98.4360404,139.657162 101.298008,138.43519 C104.274426,137.164368 106.973091,135.575317 109.317936,133.709909 C113.181348,130.637882 115.771843,126.149179 117.01824,120.367321 C118.069931,115.48781 118.186476,109.574753 117.365082,102.792149 C115.878618,90.5256774 111.641147,77.850952 109.109273,70.2776605 C108.042927,67.0869963 107.272478,64.7819298 107.062419,63.6178816 C106.690454,61.5577677 106.450386,59.97081 106.296157,58.7586088 C112.491852,66.0667095 121.813309,83.4736952 123.082735,101.547845 C124.858816,126.854028 110.64738,147.894826 99.6328884,153.184685 C94.1748426,155.806585 85.2700141,157.303517 77.3729107,157.303517 M81.8120654,141.859641 C78.438559,141.859641 74.9533934,141.577004 71.3991386,141.001958 C67.6704161,140.398998 64.0610295,139.502234 60.6254126,138.343071 C61.5277593,132.802677 63.5327414,127.865243 66.4128533,127.152019 C66.9055499,127.029891 67.5322377,126.975458 68.2705848,126.975458 C71.1493009,126.975458 75.7196553,127.799643 80.6152174,128.62313 C85.5107795,129.446617 90.7322471,130.270802 94.9124918,130.270802 C97.4541365,130.270802 99.6105566,129.966531 101.076085,129.172354 C107.982212,125.432466 114.480783,116.192659 110.824639,87.5932252 C108.337428,68.1379894 98.4116149,58.6364815 101.076085,55.4395364 C101.237293,55.2455283 101.453633,55.1520137 101.717428,55.1520137 C102.639315,55.1520137 104.14532,56.3000108 105.945826,58.3517503 C106.097264,59.6169896 106.351288,61.3421257 106.770709,63.6702219 C106.984257,64.855904 107.758196,67.169345 108.828729,70.3711752 C111.357114,77.9339986 115.588303,90.5905794 117.07058,102.828438 C118.855733,117.55909 116.184983,127.871523 109.133698,133.478216 C102.237341,138.962083 92.6088211,141.859641 81.8120654,141.859641" id="Fill-799" fill="#F0AA3F"></path>
                            <path d="M81.6752828,142.133904 C85.2288397,142.133904 88.6958608,141.826841 91.9737588,141.214111 C95.2991121,140.59161 98.4360404,139.657162 101.298008,138.43519 C104.274426,137.164368 106.973091,135.575317 109.317936,133.709909 C113.181348,130.637882 115.771843,126.149179 117.01824,120.367321 C118.069931,115.48781 118.186476,109.574753 117.365082,102.792149 C115.878618,90.5256774 111.641147,77.850952 109.109273,70.2776605 C108.042927,67.0869963 107.272478,64.7819298 107.062419,63.6178816 C105.843239,56.8583072 106.038642,55.1876051 106.040736,55.1715541 L105.74763,55.1310776 C105.738558,55.1980731 105.537571,56.8303924 106.770709,63.6702219 C106.984257,64.855904 107.758196,67.169345 108.828729,70.3711752 C111.357114,77.9339986 115.588303,90.5905794 117.07058,102.828438 C118.855733,117.55909 116.184983,127.871523 109.133698,133.478216 C100.083015,140.674657 86.3293816,143.417288 71.3991386,141.001958 C55.2587879,138.391224 41.3376657,130.268011 34.1600668,119.272362 L33.9123227,119.43357 C35.781918,122.297631 38.1232738,124.99839 40.8728838,127.461175 C43.508741,129.822769 46.5263334,131.972909 49.8419165,133.852274 C56.2427854,137.479805 63.6813879,140.053552 71.3523812,141.294366 C74.8117257,141.854058 78.2829339,142.133904 81.6752828,142.133904" id="Fill-800" fill="#D7812F"></path>
                            <path d="M79.8077811,41.125513 C79.8077811,41.125513 78.3708656,61.2130196 87.39503,63.6444007 C98.6202782,61.7315375 94.6682371,39.0933139 94.6682371,39.0933139 L86.3852113,36.7031072 L79.8077811,41.125513" id="Fill-801" fill="#FBDDB0"></path>
                            <path d="M97.4010983,48.5173581 C96.9544611,49.8202825 95.8364725,50.6179486 94.9041174,50.2983238 C93.9717623,49.9786991 93.5788612,48.6625152 94.0254983,47.3595908 C94.4728334,46.0559686 95.590822,45.2590004 96.5224793,45.5786251 C97.4548343,45.8982499 97.8484334,47.2144338 97.4010983,48.5173581" id="Fill-802" fill="#FBDDB0"></path>
                            <path d="M79.8559342,42.4591437 C79.4434927,41.7431285 78.8614686,40.9329007 78.2599042,38.8469656 C76.6422402,33.2339925 83.2392107,29.8870053 86.8478995,30.3678381 C95.6906175,31.5479372 94.7477944,39.6941804 94.7477944,39.6941804 C94.7477944,39.6941804 81.0234717,36.013611 79.8559342,42.4591437" id="Fill-803" fill="#582F1D"></path>
                            <path d="M84.1499318,56.4975082 L90.4733825,56.3460702 C90.4733825,56.3460702 90.5200944,58.1095892 87.6120678,58.2226442 C84.7040411,58.3350014 84.1499318,56.4975082 84.1499318,56.4975082" id="Fill-804" fill="#D5472B"></path>
                            <path d="M92.6862847,47.0483406 C92.6772124,48.02187 91.8816399,48.8041829 90.9074126,48.7958085 C89.9338832,48.7867362 89.1515702,47.9904658 89.1599447,47.0162385 C89.1683191,46.0427091 89.9652873,45.2603962 90.9388168,45.2694685 C91.9123462,45.2778429 92.695357,46.0741132 92.6862847,47.0483406" id="Fill-805" fill="#FFFFFE"></path>
                            <path d="M92.0184226,46.7210393 C92.0128396,47.3651738 91.4859473,47.8822959 90.8425106,47.8767129 C90.1983761,47.8704321 89.681254,47.3442377 89.686837,46.7001032 C89.6924199,46.0566665 90.2186144,45.5395444 90.8627489,45.5451274 C91.5068834,45.5500124 92.0240055,46.0769047 92.0184226,46.7210393" id="Fill-806" fill="#582F1D"></path>
                            <path d="M92.1845158,46.6219416 C92.18312,46.7887327 92.0470353,46.9227239 91.8802442,46.9213281 C91.7134531,46.9199324 91.579462,46.7831498 91.5808577,46.6163587 C91.5822535,46.4502655 91.7190361,46.3155765 91.8858272,46.3176701 C92.0519204,46.3190658 92.1866094,46.4551506 92.1845158,46.6219416" id="Fill-807" fill="#FFFFFE"></path>
                            <path d="M88.6323545,46.296734 C88.6323545,46.296734 91.8460485,45.4327702 93.2222493,46.1529726 C91.7441594,45.191307 91.4203475,44.9477501 90.6980514,44.9979968 C89.9750575,45.0482435 88.6323545,46.296734 88.6323545,46.296734" id="Fill-808" fill="#582F1D"></path>
                            <path d="M85.7187449,47.0050726 C85.7103704,47.978602 84.9134022,48.7616128 83.9398728,48.7525405 C82.9663433,48.7441661 82.1840304,47.9478957 82.1924049,46.9736684 C82.2007793,46.000139 82.9977475,45.2178261 83.971277,45.2262005 C84.9448064,45.2352728 85.7271193,46.0315431 85.7187449,47.0050726" id="Fill-809" fill="#FFFFFE"></path>
                            <path d="M85.0508827,46.6784692 C85.0452998,47.3219058 84.5184075,47.8397258 83.8749708,47.833445 C83.2308363,47.827862 82.7137142,47.3016676 82.7192972,46.657533 C82.7248801,46.0133985 83.2510745,45.4962764 83.8952091,45.5018594 C84.5393436,45.5081402 85.0564657,46.0343346 85.0508827,46.6784692" id="Fill-810" fill="#582F1D"></path>
                            <path d="M85.2169759,46.5793715 C85.2155802,46.7461626 85.0794954,46.8801538 84.9127044,46.878758 C84.7459133,46.8766644 84.6119222,46.7405796 84.6133179,46.5737886 C84.6147136,46.4069975 84.7514963,46.2730064 84.9175895,46.2751 C85.0843805,46.2757978 85.2190696,46.4125805 85.2169759,46.5793715" id="Fill-811" fill="#FFFFFE"></path>
                            <path d="M81.6648147,46.2541639 C81.6648147,46.2541639 84.8785087,45.3902001 86.2547095,46.1104025 C84.7759217,45.1487369 84.4528077,44.90518 83.7305116,44.9547288 C83.0075177,45.0056734 81.6648147,46.2541639 81.6648147,46.2541639" id="Fill-812" fill="#582F1D"></path>
                            <path d="M85.5638176,53.7039322 C85.3530607,53.7018386 85.1471889,53.6725281 84.9559723,53.6048346 C84.5546968,53.4617712 84.2685698,53.1735506 84.105966,52.7485474 C83.9642983,52.3793739 83.987328,52.0297407 84.1743573,51.7094181 C84.6628667,50.8712756 86.1932969,50.5027999 86.7564784,50.3932342 C86.7355423,49.4580877 86.5875937,45.5186083 85.5428815,43.7781191 L85.9539273,43.5310729 C87.2059071,45.6163101 87.238707,50.3904428 87.2394049,50.5921274 L87.2401027,50.7993949 L87.0356267,50.8307991 C86.4877983,50.9131478 84.9817936,51.2753426 84.5881946,51.9508814 C84.4765353,52.1427958 84.4653693,52.3472718 84.553301,52.5761734 C84.6656582,52.869279 84.849896,53.0577041 85.1164826,53.1526145 C85.8750679,53.4226904 87.1249541,52.8609046 87.5422807,52.621535 L87.7809524,53.0381637 C87.723727,53.0709636 86.5882916,53.7130046 85.5638176,53.7039322" id="Fill-813" fill="#D2AD7F"></path>
                            <polyline id="Fill-814" fill="#582F1D" points="88.3971722 40.5009188 88.5395377 42.4849649 92.8823863 43.1946993 93.4050914 41.9713321 88.3971722 40.5009188"></polyline>
                            <polyline id="Fill-815" fill="#582F1D" points="85.5540474 40.7633182 85.3767883 42.7445727 81.0220759 43.3775413 80.5217027 42.1451019 85.5540474 40.7633182"></polyline>
                            <path d="M84.1122468,60.8005781 C85.0418104,60.8089526 91.8641932,60.8689694 91.8641932,60.8689694 L92.1845158,66.4819425 L87.6427741,68.334091 L84.1122468,66.9934816 L84.1122468,60.8005781" id="Fill-816" fill="#FBDDB0"></path>
                            <polyline id="Fill-817" fill="#FFFFFE" points="84.9657425 56.6196355 89.6672966 56.5407761 89.6610158 57.2937785 85.1213677 57.387991 84.9657425 56.6196355"></polyline>
                            <path d="M94.496561,39.3396622 L94.7149945,46.0329389 C94.7149945,46.0329389 97.9189183,42.8555342 97.4590216,40.5811739 C96.9998227,38.3068137 94.496561,39.3396622 94.496561,39.3396622" id="Fill-818" fill="#582F1D"></path>
                            <path d="M78.7937752,40.4157786 C80.5921876,39.7925802 80.0534316,40.8386882 80.0534316,40.8386882 L79.8601214,46.6714905 L79.2006337,46.878758 C79.2006337,46.878758 76.9953627,41.0396749 78.7937752,40.4157786" id="Fill-819" fill="#582F1D"></path>
                            <path d="M80.6487152,48.1237591 C80.9774122,49.402258 80.4882049,50.6333017 79.5565477,50.8726713 C78.6248905,51.1120409 77.603208,50.2697111 77.2745109,48.9912123 C76.9458139,47.7120155 77.4350212,46.4809718 78.3666784,46.2416022 C79.2983356,46.0022326 80.3200181,46.8452602 80.6487152,48.1237591" id="Fill-820" fill="#FBDDB0"></path>
                            <path d="M81.3465857,31.7956813 C81.3465857,31.7956813 81.0667396,36.8412855 89.3804718,38.7646168 C83.1966406,37.0883317 81.3465857,31.7956813 81.3465857,31.7956813" id="Fill-821" fill="#873D26"></path>
                            <path d="M79.4379097,33.5598981 C79.4379097,33.5598981 78.9270684,37.0338978 86.0572121,38.682966 C80.7540936,37.2460505 79.4379097,33.5598981 79.4379097,33.5598981" id="Fill-822" fill="#873D26"></path>
                            <path d="M83.7744775,30.6951394 C83.7744775,30.6951394 83.8156518,37.3004844 90.9457955,38.9495525 C85.642677,37.512637 83.7744775,30.6951394 83.7744775,30.6951394" id="Fill-823" fill="#873D26"></path>
                            <path d="M80.5873025,49.8949546 L86.0376717,49.5034493 L85.9106593,47.7329516 L80.4602901,48.124457 L80.5873025,49.8949546 Z M86.3454327,49.7693379 L80.320716,50.2027156 L80.1518313,47.8585683 L86.1772459,47.4251907 L86.3454327,49.7693379 Z" id="Fill-824" fill="#393A37"></path>
                            <path d="M87.8325949,49.3945814 L93.282964,49.0030761 L93.1559516,47.2325784 L87.7055824,47.6240838 L87.8325949,49.3945814 Z M93.590725,49.2689647 L87.5660083,49.7023424 L87.3978215,47.3574972 L93.4225382,46.9248175 L93.590725,49.2689647 Z" id="Fill-825" fill="#393A37"></path>
                            <polyline id="Fill-826" fill="#393A37" points="86.2226074 48.5997069 86.1891097 48.3142778 87.5011063 48.1600484 87.5346041 48.4461753 86.2226074 48.5997069"></polyline>
                            <path d="M73.3636442,106.556462 C73.3636442,106.556462 48.7288129,107.013568 46.7594222,108.398841 C44.7900314,109.784114 32.4579605,156.095503 32.4579605,156.095503 L36.3178826,156.228796 C36.3178826,156.228796 47.9423128,131.048928 49.4936791,127.506537 C51.0443475,123.964146 52.4687013,117.426494 52.4687013,117.426494 L78.3576061,119.982794 L73.3636442,106.556462" id="Fill-827" fill="#202231"></path>
                            <path d="M98.4618616,115.612729 L77.6590376,105.810439 L73.3636442,106.556462 L72.9867941,109.056235 L73.5541629,109.264898 L52.8434578,113.741738 L48.6101749,155.397632 L53.0004787,156.363485 C53.0004787,156.363485 59.7593552,136.182464 60.3197453,132.058049 C60.8801354,127.933634 60.2108775,122.579571 60.2108775,122.579571 C60.2108775,122.579571 88.0803389,120.692529 92.8049227,120.242402 C97.5295065,119.792276 98.4618616,115.612729 98.4618616,115.612729" id="Fill-828" fill="#202231"></path>
                            <path d="M53.7904682,155.017293 L54.3369009,160.713313 L38.7939274,161.377685 C38.7939274,161.377685 38.5622344,160.374148 39.3194239,159.385265 C45.1040731,158.949096 48.6408812,155.19525 48.6408812,155.19525 L53.7904682,155.017293" id="Fill-829" fill="#1B1B1B"></path>
                            <path d="M37.7401428,154.086334 L37.0855402,159.770489 L21.7456471,157.177202 C21.7456471,157.177202 21.7288982,156.147145 22.6759086,155.338313 C28.4235707,156.118533 32.6659259,153.184685 32.6659259,153.184685 L37.7401428,154.086334" id="Fill-830" fill="#1B1B1B"></path>
                            <path d="M72.8395434,97.5685873 C72.8395434,97.5685873 73.7830644,67.4917612 78.0093686,66.899967 C80.3535159,66.5712699 84.5239905,66.5838316 86.683202,66.6215166 L96.4233816,66.2027942 L99.7975859,74.8898872 C99.7975859,74.8898872 100.450095,86.3496199 101.076085,96.0800293 C101.702773,105.810439 98.2692493,116.205919 98.2692493,116.205919 L77.6715993,110.033254 L78.9612641,93.5481549 L77.1719239,101.981223 L65.2180989,109.294209 L63.1677551,105.859988 L72.8395434,97.5685873" id="Fill-831" fill="#DD4F4C"></path>
                            <path d="M70.0641121,118.436313 C70.0180527,118.436313 69.9726911,118.436313 69.9280274,118.435615 C65.6221659,118.416075 55.867331,114.695029 55.867331,114.695029 L81.2677264,111.110766 L82.9370328,111.611139 L93.3304192,116.750258 C93.3304192,116.750258 75.9541398,118.436313 70.0641121,118.436313" id="Fill-832" fill="#373745"></path>
                            <polyline id="Fill-833" fill="#E0605B" points="82.9370328 111.611139 81.2677264 111.110766 81.7792655 111.038885 82.9370328 111.611139"></polyline>
                            <path d="M60.3281197,112.124074 C60.326724,112.124074 60.3246304,112.124074 60.3225368,112.124074 C57.6852839,112.075223 50.4085874,109.22163 50.4085874,109.22163 L64.7937936,108.583776 L65.2180989,109.294209 L66.5028786,108.508406 L73.1138066,108.215301 L72.9867941,109.056235 L73.434827,109.220932 C73.3168869,109.269783 73.1954574,109.319332 73.0712364,109.369579 L60.3281197,112.124074" id="Fill-834" fill="#373745"></path>
                            <path d="M60.7007826,112.127563 C60.5765617,112.127563 60.4523407,112.126167 60.3281197,112.124074 L73.0712364,109.369579 C70.1394822,110.552469 65.3597666,112.127563 60.7007826,112.127563 M73.434827,109.220932 L72.9867941,109.056235 L73.1138066,108.215301 L75.926225,108.090382 C75.926225,108.090382 74.9820061,108.581683 73.434827,109.220932" id="Fill-835" fill="#373745"></path>
                            <polyline id="Fill-836" fill="#E0605B" points="65.2180989 109.294209 64.7937936 108.583776 66.5028786 108.508406 65.2180989 109.294209"></polyline>
                            <path d="M52.4470673,154.58252 L50.6018975,154.537158 L56.2853555,120.428036 C56.2853555,120.428036 60.1969201,125.306151 58.6909154,131.812399 C57.1849107,138.319344 52.4470673,154.58252 52.4470673,154.58252" id="Fill-837" fill="#373745"></path>
                            <path d="M36.1315512,153.338914 L34.5871636,153.106523 L45.7321567,120.853737 C45.7321567,120.853737 48.3826691,122.995502 47.3791312,127.849192 C46.3755933,132.702183 36.1315512,153.338914 36.1315512,153.338914" id="Fill-838" fill="#373745"></path>
                            <path d="M42.5414924,160.07825 C42.5414924,160.07825 49.4134239,158.090017 50.7184419,155.754244 C52.1351192,155.750057 53.3361545,155.54907 53.3361545,155.54907 L53.592273,159.455052 L42.5414924,160.07825" id="Fill-839" fill="#323131"></path>
                            <path d="M36.1155001,158.481523 L25.1554428,156.937833 C25.1554428,156.937833 32.2827949,156.327894 34.0183991,154.291508 C35.4085572,154.563677 36.6263414,154.601362 36.6263414,154.601362 L36.1155001,158.481523" id="Fill-840" fill="#323131"></path>
                            <path d="M84.0982894,66.4624021 C84.0982894,66.4624021 83.6900351,70.6293873 87.5332084,70.6286894 C91.6883298,70.6279916 92.199171,66.3842406 92.199171,66.3842406 L86.9162908,65.6472893 L84.0982894,66.4624021" id="Fill-841" fill="#FBDDB0"></path>
                            <path d="M97.2217456,141.105243 L97.5113619,141.043133 C97.1414905,139.318694 94.8978366,138.650134 94.8029262,138.622917 L94.7198796,138.906951 C94.7415136,138.913232 96.8895592,139.554575 97.2217456,141.105243" id="Fill-842" fill="#D7812F"></path>
                            <path d="M89.5165566,143.009034 C90.058802,141.083609 89.2464806,139.309622 89.2115871,139.23495 L88.9429069,139.360567 C88.9512814,139.377316 89.7433645,141.111524 89.2318254,142.928779 L89.5165566,143.009034" id="Fill-843" fill="#D7812F"></path>
                            <path d="M85.8994934,143.200251 C86.4445303,141.807999 85.9260124,139.957246 85.9036806,139.878387 L85.6189494,139.960037 C85.6238345,139.978182 86.1318843,141.794041 85.6238345,143.092081 L85.8994934,143.200251" id="Fill-844" fill="#D7812F"></path>
                            <path d="M78.2103554,143.154889 L78.5055546,143.13814 C78.4455377,142.091334 79.0233746,140.44436 79.161553,140.301994 L79.1531785,140.308973 L78.9884811,140.062624 C78.7142179,140.245467 78.1517342,142.142977 78.2103554,143.154889" id="Fill-845" fill="#D7812F"></path>
                            <polyline id="Fill-846" fill="#D5D4CF" points="72.5436463 113.639849 88.3371553 112.805893 71.9511542 107.577447 52.9230151 108.282296 72.5436463 113.639849"></polyline>
                            <polyline id="Fill-847" fill="#E8E7E3" points="88.3371553 112.805893 88.3371553 113.639849 72.8395434 114.232341 72.5436463 113.639849 88.3371553 112.805893"></polyline>
                            <polyline id="Fill-848" fill="#BBBBB6" points="70.6803319 108.446296 72.2554257 108.212509 83.6830564 112.120584 76.5187171 112.482779 71.272824 110.033951 70.6803319 108.446296"></polyline>
                            <path d="M76.4587002,107.181754 C76.4587002,107.181754 70.3921113,107.613736 70.0082825,109.085545 C69.6251515,110.556657 71.0823053,112.775885 71.0823053,112.775885 L77.6715993,110.782069 L76.4587002,107.181754" id="Fill-849" fill="#FBDDB0"></path>
                            <path d="M102.373426,98.8296394 L77.6715993,110.576197 L75.9534419,107.577447 L95.0409,92.6444125 L95.3472652,71.9092819 L94.5307566,68.2028913 L96.4233816,66.2027942 C96.4233816,66.2027942 100.108836,65.6724126 101.368493,67.2614639 C103.334394,69.7403002 102.373426,98.8296394 102.373426,98.8296394" id="Fill-850" fill="#DD4F4C"></path>
                            <g id="Group-853" transform="translate(39.778623, 87.931692)">
                                <mask id="mask-5" fill="white">
                                    <use xlink:href="#path-4"></use>
                                </mask>
                                <g id="Clip-852"></g>
                                <polyline id="Fill-851" fill="url(#linearGradient-6)" mask="url(#mask-5)" points="33.0609206 26.3006484 24.7785926 4.10696834 0.52200719 0.261003595 8.05272857 20.6960498 33.0609206 26.3006484"></polyline>
                            </g>
                            <polyline id="Fill-854" fill="#C03F41" points="95.0409 92.6444125 78.2117511 105.810439 78.1084663 104.588467 93.7993883 92.5076298 95.278176 76.6254913 95.0409 92.6444125"></polyline>
                            <polyline id="Fill-855" fill="#C03F41" points="79.1482934 109.873441 101.152851 99.4102677 101.000017 102.22478 80.1811419 110.203534 79.1482934 109.873441"></polyline>
                        </g>
                    </g>
                </g>
            </g>
        </g>
    </g>
</svg>