<?xml version="1.0" encoding="UTF-8"?>
<svg width="222px" height="197px" viewBox="0 0 222 197" version="1.1" xmlns="http://www.w3.org/2000/svg" xmlns:xlink="http://www.w3.org/1999/xlink">
    <!-- Generator: sketchtool 51.2 (57519) - http://www.bohemiancoding.com/sketch -->
    <title>E39F6B64-7EEA-4904-AC13-4E5E29B21437</title>
    <desc>Created with sketchtool.</desc>
    <defs>
        <path d="M28.0868194,46.0632863 L0.58492511,46.0632863 C0.58492511,46.0632863 0.543268722,44.9906344 0.54153304,43.1742423 C4.62299119,42.2985903 11.7930969,40.6028282 16.4820441,38.6059251 C19.1289604,40.5941498 22.4380396,42.2630088 26.5056123,43.4502159 C26.5056123,43.4502159 27.7856784,35.7784978 28.0599163,27.1868678 L30.4239163,27.1721145 C30.2789868,30.5080969 29.9691674,33.7243172 29.6220308,36.5291806 C28.9303612,42.1120044 28.0868194,46.0632863 28.0868194,46.0632863 M30.4811938,25.5110661 L28.099837,25.5110661 C28.258652,15.1924317 26.7885286,4.19167401 19.8484009,3.83325551 C19.7104141,3.82631278 19.5724273,3.82284141 19.4353084,3.82284141 C11.8026432,3.82284141 5.81800881,14.7793392 8.00844053,25.4442423 L5.48302203,24.9747401 C5.48302203,24.9747401 4.90851101,25.1717401 3.93479295,25.5110661 L1.72092952,25.5110661 C1.8233348,24.7968326 1.9344185,24.0799956 2.05504846,23.3622907 C2.12013656,22.9769692 2.18696035,22.5933833 2.25725551,22.2080617 C3.31081498,16.422163 4.99703084,10.709163 7.68213216,6.54786344 C9.56274449,3.63278414 11.9328194,1.47880176 14.9207974,0.590132159 C15.902326,0.298537445 16.9524141,0.143193833 18.0727974,0.143193833 C18.1474317,0.143193833 18.2211982,0.144061674 18.2967004,0.144929515 C27.7214581,0.317629956 30.3267181,11.0328678 30.5011542,22.0674714 C30.5072291,22.452793 30.5107004,22.835511 30.5107004,23.2208326 C30.5115683,23.9854009 30.5011542,24.7499692 30.4811938,25.5110661" id="path-1"></path>
        <linearGradient x1="54.9010172%" y1="1.13393684%" x2="48.0597464%" y2="98.2480676%" id="linearGradient-3">
            <stop stop-color="#FFFFFE" offset="0%"></stop>
            <stop stop-color="#C0C1BD" offset="100%"></stop>
        </linearGradient>
        <path d="M19.5628811,39.9788502 C15.4953084,38.7916432 12.1862291,37.1227841 9.53931278,35.1345595 C11.74363,34.1964229 13.3994714,33.1905947 13.9288546,32.1734846 C15.6593304,28.8487841 15.0223348,24.5685903 15.0223348,24.5685903 L10.7820617,23.7797225 L21.117185,23.7155022 C20.8429471,32.3071322 19.5628811,39.9788502 19.5628811,39.9788502 M21.1571057,22.0397004 L1.42499559,22.0397004 L1.06570925,21.9728767 C-1.12472247,11.3079736 4.85991189,0.351475771 12.4925771,0.351475771 C12.629696,0.351475771 12.7676828,0.354947137 12.9056696,0.361889868 C19.8457974,0.72030837 21.3159207,11.7210661 21.1571057,22.0397004" id="path-4"></path>
        <linearGradient x1="45.9330594%" y1="-7.97161754%" x2="35.9608476%" y2="104.56397%" id="linearGradient-6">
            <stop stop-color="#F8F7F6" offset="0%"></stop>
            <stop stop-color="#BCBCB9" offset="100%"></stop>
        </linearGradient>
        <polyline id="path-7" points="1.13947577 0.38185022 2.27374449 0.750682819 2.96194273 16.8040132 0.38185022 17.3958811 1.13947577 0.38185022"></polyline>
        <linearGradient x1="50.016818%" y1="1.06095384%" x2="50.016818%" y2="98.6003571%" id="linearGradient-9">
            <stop stop-color="#4B2919" offset="0%"></stop>
            <stop stop-color="#582F1D" offset="100%"></stop>
        </linearGradient>
        <path d="M26.7321189,2.38829956 C26.7321189,2.38829956 23.443,30.6365374 21.2334758,30.9316035 C19.0239515,31.2266696 0.340193833,26.8596916 0.340193833,26.8596916 L0.340193833,24.0704493 L18.9475815,26.0907841 L22.4284934,0.536325991 L26.7321189,2.38829956" id="path-10"></path>
        <linearGradient x1="95.504916%" y1="20.1937844%" x2="35.5650916%" y2="94.0098286%" id="linearGradient-12">
            <stop stop-color="#4DAA4F" offset="0%"></stop>
            <stop stop-color="#56B148" offset="100%"></stop>
        </linearGradient>
        <path d="M38.53563,49.2387181 L3.28304405,49.2387181 C3.28304405,49.2387181 3.02269163,48.2198722 2.65212335,46.4746432 C1.79556388,42.4383128 0.352343612,34.5201278 0.19092511,26.3520044 C0.173568282,25.4945771 0.170964758,24.6336784 0.183982379,23.7753833 C0.18485022,23.7137665 0.186585903,23.6530176 0.187453744,23.5914009 C0.196132159,23.1314449 0.20914978,22.6732247 0.227374449,22.2150044 C0.242127753,21.8296828 0.261220264,21.4452291 0.283784141,21.0616432 C0.904290749,10.5659692 4.3487533,0.969378855 14.6734626,0.151872247 C15.0501057,0.122365639 15.437163,0.104140969 15.8320308,0.0980660793 C15.9283612,0.0963303965 16.0238238,0.0954625551 16.1192863,0.0954625551 C17.2188414,0.0954625551 18.2637225,0.192660793 19.2582687,0.378378855 C26.6192996,1.75390749 31.197163,7.97546256 34.0350044,15.5447753 C36.1403877,21.1623128 37.2894097,27.5227225 37.9055771,33.1905947 C38.5538546,39.1422511 38.6154714,44.3319427 38.5859648,47.1029604 C38.5720793,48.4611322 38.53563,49.2387181 38.53563,49.2387181 M14.3723216,4.03372687 C14.1961498,4.03372687 14.019978,4.03719824 13.8429383,4.04500881 C-3.02182379,4.77225991 5.31032159,46.442533 5.31032159,46.442533 C41.4428987,37.6365463 30.9350749,4.03372687 14.3723216,4.03372687" id="path-13"></path>
        <linearGradient x1="45.8915913%" y1="1.07722465%" x2="51.6235084%" y2="98.5328554%" id="linearGradient-15">
            <stop stop-color="#ECECEA" offset="0%"></stop>
            <stop stop-color="#C0C1BD" offset="100%"></stop>
        </linearGradient>
        <path d="M2.70679736,42.9711674 C2.70679736,42.9711674 -5.62534802,1.30089427 11.2394141,0.573643172 C11.4164537,0.565832599 11.5926256,0.562361233 11.7687974,0.562361233 C28.3315507,0.562361233 38.8393744,34.1651806 2.70679736,42.9711674" id="path-16"></path>
        <linearGradient x1="55.223389%" y1="-8.03814435%" x2="63.5788671%" y2="104.893282%" id="linearGradient-18">
            <stop stop-color="#E3E3DF" offset="0%"></stop>
            <stop stop-color="#BCBCB9" offset="100%"></stop>
        </linearGradient>
    </defs>
    <g id="For-business" stroke="none" stroke-width="1" fill="none" fill-rule="evenodd">
        <g id="For-business-|-Website" transform="translate(-129.000000, -1395.000000)">
            <g id="Products" transform="translate(0.000000, 1163.000000)">
                <g id="1" transform="translate(102.000000, 232.000000)">
                    <g id="Group-2" transform="translate(27.000000, 0.000000)">
                        <path d="M221.727405,188.892626 C221.727405,191.460568 182.664996,193.54252 134.479837,193.54252 C86.2938106,193.54252 47.2322687,191.460568 47.2322687,188.892626 C47.2322687,186.323815 86.2938106,184.241863 134.479837,184.241863 C182.664996,184.241863 221.727405,186.323815 221.727405,188.892626" id="Fill-140" fill="#CAC9C4"></path>
                        <polyline id="Fill-141" fill="#E7E6E6" points="213.770167 133.1477 214.639744 188.994163 212.694044 188.824934 210.416828 132.641749 213.770167 133.1477"></polyline>
                        <polyline id="Fill-142" fill="#E7E6E6" points="47.1888767 133.204978 46.3201674 189.051441 48.265 188.883079 50.5430837 132.699894 47.1888767 133.204978"></polyline>
                        <path d="M46.4902643,184.113423 C46.4902643,185.253767 36.1672907,186.178885 23.4343216,186.178885 C10.7004846,186.178885 0.378378855,185.253767 0.378378855,184.113423 C0.378378855,182.973079 10.7004846,182.048828 23.4343216,182.048828 C36.1672907,182.048828 46.4902643,182.973079 46.4902643,184.113423" id="Fill-143" fill="#CAC9C4"></path>
                        <path d="M138.59948,194.429454 C138.59948,195.569797 117.760004,196.494916 92.0528062,196.494916 C66.3456079,196.494916 45.5061322,195.569797 45.5061322,194.429454 C45.5061322,193.28911 66.3456079,192.364859 92.0528062,192.364859 C117.760004,192.364859 138.59948,193.28911 138.59948,194.429454" id="Fill-144" fill="#CAC9C4"></path>
                        <polyline id="Fill-145" fill="#FFFFFE" points="149.778145 146.078537 172.970339 144.95989 172.770736 147.793392 149.778145 146.078537"></polyline>
                        <polyline id="Fill-146" fill="#4B2B1F" points="155.029454 151.704753 146.652181 186.532965 147.411542 186.532965 157.222489 151.843608 155.029454 151.704753"></polyline>
                        <polyline id="Fill-147" fill="#4B2B1F" points="174.684326 152.282736 183.061599 187.110947 182.302238 187.110947 172.491291 152.42159 174.684326 152.282736"></polyline>
                        <polyline id="Fill-148" fill="#4B2B1F" points="179.621476 152.282736 171.24507 187.110947 172.004432 187.110947 181.815379 152.42159 179.621476 152.282736"></polyline>
                        <polyline id="Fill-149" fill="#4B2B1F" points="196.68237 152.282736 205.161181 187.653348 204.326317 187.643802 194.489335 152.42159 196.68237 152.282736"></polyline>
                        <polyline id="Fill-150" fill="#F1F0ED" points="172.417524 152.80778 150.60867 151.424441 149.778145 146.078537 172.770736 147.793392 172.417524 152.80778"></polyline>
                        <g id="Group-153" transform="translate(171.832599, 106.744493)">
                            <mask id="mask-2" fill="white">
                                <use xlink:href="#path-1"></use>
                            </mask>
                            <g id="Clip-152"></g>
                            <path d="M28.0868194,46.0632863 L0.58492511,46.0632863 C0.58492511,46.0632863 0.543268722,44.9906344 0.54153304,43.1742423 C4.62299119,42.2985903 11.7930969,40.6028282 16.4820441,38.6059251 C19.1289604,40.5941498 22.4380396,42.2630088 26.5056123,43.4502159 C26.5056123,43.4502159 27.7856784,35.7784978 28.0599163,27.1868678 L30.4239163,27.1721145 C30.2789868,30.5080969 29.9691674,33.7243172 29.6220308,36.5291806 C28.9303612,42.1120044 28.0868194,46.0632863 28.0868194,46.0632863 M30.4811938,25.5110661 L28.099837,25.5110661 C28.258652,15.1924317 26.7885286,4.19167401 19.8484009,3.83325551 C19.7104141,3.82631278 19.5724273,3.82284141 19.4353084,3.82284141 C11.8026432,3.82284141 5.81800881,14.7793392 8.00844053,25.4442423 L5.48302203,24.9747401 C5.48302203,24.9747401 4.90851101,25.1717401 3.93479295,25.5110661 L1.72092952,25.5110661 C1.8233348,24.7968326 1.9344185,24.0799956 2.05504846,23.3622907 C2.12013656,22.9769692 2.18696035,22.5933833 2.25725551,22.2080617 C3.31081498,16.422163 4.99703084,10.709163 7.68213216,6.54786344 C9.56274449,3.63278414 11.9328194,1.47880176 14.9207974,0.590132159 C15.902326,0.298537445 16.9524141,0.143193833 18.0727974,0.143193833 C18.1474317,0.143193833 18.2211982,0.144061674 18.2967004,0.144929515 C27.7214581,0.317629956 30.3267181,11.0328678 30.5011542,22.0674714 C30.5072291,22.452793 30.5107004,22.835511 30.5107004,23.2208326 C30.5115683,23.9854009 30.5011542,24.7499692 30.4811938,25.5110661" id="Fill-151" fill="url(#linearGradient-3)" mask="url(#mask-2)"></path>
                        </g>
                        <path d="M147.196317,185.723269 L153.284225,160.329361 C153.339767,161.106947 153.397912,161.890608 153.456925,162.67774 L147.196317,185.723269" id="Fill-154" fill="#6F5142"></path>
                        <path d="M182.087881,184.88667 L177.384181,168.087863 L177.54907,167.504674 L182.087881,184.88667 M176.543242,165.083396 L173.338304,153.639172 L173.928436,153.639172 L176.722018,164.337921 L176.543242,165.083396" id="Fill-155" fill="#6F5142"></path>
                        <polyline id="Fill-156" fill="#6F5142" points="177.384181 168.087863 176.543242 165.083396 176.722018 164.337921 177.54907 167.504674 177.384181 168.087863"></polyline>
                        <g id="Group-159" transform="translate(178.775330, 110.215859)">
                            <mask id="mask-5" fill="white">
                                <use xlink:href="#path-4"></use>
                            </mask>
                            <g id="Clip-158"></g>
                            <path d="M19.5628811,39.9788502 C15.4953084,38.7916432 12.1862291,37.1227841 9.53931278,35.1345595 C11.74363,34.1964229 13.3994714,33.1905947 13.9288546,32.1734846 C15.6593304,28.8487841 15.0223348,24.5685903 15.0223348,24.5685903 L10.7820617,23.7797225 L21.117185,23.7155022 C20.8429471,32.3071322 19.5628811,39.9788502 19.5628811,39.9788502 M21.1571057,22.0397004 L1.42499559,22.0397004 L1.06570925,21.9728767 C-1.12472247,11.3079736 4.85991189,0.351475771 12.4925771,0.351475771 C12.629696,0.351475771 12.7676828,0.354947137 12.9056696,0.361889868 C19.8457974,0.72030837 21.3159207,11.7210661 21.1571057,22.0397004" id="Fill-157" fill="url(#linearGradient-6)" mask="url(#mask-5)"></path>
                        </g>
                        <polyline id="Fill-160" fill="#4B2B1F" points="152.196819 167.059471 198.975207 167.059471 199.261595 168.44715 152.196819 167.870035 152.196819 167.059471"></polyline>
                        <polyline id="Fill-161" fill="#F1F0ED" points="200.335115 152.80778 172.417524 152.80778 171.587 147.461877 200.688326 147.793392 200.335115 152.80778"></polyline>
                        <polyline id="Fill-162" fill="#F4F4F1" points="57.3747313 5.00744493 147.404599 2.90726872 147.404599 94.3569251 57.3747313 92.3253084 57.3747313 5.00744493"></polyline>
                        <polyline id="Fill-163" fill="#FFFFFE" points="59.9088282 7.24821145 142.124652 6.12782819 143.884634 90.4151894 59.9088282 88.37663 59.9088282 7.24821145"></polyline>
                        <polyline id="Fill-164" fill="#582F1D" points="56.0113524 5.00744493 149.416256 3.92351101 148.661233 0.278577093 56.0113524 1.40937445 56.0113524 5.00744493"></polyline>
                        <polyline id="Fill-165" fill="#582F1D" points="56.1371894 92.3253084 148.158753 93.470859 148.158753 95.1917885 56.1371894 93.3380793 56.1371894 92.3253084"></polyline>
                        <polyline id="Fill-166" fill="#582F1D" points="100.80759 93.470859 101.393383 103.825075 102.148405 103.825075 101.477564 93.7589824 100.80759 93.470859"></polyline>
                        <path d="M101.545256,106.485877 C100.811062,106.485877 100.215722,105.88967 100.215722,105.155476 C100.215722,104.419546 100.811062,103.825075 101.545256,103.825075 C102.280317,103.825075 102.876524,104.419546 102.876524,105.155476 C102.876524,105.88967 102.280317,106.485877 101.545256,106.485877 Z M101.702335,103.227132 C100.499507,103.227132 99.523185,104.202586 99.523185,105.405414 C99.523185,106.609978 100.499507,107.585432 101.702335,107.585432 C102.906899,107.585432 103.881485,106.609978 103.881485,105.405414 C103.881485,104.202586 102.906899,103.227132 101.702335,103.227132 Z" id="Fill-167" fill="#582F1D"></path>
                        <polyline id="Fill-168" fill="#B6DEE0" points="66.9496256 11.5796079 68.2696123 11.5796079 69.4012775 83.1366035 66.9496256 83.1366035 66.9496256 11.5796079"></polyline>
                        <polyline id="Fill-169" fill="#B6DEE0" points="66.9496256 80.9817533 137.221348 83.1366035 137.221348 84.6266872 66.9496256 83.1366035 66.9496256 80.9817533"></polyline>
                        <polyline id="Fill-170" fill="#B6DEE0" points="71.724489 78.0137357 78.6507313 67.9719427 87.4393612 73.6189868 98.2509295 46.2672291 114.468282 56.4687048 114.468282 42.0095991 130.056449 42.0095991 134.623899 20.80563 130.307256 20.329185 137.221348 16.42737 138.479718 22.6923172 135.880533 21.5189956 131.062278 44.3840132 115.724916 42.7646211 116.353233 58.3753524 99.6342687 49.8522819 87.3135242 76.6312643 78.6507313 70.7837489 73.2336652 78.7175551 71.724489 78.0137357"></polyline>
                        <polyline id="Fill-171" fill="#FAD9A9" points="20.493207 58.3276211 19.864022 69.2971366 27.869859 69.8404053 28.9780925 63.4279251 20.493207 58.3276211"></polyline>
                        <polyline id="Fill-172" fill="#202231" points="30.5245859 111.462079 34.9523128 139.288546 30.978467 177.793802 26.2235639 177.621969 24.6874846 151.524242 26.9829251 140.618947 15.9795639 110.781692 30.5245859 111.462079"></polyline>
                        <path d="M26.2235639,177.621969 L25.6585991,183.410471 L41.4567841,184.113423 C41.4567841,184.113423 41.3717357,182.159044 39.8209031,180.867696 C36.7921366,178.344881 31.4583833,177.811159 31.4583833,177.811159 L26.2235639,177.621969" id="Fill-173" fill="#FFFFFE"></path>
                        <polyline id="Fill-174" fill="#202231" points="23.6382643 108.520097 23.6382643 141.237718 14.0373348 178.738013 9.3596696 177.867568 11.6837489 151.828855 15.5595286 141.380044 11.4928238 110.732225 23.6382643 108.520097"></polyline>
                        <path d="M9.3596696,177.867568 L7.94855947,183.510273 L23.4716388,186.532097 C23.4716388,186.532097 23.6755815,184.586396 22.3312952,183.080692 C19.7060749,180.139577 14.5094405,178.825665 14.5094405,178.825665 L9.3596696,177.867568" id="Fill-175" fill="#FFFFFE"></path>
                        <polyline id="Fill-176" fill="#EC962D" points="20.903696 79.4708414 40.3971498 94.8854405 42.8835154 94.4775551 47.1125066 92.234185 44.4612511 87.1607841 40.773793 88.4156828 30.3015507 69.5167004 22.6697533 69.2971366 20.132185 72.4283084 20.903696 79.4708414"></polyline>
                        <polyline id="Fill-177" fill="#FAD9A9" points="61.6453789 84.5251498 65.8769736 83.9072467 68.5620749 80.677141 67.0954229 78.2949163 63.4357357 75.8762423 61.9439163 76.8751278 61.1212026 79.5593612 59.4471366 82.0604802 61.6453789 84.5251498"></polyline>
                        <polyline id="Fill-178" fill="#EC962D" points="30.3015507 69.5167004 15.7782247 68.7642819 12.3485154 77.5954361 13.5487401 101.876771 11.376533 110.774749 30.5054934 111.661683 32.1830308 80.200696 30.3015507 69.5167004"></polyline>
                        <polyline id="Fill-179" fill="#FAD9A9" points="19.946467 68.971696 26.3771718 71.2341586 27.9323436 69.4785154 22.6940529 67.8001101 19.946467 68.971696"></polyline>
                        <polyline id="Fill-180" fill="#EC962D" points="30.3015507 69.5167004 35.5320308 79.4881982 32.0597974 82.8085595 30.3015507 69.5167004"></polyline>
                        <path d="M23.0811101,110.437159 C21.7012423,110.437159 20.4272511,110.133414 19.6965286,109.22652 C18.6533833,107.929965 20.4185727,103.342555 22.5699515,98.8653612 L23.2034758,100.399705 L25.9692863,101.810815 L28.6057885,101.340445 L29.0883084,109.19441 C29.0883084,109.19441 25.8712203,110.437159 23.0811101,110.437159 M27.9566432,90.7831542 L27.5314009,89.5577621 C27.7336079,89.2088899 27.848163,89.0162291 27.848163,89.0162291 L27.9566432,90.7831542" id="Fill-181" fill="#EEA031"></path>
                        <polyline id="Fill-182" fill="#FAD9A9" points="51.2495066 97.2893612 54.8553877 99.589141 58.9993304 98.9018106 59.4471366 96.1403392 58.2607974 91.9165551 56.4782511 91.6969912 54.1012335 93.1905463 51.198304 93.9872247 51.2495066 97.2893612"></polyline>
                        <polyline id="Fill-183" fill="#EC962D" points="12.3485154 77.5954361 12.3485154 72.2165551 15.9995242 68.7642819 18.8382335 68.7738282 21.1874802 70.8592511 24.6536388 83.292815 17.193674 88.348859 12.3485154 77.5954361"></polyline>
                        <path d="M30.8127093,84.5251498 C30.8127093,84.5251498 27.8472952,83.9315463 25.1292159,82.6349912 L21.779348,72.9811233 L21.2525683,71.0927004 L26.1662863,72.5706344 L28.6882335,71.6628722 L30.8127093,84.5251498" id="Fill-184" fill="#EEA031"></path>
                        <path d="M21.779348,72.9811233 L20.1009427,71.2176696 C20.115696,70.9191322 20.132185,70.755978 20.132185,70.755978 L21.2525683,71.0927004 L21.779348,72.9802555" id="Fill-185" fill="#EEA031"></path>
                        <path d="M21.779348,138.604687 C21.779348,138.604687 16.9229075,133.050502 16.498533,128.693938 C16.0741586,124.337374 15.420674,111.661683 15.420674,111.661683 L22.6081366,112.46704 L21.779348,138.604687" id="Fill-186" fill="#373745"></path>
                        <path d="M32.9172247,139.040344 C32.9172247,139.040344 28.8158062,133.726551 28.2716696,131.10133 C27.727533,128.47611 30.3015507,117.36774 30.3015507,117.36774 L32.9172247,139.040344" id="Fill-187" fill="#373745"></path>
                        <polyline id="Fill-188" fill="#FAD9A9" points="53.6673128 93.3094405 35.2551894 93.9863568 36.1638194 99.9926872 53.0763128 97.2858899 53.6673128 93.3094405"></polyline>
                        <polyline id="Fill-189" fill="#EC962D" points="14.1744537 78.531837 23.2034758 100.399705 25.9692863 101.810815 36.1638194 99.9926872 35.2551894 93.9863568 28.7116652 92.9597004 21.779348 72.9811233 18.7905022 69.8404053 15.4319559 71.560467 14.1744537 78.531837"></polyline>
                        <polyline id="Fill-190" fill="#FFFFFE" points="35.5320308 93.7494361 36.6775815 100.348502 34.6234009 100.823211 34.6234009 93.7494361 35.5320308 93.7494361"></polyline>
                        <path d="M28.3141938,94.4610661 C28.3141938,94.4610661 20.537467,89.443207 17.6180485,82.5317181 C14.6994978,75.6193612 20.9375419,74.0711322 20.9375419,74.0711322 L28.3141938,94.4610661" id="Fill-191" fill="#EEA031"></path>
                        <polyline id="Fill-192" fill="#FAD9A9" points="60.3470881 81.7636784 45.1208106 86.6105727 47.6497004 92.1222335 62.1331057 84.2656652 60.3470881 81.7636784"></polyline>
                        <polyline id="Fill-193" fill="#FFFFFE" points="45.2258194 86.0950749 48.1235419 92.5726432 46.9120352 93.3094405 42.5389824 86.7155815 45.2258194 86.0950749"></polyline>
                        <path d="M49.0833744,89.0891278 C46.4095551,89.0891278 46.4902643,86.9429559 46.4902643,86.9429559 L59.6007445,83.0203128 C59.6007445,83.0203128 53.600489,88.4807709 49.9963436,89.0162291 C49.6613568,89.0665639 49.3576123,89.0891278 49.0833744,89.0891278" id="Fill-194" fill="#FBE0B8"></path>
                        <polyline id="Fill-195" fill="#D27E2F" points="15.0301454 83.5470925 23.2034758 100.399705 25.9692863 101.810815 30.8127093 100.947313 30.8751938 104.735441 24.6536388 102.893881 22.5777621 100.823211 15.0301454 83.5470925"></polyline>
                        <path d="M33.6279868,43.3695066 C33.6279868,43.3695066 34.1052996,58.136696 33.8579648,59.4028767 C33.6097621,60.6681894 30.8257269,65.5897181 30.8257269,65.5897181 L27.4229207,66.11563 C27.4229207,66.11563 21.2742643,62.3032026 20.6051586,61.5290881 C19.721696,60.5059031 18.3748062,43.4380661 18.3748062,43.4380661 L25.7636079,40.0395991 L33.6279868,43.3695066" id="Fill-196" fill="#FAD9A9"></path>
                        <path d="M31.6710044,56.7733172 L24.3585727,57.2202555 C24.3585727,57.2202555 25.0997093,61.9543304 28.4669339,61.7981189 C31.8341586,61.6427753 31.6710044,56.7733172 31.6710044,56.7733172" id="Fill-197" fill="#D5472B"></path>
                        <polyline id="Fill-198" fill="#FFFFFE" points="30.8569692 57.1534317 25.6638062 57.3027004 25.7653436 58.3848987 30.7606388 58.0394978 30.8569692 57.1534317"></polyline>
                        <path d="M25.6881057,60.117978 C26.1385154,59.4679648 26.8622952,59.0132159 27.7110441,58.9333744 C28.9312291,58.8188194 30.0403304,59.5113568 30.5115683,60.5727269 C30.0455374,61.108185 29.3963921,61.4900352 28.4929692,61.5316916 C27.2129031,61.5907048 26.3120837,60.9432952 25.6881057,60.117978" id="Fill-199" fill="#E46B47"></path>
                        <polyline id="Fill-200" fill="#582F1D" points="25.4642026 46.4407974 21.7455022 46.8504185 21.7489736 46.1301101 23.9159736 45.5842379 24.1554978 46.223837 24.0704493 45.3195463 24.4436211 45.1945771 24.5885507 45.8819075 24.8150573 45.2492511 25.6221498 45.0834934 25.4642026 46.4407974"></polyline>
                        <path d="M22.1794229,50.185533 C22.2653392,51.1002379 23.0767709,51.7719471 23.9914758,51.685163 C24.9061806,51.5992467 25.5778899,50.787815 25.4919736,49.873978 C25.4051894,48.9592731 24.5946256,48.2875639 23.6799207,48.3734802 C22.7652159,48.4593965 22.0935066,49.2708282 22.1794229,50.185533" id="Fill-201" fill="#FFFFFE"></path>
                        <path d="M22.7817048,49.824511 C22.8381145,50.4293965 23.3744405,50.8737313 23.979326,50.8164537 C24.5842115,50.7600441 25.0285463,50.2228502 24.9712687,49.6179648 C24.9139912,49.0139471 24.3776652,48.5696123 23.7736476,48.626022 C23.1687621,48.6832996 22.7244273,49.2196256 22.7817048,49.824511" id="Fill-202" fill="#582F1D"></path>
                        <path d="M22.616815,49.7446696 C22.6315683,49.9017489 22.7704229,50.016304 22.9275022,50.0015507 C23.0837137,49.9867974 23.1991366,49.8479427 23.1843833,49.6917313 C23.16963,49.534652 23.0307753,49.4200969 22.873696,49.4348502 C22.7174846,49.4496035 22.6020617,49.5884581 22.616815,49.7446696" id="Fill-203" fill="#FFFFFE"></path>
                        <path d="M25.9302335,49.1545374 C25.9302335,49.1545374 22.8407181,48.5999868 21.6040441,49.3871189 C22.9170881,48.3648018 23.2008722,48.1096564 23.8847313,48.0992423 C24.5685903,48.0879604 25.9302335,49.1545374 25.9302335,49.1545374" id="Fill-204" fill="#582F1D"></path>
                        <path d="M28.7255507,49.5867225 C28.811467,50.5014273 29.6228987,51.1731366 30.5376035,51.0872203 C31.4523084,51.001304 32.1240176,50.1898722 32.0381013,49.2751674 C31.952185,48.3604626 31.1407533,47.6887533 30.2260485,47.7746696 C29.3113436,47.8614537 28.6396344,48.6720176 28.7255507,49.5867225" id="Fill-205" fill="#FFFFFE"></path>
                        <path d="M29.3278326,49.2265683 C29.3842423,49.8305859 29.9205683,50.2749207 30.5254537,50.218511 C31.1303392,50.1612335 31.574674,49.6249075 31.5173965,49.020022 C31.4601189,48.4151366 30.923793,47.9708018 30.3197753,48.0280793 C29.7148899,48.084489 29.2705551,48.6216828 29.3278326,49.2265683" id="Fill-206" fill="#582F1D"></path>
                        <path d="M29.1629427,49.1467269 C29.177696,49.3029383 29.3165507,49.4183612 29.47363,49.4036079 C29.6298414,49.3888546 29.7452643,49.25 29.730511,49.0929207 C29.7157577,48.9367093 29.5769031,48.8212863 29.4198238,48.8360396 C29.2636123,48.850793 29.1481894,48.9896476 29.1629427,49.1467269" id="Fill-207" fill="#FFFFFE"></path>
                        <path d="M32.4763612,48.5565947 C32.4763612,48.5565947 29.3868458,48.0020441 28.1501718,48.7891762 C29.4632159,47.7659912 29.747,47.5117137 30.430859,47.5004317 C31.1147181,47.4900176 32.4763612,48.5565947 32.4763612,48.5565947" id="Fill-208" fill="#582F1D"></path>
                        <polyline id="Fill-209" fill="#582F1D" points="28.9980529 46.1214317 32.7375815 46.0337797 32.6386476 45.3195463 30.4178414 45.0678722 30.2659692 45.7326388 30.2303877 44.8248767 29.8441982 44.7511101 29.7921278 45.4514581 29.4831762 44.8543833 28.6604626 44.7979736 28.9980529 46.1214317"></polyline>
                        <path d="M28.4868943,55.5782996 C28.2569163,55.5999956 28.099837,55.5973921 28.0807445,55.5965242 L28.0902907,55.1443789 C28.1033084,55.1443789 29.4007313,55.1634714 30.0004097,54.5177974 C30.2329912,54.2669912 30.3284537,53.9528326 30.2911366,53.5570969 C30.2546872,53.1752467 30.108022,52.8879912 29.8407269,52.6805771 C29.1750925,52.1607401 27.9366828,51.8847665 27.9254009,51.8865022 C27.9809427,51.8778238 29.2965903,51.6825595 30.1175683,52.3221586 C30.4837974,52.6068106 30.693815,53.0086211 30.7415463,53.5145727 C30.7901454,54.0396167 30.6530264,54.481348 30.3310573,54.8267489 C29.8251057,55.3708855 28.9859031,55.5314361 28.4868943,55.5782996" id="Fill-210" fill="#E6AA5D"></path>
                        <path d="M19.2955859,43.9700529 C19.2955859,43.9700529 29.7339824,41.6720088 35.8227577,44.5523744 C34.7639912,42.6370485 33.4743789,41.7440396 33.4743789,41.7440396 C33.4743789,41.7440396 36.406815,41.1035727 39.5336476,43.4155022 C36.6185683,39.8113568 33.6609648,38.3325551 33.6609648,38.3325551 C33.6609648,38.3325551 34.8629251,38.2197357 36.3044097,39.0476564 C35.4886388,36.494467 24.0478855,30.5115683 18.1040396,39.7974714 C17.3316608,39.6672952 15.1559824,40.1966784 15.1559824,40.1966784 L17.2700441,50.2480176 L19.5698238,51.0455639 L20.0506079,46.3097533 L19.2955859,43.9700529" id="Fill-211" fill="#582F1D"></path>
                        <path d="M16.7415286,52.8706344 C17.4861366,54.0257313 18.7236784,54.5533789 19.5047357,54.0482952 C20.285793,53.5449471 20.3152996,52.199793 19.5698238,51.0455639 C18.824348,49.890467 17.587674,49.3628194 16.8066167,49.8670352 C16.0246916,50.3712511 15.9960529,51.7164053 16.7415286,52.8706344" id="Fill-212" fill="#FAD9A9"></path>
                        <polyline id="Fill-213" fill="#582F1D" points="16.4811762 37.041207 17.0331233 36.7470088 18.2411586 39.9658326 16.4811762 37.041207"></polyline>
                        <polyline id="Fill-214" fill="#582F1D" points="15.8493877 38.3368943 16.1852423 37.9012379 18.3218678 40.0439383 15.8493877 38.3368943"></polyline>
                        <path d="M29.6940617,43.1525463 C29.6940617,43.1525463 28.7385683,36.9943436 21.8565859,36.445 C27.0046211,37.0507533 29.6940617,43.1525463 29.6940617,43.1525463" id="Fill-215" fill="#873D26"></path>
                        <path d="M25.0814846,43.0761762 C25.0814846,43.0761762 25.0302819,38.5148018 20.1018106,37.4013612 C23.7675727,38.3750793 25.0814846,43.0761762 25.0814846,43.0761762" id="Fill-216" fill="#873D26"></path>
                        <path d="M32.4138767,40.2869339 C32.4138767,40.2869339 29.5847137,34.7336167 22.8754317,36.3590837 C27.9549075,35.3280881 32.4138767,40.2869339 32.4138767,40.2869339" id="Fill-217" fill="#873D26"></path>
                        <path d="M176.904264,73.4297974 C176.904264,73.4297974 177.001463,69.2806476 179.02093,69.6850617 C181.040396,70.0903436 189.540903,68.7469251 191.05789,71.5431101 C192.576612,74.340163 191.54822,79.7042907 191.54822,79.7042907 L193.390648,81.3800925 L192.879489,83.6989648 L195.915198,89.3165022 L194.599551,95.6421982 L195.915198,95.6421982 C195.915198,95.6421982 197.503348,107.632295 191.54822,105.001 C185.59396,102.369705 182.457581,101.863753 180.180366,102.269035 C177.90315,102.673449 175.356035,96.1976167 175.356035,96.1976167 L176.904264,93.0820661 L175.356035,89.1142952 L178.0637,84.3064537 L175.356035,80.1338722 L174.005674,75.8580176 L176.904264,73.4297974" id="Fill-218" fill="#582F1D"></path>
                        <g id="Group-221" transform="translate(185.718062, 80.709251)">
                            <mask id="mask-8" fill="white">
                                <use xlink:href="#path-7"></use>
                            </mask>
                            <g id="Clip-220"></g>
                            <polyline id="Fill-219" fill="url(#linearGradient-9)" mask="url(#mask-8)" points="1.13947577 0.38185022 2.27374449 0.750682819 2.96194273 16.8040132 0.38185022 17.3958811 1.13947577 0.38185022"></polyline>
                        </g>
                        <path d="M193.797665,134.784449 C193.797665,134.784449 194.434661,139.064643 192.704185,142.389344 C190.524167,146.579282 169.241225,150.556599 169.241225,150.556599 L170.671427,156.74778 C170.671427,156.74778 166.41293,178.610441 165.892225,187.621238 C164.601744,187.621238 163.352921,187.613427 163.352921,187.613427 C163.352921,187.613427 162.861722,148.118833 164.00467,146.824881 C165.147617,145.53093 179.624079,139.165313 179.624079,139.165313 C179.624079,139.165313 166.945784,146.354511 159.016317,146.075934 C159.901515,148.711568 161.500947,154.00193 161.500947,154.00193 L158.037392,187.425106 L155.671656,188.003088 C155.671656,188.003088 151.241326,143.173872 152.900639,141.351405 C154.559084,139.528938 177.315621,131.719233 177.315621,131.719233 L193.797665,134.784449" id="Fill-222" fill="#DD4F4C"></path>
                        <path d="M163.122075,186.80807 C163.122075,186.80807 156.817207,188.121115 155.945026,188.473458 C155.073714,188.824934 154.907956,189.581692 154.907956,189.581692 L165.892225,189.581692 L165.952974,186.572018 L163.122075,186.80807" id="Fill-223" fill="#582F1D"></path>
                        <path d="M155.485938,187.047595 C155.485938,187.047595 149.480476,187.933661 148.609163,188.285137 C147.736982,188.63748 147.571225,189.394238 147.571225,189.394238 L158.555493,189.394238 L158.044335,186.572018 L155.485938,187.047595" id="Fill-224" fill="#582F1D"></path>
                        <path d="M166.537031,145.270577 L168.011493,144.364551 C168.427189,144.22396 168.840282,144.078163 169.249903,143.928894 C168.272714,144.401868 167.355405,144.857485 166.56567,145.268841 L166.537031,145.270577" id="Fill-225" fill="#AF7678"></path>
                        <path d="M166.385159,145.363436 L166.537031,145.270577 L166.56567,145.268841 C166.504921,145.300084 166.444172,145.332194 166.385159,145.363436" id="Fill-226" fill="#F0B1AF"></path>
                        <path d="M164.00467,146.824881 L166.385159,145.363436 C166.444172,145.332194 166.504921,145.300084 166.56567,145.268841 C167.355405,144.857485 168.272714,144.401868 169.249903,143.928894 C168.840282,144.078163 168.427189,144.22396 168.011493,144.364551 L182.310916,135.587203 C182.310916,135.587203 190.299396,139.104564 185.572264,141.636925 C180.844264,144.169286 164.00467,146.824881 164.00467,146.824881" id="Fill-227" fill="#E15E5C"></path>
                        <path d="M153.886507,140.692714 C154.6207,140.267471 156.018793,139.646965 157.769229,138.930996 C156.13248,139.607044 154.768233,140.216269 153.886507,140.692714" id="Fill-228" fill="#AA6F74"></path>
                        <path d="M153.8813,140.695317 C153.883035,140.694449 153.884771,140.693581 153.886507,140.692714 C154.768233,140.216269 156.13248,139.607044 157.769229,138.930996 C161.436727,137.430498 166.651586,135.513436 170.536912,134.114476 L175.540885,134.083233 C175.284872,134.368753 174.929925,134.688987 174.444802,135.046537 C171.77185,137.01567 163.260062,138.658493 153.8813,140.695317 M175.869797,132.255559 L175.767392,132.255559 C175.813388,132.23907 175.837687,132.23126 175.837687,132.23126 C175.837687,132.23126 175.849837,132.23907 175.869797,132.255559" id="Fill-229" fill="#E15E5C"></path>
                        <path d="M183.417414,99.0432687 C183.417414,99.0432687 180.335709,126.687489 178.344881,126.953916 C176.353185,127.219476 165.050419,128.719974 165.050419,128.719974 L164.594802,126.294357 L176.284626,122.591278 L178.771859,99.4702467 L183.417414,99.0432687" id="Fill-230" fill="#429544"></path>
                        <path d="M174.116758,108.240652 C175.392485,104.754533 178.31711,99.1361278 178.31711,99.1361278 L186.555529,97.4993789 C186.555529,97.4993789 190.775841,97.1843524 191.244476,99.7167137 C191.753899,102.467771 189.334357,119.682273 189.461062,122.163432 C189.588634,124.643722 193.767291,134.832181 193.767291,134.832181 L177.315621,131.719233 C177.315621,131.719233 179.296035,120.655123 178.016837,116.159705 C176.985841,112.532996 173.327022,110.397238 174.116758,108.240652" id="Fill-231" fill="#4DAA4F"></path>
                        <g id="Group-234" transform="translate(164.022026, 98.066079)">
                            <mask id="mask-11" fill="white">
                                <use xlink:href="#path-10"></use>
                            </mask>
                            <g id="Clip-233"></g>
                            <path d="M26.7321189,2.38829956 C26.7321189,2.38829956 23.443,30.6365374 21.2334758,30.9316035 C19.0239515,31.2266696 0.340193833,26.8596916 0.340193833,26.8596916 L0.340193833,24.0704493 L18.9475815,26.0907841 L22.4284934,0.536325991 L26.7321189,2.38829956" id="Fill-232" fill="url(#linearGradient-12)" mask="url(#mask-11)"></path>
                        </g>
                        <path d="M163.954335,186.737775 L164.140921,186.721286 C164.138317,186.692648 164.005537,184.615903 163.870154,176.683833 C163.740846,169.088485 166.428551,151.641401 165.946899,150.752731 L167.08811,149.875344 L165.907846,149.211445 L168.124313,149.211445 L166.816476,148.216899 L167.160141,148.339264 L167.189648,148.330586 C168.026247,148.075441 187.702815,142.064771 189.423744,140.770819 C191.170709,139.456907 191.042269,134.505004 191.036194,134.294987 L190.84874,134.300194 C190.850476,134.350529 190.980652,139.365784 189.311793,140.620683 C187.646405,141.87211 168.054018,147.869762 167.16448,148.141396 L165.740352,147.633709 L167.568026,149.023991 L165.191009,149.023991 L166.748784,149.899643 L165.704771,150.702396 L165.744692,150.773559 C165.796762,150.867286 163.547317,168.774326 163.6827,176.687304 C163.818084,184.628053 163.951731,186.709137 163.954335,186.737775" id="Fill-235" fill="#A9252A"></path>
                        <path d="M156.404115,186.822824 L156.588965,186.792449 C156.577683,186.719551 155.471185,180.058868 155.378326,175.61552 C155.289806,171.355286 156.565533,148.475515 155.928537,147.001921 L157.244185,146.900383 L155.369648,145.305291 L157.389982,145.182057 L155.844357,143.363062 L158.186661,143.7857 C160.774564,144.251731 171.797018,141.955423 172.264784,141.857357 L172.226599,141.674242 C172.112044,141.697674 160.771093,144.060806 158.219639,143.60085 L155.361837,143.085352 L157.004661,145.018035 L154.89407,145.146476 L156.775551,146.748511 L155.651696,146.835295 L155.704634,146.955925 C155.773194,147.113004 155.098881,171.186925 155.190872,175.618991 C155.283731,180.076225 156.392833,186.749057 156.404115,186.822824" id="Fill-236" fill="#A9252A"></path>
                        <polyline id="Fill-237" fill="#694023" points="158.423581 188.668722 158.374115 188.394485 163.420612 187.071894 165.522524 187.089251 165.522524 188.578467 158.423581 188.668722"></polyline>
                        <polyline id="Fill-238" fill="#694023" points="157.271956 188.683476 158.374115 188.394485 158.423581 188.668722 157.271956 188.683476"></polyline>
                        <polyline id="Fill-239" fill="#694023" points="149.122925 188.824934 155.271581 187.213352 157.373493 187.230709 157.373493 188.051687 155.345348 188.683476 149.122925 188.824934"></polyline>
                        <polyline id="Fill-240" fill="#FAD9A9" points="180.180366 93.399696 186.650991 81.016467 186.099912 98.1051322 179.553784 104.586172 180.180366 93.399696"></polyline>
                        <path d="M186.296912,92.0024714 C186.296912,92.0024714 177.812894,95.0130132 175.598163,92.1361189 C173.383432,89.2592247 173.064934,79.3102907 177.339053,75.6749031 C181.61404,72.0386476 187.15,75.3954581 187.15,75.3954581 L186.296912,92.0024714" id="Fill-241" fill="#FAD9A9"></path>
                        <path d="M184.164626,80.6901586 C184.164626,81.4686123 183.534573,82.0986652 182.756119,82.0986652 C181.978533,82.0986652 181.34848,81.4686123 181.34848,80.6901586 C181.34848,79.9125727 181.978533,79.2825198 182.756119,79.2825198 C183.534573,79.2825198 184.164626,79.9125727 184.164626,80.6901586" id="Fill-242" fill="#FFFFFE"></path>
                        <path d="M183.325423,80.534815 C183.325423,81.0494449 182.908859,81.4660088 182.394229,81.4660088 C181.879599,81.4660088 181.463035,81.0494449 181.463035,80.534815 C181.463035,80.0210529 181.879599,79.6036211 182.394229,79.6036211 C182.908859,79.6036211 183.325423,80.0210529 183.325423,80.534815" id="Fill-243" fill="#582F1D"></path>
                        <path d="M181.900427,81.0477093 C181.900427,81.1813568 181.792815,81.2889692 181.659167,81.2889692 C181.526388,81.2889692 181.417907,81.1813568 181.417907,81.0477093 C181.417907,80.9149295 181.526388,80.8064493 181.659167,80.8064493 C181.792815,80.8064493 181.900427,80.9149295 181.900427,81.0477093" id="Fill-244" fill="#FFFFFE"></path>
                        <path d="M180.617758,80.2197885 C180.617758,80.2197885 183.17789,79.5072907 184.28352,80.0731233 C183.095445,79.3154978 182.835093,79.122837 182.257978,79.1679648 C181.681731,79.2130925 180.617758,80.2197885 180.617758,80.2197885" id="Fill-245" fill="#582F1D"></path>
                        <path d="M178.599159,80.7057797 C178.599159,81.4833656 177.968238,82.1142863 177.190652,82.1142863 C176.413066,82.1142863 175.782145,81.4833656 175.782145,80.7057797 C175.782145,79.927326 176.413066,79.2972731 177.190652,79.2972731 C177.968238,79.2972731 178.599159,79.927326 178.599159,80.7057797" id="Fill-246" fill="#FFFFFE"></path>
                        <path d="M177.860626,80.5504361 C177.860626,81.0641982 177.444062,81.48163 176.929432,81.48163 C176.41567,81.48163 175.998238,81.0641982 175.998238,80.5504361 C175.998238,80.0358062 176.41567,79.6192423 176.929432,79.6192423 C177.444062,79.6192423 177.860626,80.0358062 177.860626,80.5504361" id="Fill-247" fill="#582F1D"></path>
                        <path d="M176.57622,80.8064493 C176.57622,80.9400969 176.46774,81.0477093 176.33496,81.0477093 C176.202181,81.0477093 176.0937,80.9400969 176.0937,80.8064493 C176.0937,80.6736696 176.202181,80.5651894 176.33496,80.5651894 C176.46774,80.5651894 176.57622,80.6736696 176.57622,80.8064493" id="Fill-248" fill="#FFFFFE"></path>
                        <path d="M175.153828,80.2354097 C175.153828,80.2354097 177.71396,79.5229119 178.818722,80.0887445 C177.630648,79.3302511 177.371163,79.1384581 176.794048,79.1835859 C176.216934,79.2287137 175.153828,80.2354097 175.153828,80.2354097" id="Fill-249" fill="#582F1D"></path>
                        <path d="M179.432286,86.915185 C179.418401,86.9082423 178.111432,86.143674 176.787974,85.2142159 L176.485965,85.0015947 L176.827026,84.8610044 C180.15867,83.4924185 179.132881,78.5040661 179.122467,78.4537313 L179.518203,78.3686828 C179.529485,78.4233568 179.801119,79.7147048 179.635361,81.2091278 C179.430551,83.0706476 178.628665,84.4019163 177.310414,85.0840396 C178.51411,85.9102247 179.624079,86.55937 179.635361,86.5663128 L179.432286,86.915185" id="Fill-250" fill="#E6AA5D"></path>
                        <path d="M176.904264,88.2030617 C176.904264,88.2030617 179.724749,89.3624978 182.204172,87.517467 C179.98163,88.4755639 176.904264,88.2030617 176.904264,88.2030617" id="Fill-251" fill="#582F1D"></path>
                        <path d="M177.532581,72.6539471 C177.532581,72.6539471 179.01659,79.5689075 189.945317,81.9632819 C190.855683,80.4488987 188.62967,74.7445771 188.62967,74.7445771 L182.0523,72.282511 L177.532581,72.6539471" id="Fill-252" fill="#582F1D"></path>
                        <path d="M175.532207,78.3756256 C175.998238,77.5529119 178.535806,77.119859 178.598291,77.8167357 C178.647758,78.3660793 176.486833,77.5659295 175.532207,78.3756256" id="Fill-253" fill="#582F1D"></path>
                        <path d="M180.130031,71.3044537 C180.130031,71.3044537 181.976797,77.1484978 187.693269,79.5012159 C182.450639,76.8699207 180.130031,71.3044537 180.130031,71.3044537" id="Fill-254" fill="#693721"></path>
                        <path d="M181.451753,71.2228767 C181.451753,71.2228767 183.134498,76.5479515 188.345018,78.6923877 C183.566683,76.2945419 181.451753,71.2228767 181.451753,71.2228767" id="Fill-255" fill="#693721"></path>
                        <path d="M183.418282,71.0866256 C183.418282,71.0866256 184.947419,75.9248414 189.679758,77.8722775 C185.339683,75.6939956 183.418282,71.0866256 183.418282,71.0866256" id="Fill-256" fill="#693721"></path>
                        <path d="M138.677586,98.5746344 L167.063811,97.8812291 C167.577573,97.8812291 167.995004,98.303 167.995004,98.8150264 L167.516824,122.776996 L167.478639,125.73807 C167.478639,126.255304 167.061207,126.670132 166.547445,126.670132 L138.677586,126.322996 C138.163824,126.322996 137.745524,125.908167 137.745524,125.390934 L137.745524,99.5084317 C137.745524,98.9964053 138.163824,98.5746344 138.677586,98.5746344" id="Fill-257" fill="#1D1D2E"></path>
                        <path d="M128.683524,132.201753 C128.677449,131.257542 127.488507,130.489502 126.024458,130.489502 C124.557806,130.489502 123.368863,131.257542 123.362789,132.201753 L128.683524,132.201753" id="Fill-258" fill="#FFFFFE"></path>
                        <polyline id="Fill-259" fill="#1D1D2E" points="213.770167 133.844577 47.2930176 134.885119 47.2930176 132.255559 213.770167 132.255559 213.770167 133.844577"></polyline>
                        <polyline id="Fill-260" fill="#1D1D2E" points="154.969573 131.197661 147.843727 131.197661 148.042463 126.034872 154.772573 126.034872 154.969573 131.197661"></polyline>
                        <path d="M136.48889,98.5746344 L164.875115,97.8812291 C165.388877,97.8812291 165.806308,98.303 165.806308,98.8150264 L165.328996,122.776996 L165.289943,125.73807 C165.289943,126.255304 164.872511,126.670132 164.358749,126.670132 L136.48889,126.322996 C135.975128,126.322996 135.556828,125.908167 135.556828,125.390934 L135.556828,99.5084317 C135.556828,98.9964053 135.975128,98.5746344 136.48889,98.5746344" id="Fill-261" fill="#332E4B"></path>
                        <polyline id="Fill-262" fill="#332E4B" points="159.229806 131.197661 143.968815 130.677824 143.796115 132.255559 159.229806 132.255559 159.229806 131.197661"></polyline>
                        <path d="M163.761674,123.24563 C163.761674,123.24563 157.465485,122.77526 149.670533,117.395511 C142.808511,112.658833 138.159485,99.8581718 138.159485,99.8581718 L164.031573,100.286885 L163.761674,123.24563" id="Fill-263" fill="#4A445F"></path>
                        <polyline id="Fill-264" fill="#332E4B" points="108.682383 112.4627 134.099722 112.4627 128.33552 132.255559 102.588401 132.255559 108.682383 112.4627"></polyline>
                        <polyline id="Fill-265" fill="#FFFFFE" points="109.724661 113.505846 132.132326 113.505846 126.854115 130.903463 104.600925 130.742912 109.724661 113.505846"></polyline>
                        <polyline id="Fill-266" fill="#FAD9A9" points="96.8511013 123.18141 100.598441 124.061401 103.911859 122.244141 103.470996 119.765586 101.20593 116.532009 99.627326 116.875674 98.0530617 118.850881 95.8253128 120.392167 96.8511013 123.18141"></polyline>
                        <polyline id="Fill-267" fill="#FAD9A9" points="115.193797 130.121537 118.431714 132.201753 122.162564 131.596 122.573921 129.112238 121.519493 125.308489 119.91659 125.104546 117.772154 126.441022 115.158216 127.150048 115.193797 130.121537"></polyline>
                        <path d="M87.0783392,78.7149515 C87.0783392,78.7149515 90.0732599,96.8918899 82.0570088,99.8633789 C71.6715507,99.0640969 73.371652,78.1118018 73.371652,78.1118018 L80.715326,75.2383789 L87.0783392,78.7149515" id="Fill-268" fill="#FAD9A9"></path>
                        <path d="M71.6724185,86.9247313 C72.1887841,88.0746211 73.2744537,88.7064097 74.0971674,88.3375771 C74.9190132,87.9678767 75.166348,86.7364097 74.6499824,85.5865198 C74.1336167,84.4374978 73.048815,83.8048414 72.2261013,84.1745419 C71.4042555,84.5442423 71.1560529,85.7757093 71.6724185,86.9247313" id="Fill-269" fill="#FAD9A9"></path>
                        <path d="M87.1460308,79.9334009 C87.4619251,79.2469383 87.9236167,78.4598062 88.2959207,76.5097665 C89.2982775,71.2610617 83.008163,68.7660176 79.7624361,69.5071542 C71.8060661,71.3244141 73.3490881,78.6654846 73.3490881,78.6654846 C73.3490881,78.6654846 85.5413921,74.1605198 87.1460308,79.9334009" id="Fill-270" fill="#582F1D"></path>
                        <path d="M84.8089339,96.9977665 C83.9619207,97.0836828 77.7533833,97.7111322 77.7533833,97.7111322 L77.9321586,102.850489 L82.2245022,104.155722 L85.3287709,102.638736 L84.8089339,96.9977665" id="Fill-271" fill="#FAD9A9"></path>
                        <path d="M73.5486916,78.3209515 L73.9114493,84.43663 C73.9114493,84.43663 70.7264714,81.8114097 70.9538458,79.7008194 C71.1812203,77.5902291 73.5486916,78.3209515 73.5486916,78.3209515" id="Fill-272" fill="#582F1D"></path>
                        <path d="M87.9418414,77.9833612 C86.2512863,77.5659295 86.8301366,78.4745595 86.8301366,78.4745595 L87.4957709,83.7709956 L88.113674,83.9046432 C88.113674,83.9046432 89.6323965,78.400793 87.9418414,77.9833612" id="Fill-273" fill="#582F1D"></path>
                        <path d="M86.8995639,85.1595419 C86.7069031,86.3519559 87.2553789,87.4324185 88.1249559,87.572141 C88.9936652,87.7118634 89.853696,86.8587753 90.045489,85.6663612 C90.2372819,84.4739471 89.6888062,83.3943524 88.8200969,83.2537621 C87.9513877,83.1140396 87.0913568,83.9671278 86.8995639,85.1595419" id="Fill-274" fill="#FAD9A9"></path>
                        <path d="M94.1217401,141.170894 C94.1217401,141.170894 119.702233,141.75148 121.427502,143.120066 C123.153639,144.488652 131.975247,187.431181 131.975247,187.431181 L128.443132,187.348736 L117.924026,160.424824 L116.081599,154.796872 L91.960815,152.033665 L94.1217401,141.170894" id="Fill-275" fill="#202231"></path>
                        <path d="M73.8316079,146.984564 L88.6352467,139.542824 L94.1217401,141.170894 L96.956978,142.636678 L102.965912,145.655899 L115.590401,147.678837 L113.213383,185.132269 L109.153621,185.78315 L106.989225,162.707247 L108.395996,155.361837 C108.395996,155.361837 82.5985419,155.954573 78.3079339,155.295013 C74.0164581,154.635454 73.8316079,146.984564 73.8316079,146.984564" id="Fill-276" fill="#202231"></path>
                        <path d="M108.50274,184.51263 L107.703458,189.684965 L121.863159,191.110828 C121.863159,191.110828 122.12785,190.206537 121.488251,189.263194 C116.228264,188.56111 113.196026,184.945683 113.196026,184.945683 L108.50274,184.51263" id="Fill-277" fill="#1B1B1B"></path>
                        <path d="M127.257661,185.317119 L127.55533,190.542392 L141.700278,188.982881 C141.700278,188.982881 141.770573,188.042141 140.948727,187.254141 C135.658366,187.663762 131.93793,184.7617 131.93793,184.7617 L127.257661,185.317119" id="Fill-278" fill="#1B1B1B"></path>
                        <polyline id="Fill-279" fill="#ECF1F4" points="81.8070705 113.816533 94.1338899 128.906559 115.590401 130.32548 116.349762 126.799441 98.0686828 122.32485 92.3348546 102.183119 80.2675198 106.688952 78.2523921 109.702965 81.8070705 113.816533"></polyline>
                        <polyline id="Fill-280" fill="#ECF1F4" points="92.3348546 102.183119 71.1126608 102.978062 69.2216344 114.892656 72.3180925 130.557194 73.8316079 146.984564 94.8082026 141.301938 89.6922775 111.844797 92.3348546 102.183119"></polyline>
                        <path d="M115.459357,149.734753 L115.590401,147.678837 L102.965912,145.655899 L98.7698987,143.547912 L118.088916,145.523987 C118.088916,145.523987 117.503991,147.90274 115.459357,149.734753" id="Fill-281" fill="#373745"></path>
                        <path d="M109.692551,151.812366 C109.572789,151.812366 109.451291,151.81063 109.328925,151.806291 C102.405286,151.586727 94.844652,143.146101 94.844652,143.146101 L98.7698987,143.547912 L102.965912,145.655899 L115.590401,147.678837 L115.459357,149.734753 C114.180159,150.881172 112.329053,151.812366 109.692551,151.812366" id="Fill-282" fill="#373745"></path>
                        <path d="M111.439515,184.241863 L109.752432,184.186322 C109.752432,184.186322 108.99741,170.541251 109.297683,163.872758 C109.572789,157.770097 112.094736,153.60359 112.094736,153.60359 L111.439515,184.241863" id="Fill-283" fill="#373745"></path>
                        <path d="M128.765969,184.720044 C128.765969,184.720044 120.498044,165.334203 119.837617,160.849198 C119.176322,156.364194 121.709551,154.547802 121.709551,154.547802 L130.188361,184.588132 L128.765969,184.720044" id="Fill-284" fill="#373745"></path>
                        <path d="M118.508952,189.726621 L108.449802,188.575863 L108.88893,185.022053 C108.88893,185.022053 109.975467,185.26852 111.269419,185.347493 C112.337731,187.549207 118.508952,189.726621 118.508952,189.726621" id="Fill-285" fill="#323131"></path>
                        <path d="M128.509088,189.416802 L128.247868,185.846502 C128.247868,185.846502 128.318163,185.848238 128.445736,185.848238 C128.821511,185.848238 129.685881,185.831749 130.644846,185.700705 C132.12278,187.65248 138.59948,188.583674 138.59948,188.583674 L128.509088,189.416802" id="Fill-286" fill="#323131"></path>
                        <polyline id="Fill-287" fill="#ECF1F4" points="86.0490793 100.48996 86.860511 104.610471 75.1307665 102.899088 76.3787225 100.766802 86.0490793 100.48996"></polyline>
                        <path d="M87.6259471,75.7304449 C87.6259471,75.7304449 89.2774493,96.1429427 79.7641718,95.7350573 C70.2508943,95.3271718 73.5703877,77.7846256 73.5703877,77.7846256 C73.5703877,77.7846256 79.7164405,74.9433128 82.8102952,75.3121454 C85.9041498,75.6801101 87.6259471,75.7304449 87.6259471,75.7304449" id="Fill-288" fill="#582F1D"></path>
                        <path d="M90.8595242,118.564493 L89.6922775,111.844797 L90.9949075,107.082084 C91.1415727,110.215859 91.2405066,114.780705 90.8595242,118.564493" id="Fill-289" fill="#ECF1F4"></path>
                        <path d="M89.5768546,124.024952 C86.7390132,116.455639 82.1611498,110.234084 74.8001189,108.858555 C73.2874714,106.123119 72.2981322,104.155722 72.2981322,104.155722 L81.1466432,103.776476 L86.860511,104.610471 L86.6504934,103.541291 L90.762326,103.365119 C90.762326,103.365119 90.8907665,104.864749 90.9949075,107.082084 L89.6922775,111.844797 L90.8595242,118.564493 C90.6321498,120.81741 90.2355463,122.792617 89.5768546,124.024952" id="Fill-290" fill="#ECF1F4"></path>
                        <polyline id="Fill-291" fill="#ECF1F4" points="86.860511 104.610471 81.1466432 103.776476 86.6504934 103.541291 86.860511 104.610471"></polyline>
                        <polyline id="Fill-292" fill="#4B2B1F" points="116.366251 156.53863 127.104053 193.810683 126.130335 193.810683 113.554445 156.687031 116.366251 156.53863"></polyline>
                        <polyline id="Fill-293" fill="#4B2B1F" points="91.1719471 157.156533 80.4332775 194.429454 81.4069956 194.429454 93.9828855 157.305802 91.1719471 157.156533"></polyline>
                        <polyline id="Fill-294" fill="#4B2B1F" points="84.8427797 157.156533 95.5805815 194.429454 94.6068634 194.429454 82.0309736 157.305802 84.8427797 157.156533"></polyline>
                        <polyline id="Fill-295" fill="#4B2B1F" points="62.9740441 157.156533 52.1051982 195.01004 53.1761145 194.999626 65.7849824 157.305802 62.9740441 157.156533"></polyline>
                        <polyline id="Fill-296" fill="#F1F0ED" points="94.0774802 157.718894 122.032388 156.238357 123.097229 150.517546 93.624467 152.353031 94.0774802 157.718894"></polyline>
                        <g id="Group-299" transform="translate(55.541850, 108.480176)">
                            <mask id="mask-14" fill="white">
                                <use xlink:href="#path-13"></use>
                            </mask>
                            <g id="Clip-298"></g>
                            <path d="M38.53563,49.2387181 L3.28304405,49.2387181 C3.28304405,49.2387181 3.02269163,48.2198722 2.65212335,46.4746432 C1.79556388,42.4383128 0.352343612,34.5201278 0.19092511,26.3520044 C0.173568282,25.4945771 0.170964758,24.6336784 0.183982379,23.7753833 C0.18485022,23.7137665 0.186585903,23.6530176 0.187453744,23.5914009 C0.196132159,23.1314449 0.20914978,22.6732247 0.227374449,22.2150044 C0.242127753,21.8296828 0.261220264,21.4452291 0.283784141,21.0616432 C0.904290749,10.5659692 4.3487533,0.969378855 14.6734626,0.151872247 C15.0501057,0.122365639 15.437163,0.104140969 15.8320308,0.0980660793 C15.9283612,0.0963303965 16.0238238,0.0954625551 16.1192863,0.0954625551 C17.2188414,0.0954625551 18.2637225,0.192660793 19.2582687,0.378378855 C26.6192996,1.75390749 31.197163,7.97546256 34.0350044,15.5447753 C36.1403877,21.1623128 37.2894097,27.5227225 37.9055771,33.1905947 C38.5538546,39.1422511 38.6154714,44.3319427 38.5859648,47.1029604 C38.5720793,48.4611322 38.53563,49.2387181 38.53563,49.2387181 M14.3723216,4.03372687 C14.1961498,4.03372687 14.019978,4.03719824 13.8429383,4.04500881 C-3.02182379,4.77225991 5.31032159,46.442533 5.31032159,46.442533 C41.4428987,37.6365463 30.9350749,4.03372687 14.3723216,4.03372687" id="Fill-297" fill="url(#linearGradient-15)" mask="url(#mask-14)"></path>
                        </g>
                        <polyline id="Fill-300" fill="#6F5142" points="126.407176 192.944577 115.122634 158.264767 116.292485 157.718894 126.407176 192.944577"></polyline>
                        <path d="M81.6812335,192.049833 L87.4992423,173.447652 L87.7109956,174.072498 L81.6812335,192.049833 M88.7897225,170.857145 L88.5597445,170.058731 L92.1404581,158.608432 L92.8972159,158.608432 L88.7897225,170.857145" id="Fill-301" fill="#6F5142"></path>
                        <polyline id="Fill-302" fill="#6F5142" points="87.7109956 174.072498 87.4992423 173.447652 88.5597445 170.058731 88.7897225 170.857145 87.7109956 174.072498"></polyline>
                        <g id="Group-305" transform="translate(58.145374, 111.951542)">
                            <mask id="mask-17" fill="white">
                                <use xlink:href="#path-16"></use>
                            </mask>
                            <g id="Clip-304"></g>
                            <path d="M2.70679736,42.9711674 C2.70679736,42.9711674 -5.62534802,1.30089427 11.2394141,0.573643172 C11.4164537,0.565832599 11.5926256,0.562361233 11.7687974,0.562361233 C28.3315507,0.562361233 38.8393744,34.1651806 2.70679736,42.9711674" id="Fill-303" fill="url(#linearGradient-18)" mask="url(#mask-17)"></path>
                        </g>
                        <polyline id="Fill-306" fill="#4B2B1F" points="119.996432 172.971207 60.035533 172.971207 59.6675683 174.456952 119.996432 173.838181 119.996432 172.971207"></polyline>
                    </g>
                </g>
            </g>
        </g>
    </g>
</svg>