<?xml version="1.0" encoding="UTF-8"?>
<svg width="219px" height="197px" viewBox="0 0 219 197" version="1.1" xmlns="http://www.w3.org/2000/svg" xmlns:xlink="http://www.w3.org/1999/xlink">
    <!-- Generator: sketchtool 51.2 (57519) - http://www.bohemiancoding.com/sketch -->
    <title>E148F61F-E318-4DEE-A557-08B148E699C9</title>
    <desc>Created with sketchtool.</desc>
    <defs>
        <path d="M1.56129609,0.63682626 C1.56129609,0.63682626 3.84723269,6.84743806 3.19381161,7.99593797 C2.54039053,9.14512933 0.280037606,8.50968597 0.280037606,8.50968597 L0.544863293,0.876068264 L1.56129609,0.63682626" id="path-1"></path>
        <linearGradient x1="53.24064%" y1="98.1739904%" x2="20.9198762%" y2="4.8421585%" id="linearGradient-3">
            <stop stop-color="#F9D4A4" offset="0%"></stop>
            <stop stop-color="#EDB870" offset="100%"></stop>
        </linearGradient>
    </defs>
    <g id="For-business" stroke="none" stroke-width="1" fill="none" fill-rule="evenodd">
        <g id="For-business-|-Website" transform="translate(-531.000000, -1395.000000)">
            <g id="Products" transform="translate(0.000000, 1163.000000)">
                <g id="2" transform="translate(511.000000, 232.000000)">
                    <g id="Group-3" transform="translate(20.000000, 0.000000)">
                        <path d="M217.453503,194.230739 C217.453503,195.388919 175.063415,196.327218 122.773134,196.327218 C70.483544,196.327218 28.0941478,195.388919 28.0941478,194.230739 C28.0941478,193.07325 70.483544,192.134952 122.773134,192.134952 C175.063415,192.134952 217.453503,193.07325 217.453503,194.230739" id="Fill-692" fill="#CAC9C4"></path>
                        <g id="Group-2" transform="translate(27.867352, 26.903084)">
                            <polyline id="Fill-784" fill="#FAD9A9" points="107.387853 109.130309 98.0567235 112.129823 98.8747099 162.955612 102.722634 162.715678 107.387853 109.130309"></polyline>
                            <polyline id="Fill-785" fill="#FAD9A9" points="85.3865776 107.849051 94.8843469 108.222434 92.8044627 163.034437 89.1300927 162.715678 85.3865776 107.849051"></polyline>
                            <polyline id="Fill-786" fill="#53B8C9" points="84.5962493 85.5200276 83.0079866 112.068284 95.0171055 113.01488 96.4338883 99.3130898 97.2380457 113.106152 109.584593 112.938129 107.976969 85.5200276 84.5962493 85.5200276"></polyline>
                            <path d="M99.1333126,161.22975 L98.7378027,165.224953 L115.134869,165.224953 C115.134869,165.224953 110.585813,162.359581 104.696726,161.22975 C100.457441,161.22975 99.1333126,161.22975 99.1333126,161.22975" id="Fill-787" fill="#53231A"></path>
                            <path d="M92.9683365,161.266397 L93.4412889,165.253994 L77.0469886,165.646047 C77.0469886,165.646047 81.5393449,162.615418 87.4056142,161.373572 C91.6448995,161.291981 92.9683365,161.266397 92.9683365,161.266397" id="Fill-788" fill="#53231A"></path>
                            <polyline id="Fill-789" fill="#FAD9A9" points="104.775552 24.4898072 99.0226804 29.9467376 94.3381007 29.9467376 88.6440027 24.4898072 88.6440027 8.0982727 104.775552 8.0982727 104.775552 24.4898072"></polyline>
                            <path d="M88.6440027,16.2546273 L87.3786476,10.7188715 C87.3786476,10.7188715 86.8856431,5.71484152 88.0922249,4.02009541 C90.125782,1.16371183 95.0482208,0.67623896 95.0482208,0.67623896 C95.0482208,0.67623896 99.7355663,0.676930411 101.53403,1.38705046 C103.332494,2.09647907 105.098459,3.86866767 105.883256,5.65745109 C106.668053,7.44623452 104.775552,16.807788 104.775552,16.807788 L103.748056,9.29517417 L90.2253509,9.69068407 L88.6440027,16.2546273" id="Fill-790" fill="#53231A"></path>
                            <path d="M87.725756,44.7368719 C81.0048534,64.1770134 81.0739985,63.8416597 79.6738105,66.6690023 C78.1194289,69.8081893 66.1746149,93.9266874 66.1746149,93.9266874 L62.1538281,94.355387 L71.7732927,66.1628603 L78.8371549,38.0076719 L82.4472199,35.747319 L88.9406351,36.359253 L87.725756,44.7368719" id="Fill-791" fill="#FAD9A9"></path>
                            <polyline id="Fill-792" fill="#FAD9A9" points="66.8681402 93.7227094 66.483002 96.2326761 63.6522021 100.120704 59.2483515 97.9965673 58.4836068 95.4561768 62.4725869 91.9588182 63.957132 91.1677984 66.8681402 93.7227094"></polyline>
                            <path d="M106.668744,16.3929174 C106.668744,17.1763313 106.033992,17.8097003 105.25127,17.8097003 C104.468548,17.8097003 103.834487,17.1763313 103.834487,16.3929174 C103.834487,15.6101951 104.468548,14.976826 105.25127,14.976826 C106.033992,14.976826 106.668744,15.6101951 106.668744,16.3929174" id="Fill-793" fill="#FAD9A9"></path>
                            <path d="M89.5387402,16.3929174 C89.5387402,17.1763313 88.9039883,17.8097003 88.1219573,17.8097003 C87.3392349,17.8097003 86.704483,17.1763313 86.704483,16.3929174 C86.704483,15.6101951 87.3392349,14.976826 88.1219573,14.976826 C88.9039883,14.976826 89.5387402,15.6101951 89.5387402,16.3929174" id="Fill-794" fill="#FAD9A9"></path>
                            <path d="M108.98787,44.6124107 C108.98787,44.6124107 112.512196,62.7975689 113.565967,66.1939756 C114.619738,69.5917652 125.342758,89.7606959 125.342758,89.7606959 L129.38498,90.1921612 L121.510046,65.6864506 L117.418731,41.9717598 L112.098708,37.2940946 L107.766768,36.190539 L108.98787,44.6124107" id="Fill-795" fill="#FAD9A9"></path>
                            <polyline id="Fill-796" fill="#FAD9A9" points="125.34345 90.1036555 125.503866 92.6523435 127.992398 96.7989744 132.591238 95.0661985 133.584853 92.5901129 129.902877 88.731817 128.487477 87.8059643 125.34345 90.1036555"></polyline>
                            <path d="M121.260432,48.6166028 C121.260432,48.6166028 117.73265,34.6755701 107.914047,34.4280307 C102.375526,34.2876662 97.8797121,34.3409079 93.6286721,34.3941496 C90.3428975,34.4349452 87.2037105,34.4757408 83.8411849,34.4280307 C76.1287418,34.31809 73.4127228,47.5248018 73.4127228,47.5248018 L81.9901709,56.5247265 L82.7680531,56.0628373 L84.0665979,85.6147564 L108.715439,85.7067194 L110.585813,57.2887797 L110.876914,54.7947164 L111.913399,56.6664739 L121.260432,48.6166028" id="Fill-797" fill="#BA3335"></path>
                            <polygon id="Fill-798" fill="#FAD9A9" points="90.8649429 37.929538 101.966187 37.929538 101.966187 24.2588626 90.8649429 24.2588626"></polygon>
                            <path d="M88.0175482,82.122238 C85.7571953,82.122238 85.2731797,80.8817752 85.2731797,80.8817752 L84.2470666,36.514138 L90.8649429,36.4311639 L90.8649429,37.929538 L101.966187,37.929538 L101.966187,36.2921823 L110.096266,36.190539 C110.096266,36.190539 106.734432,73.1368339 96.7505728,78.9222034 C92.4518227,81.4135009 89.7268148,82.122238 88.0175482,82.122238" id="Fill-799" fill="#C04546"></path>
                            <polyline id="Fill-800" fill="#FBDDB0" points="101.966187 37.929538 90.8649429 37.929538 90.8649429 36.4311639 101.966187 36.2921823 101.966187 37.929538"></polyline>
                            <path d="M89.5387402,34.4280307 L103.165854,34.3485139 C103.165854,34.3485139 105.357753,39.5005144 96.7097772,40.0433033 C88.0618011,40.5854008 89.5387402,34.4280307 89.5387402,34.4280307" id="Fill-801" fill="#FAD9A9"></path>
                            <path d="M82.1630336,53.4173462 C82.1630336,53.4173462 78.1816595,50.929506 75.0085914,46.3880566 C78.3683512,37.7414633 82.5875845,36.190539 82.5875845,36.190539 L82.1630336,53.4173462" id="Fill-802" fill="#C04546"></path>
                            <path d="M110.778037,51.4888897 L111.711496,36.6835435 C111.711496,36.6835435 119.487552,43.0289882 118.740785,46.8859012 C117.994018,50.7428142 110.778037,51.4888897 110.778037,51.4888897" id="Fill-803" fill="#C04546"></path>
                            <path d="M84.332115,92.4172502 L84.0672894,91.8806843 C88.2401954,89.816012 88.6391626,85.6500204 88.6426198,85.6078419 L89.2386505,85.6576264 C89.2234386,85.8415523 88.8175569,90.1976928 84.332115,92.4172502" id="Fill-804" fill="#3E3C6A"></path>
                            <path d="M108.25839,91.8454203 C101.122617,90.0725402 101.083895,85.880965 101.085925,85.7039536 L101.684075,85.7101766 L101.385368,85.7067194 L101.684075,85.7081023 C101.684075,85.867136 101.755294,89.6134169 108.402903,91.265293 L108.25839,91.8454203" id="Fill-805" fill="#3E3C6A"></path>
                            <path d="M97.4109084,94.622287 L97.1391682,94.0884869 C99.9734254,92.6461204 99.5979676,85.7938422 99.5938188,85.7246971 L100.190541,85.6887417 C100.208519,85.986757 100.592274,93.0015262 97.4109084,94.622287" id="Fill-806" fill="#3E3C6A"></path>
                            <polyline id="Fill-807" fill="#3E3C6A" points="96.7325951 99.3200043 96.1351815 99.3061753 96.4525575 85.6998049 97.0506625 85.7136339 96.7325951 99.3200043"></polyline>
                            <polyline id="Fill-808" fill="#FFFFFE" points="96.7512643 112.420924 109.953827 111.768194 109.953827 113.354383 96.7512643 114.007112 96.7512643 112.420924"></polyline>
                            <polyline id="Fill-809" fill="#FFFFFE" points="82.333822 111.488157 95.5840952 112.327578 95.5840952 114.28715 82.333822 113.106152 82.333822 111.488157"></polyline>
                            <path d="M85.627894,110.641821 C84.769112,110.641821 84.1993565,110.554698 84.1993565,110.554698 L85.7150168,91.582669 C88.0376003,89.8893058 88.8389919,87.6075179 89.1079663,86.4285941 C89.8173949,86.3082817 90.5772994,86.2218503 91.3012485,86.2218503 C92.6544178,86.2218503 93.8817431,86.5226314 94.4176176,87.4602388 C95.91046,90.0732317 94.2779445,106.122498 91.5252785,108.688472 C89.7441011,110.348646 87.2009447,110.641821 85.627894,110.641821 M85.7800132,90.7660655 L86.0662738,87.1802012 C86.0662738,87.1802012 87.0999929,86.8289442 88.4524708,86.5516724 C88.1641358,87.6075179 87.4588559,89.3541228 85.7800132,90.7660655" id="Fill-810" fill="#63BFCD"></path>
                            <path d="M85.7150168,91.582669 L85.7800132,90.7660655 C87.4588559,89.3541228 88.1641358,87.6075179 88.4524708,86.5516724 C88.6640548,86.508111 88.8839362,86.4666239 89.1079663,86.4285941 C88.8389919,87.6075179 88.0376003,89.8893058 85.7150168,91.582669" id="Fill-811" fill="#524F79"></path>
                            <path d="M98.7945016,111.257212 C98.6652003,111.257212 98.5939809,111.255138 98.5939809,111.255138 L98.1963966,94.0525315 C99.7556184,92.5285738 100.12831,89.4191192 100.198838,87.4477927 C100.600571,87.3724246 101.034802,87.3088111 101.480788,87.2742385 C102.032566,88.4974151 103.35462,90.1721092 106.522157,91.3213005 C107.496411,96.4083046 107.261318,106.130104 105.900542,108.501781 C104.405626,111.109933 99.8109344,111.257212 98.7945016,111.257212 M106.374878,90.6263924 C103.822732,89.6237886 102.659021,88.2768423 102.128678,87.2451976 C102.152187,87.2451976 102.175696,87.2451976 102.199206,87.2451976 C103.532323,87.2451976 104.857834,87.5681052 105.614973,88.6315566 C105.912988,89.0498844 106.166059,89.7427182 106.374878,90.6263924" id="Fill-812" fill="#63BFCD"></path>
                            <path d="M106.522157,91.3213005 C103.35462,90.1721092 102.032566,88.4974151 101.480788,87.2742385 C101.694447,87.2576437 101.911562,87.2472719 102.128678,87.2451976 C102.659021,88.2768423 103.822732,89.6237886 106.374878,90.6263924 C106.426736,90.8469652 106.475829,91.0786013 106.522157,91.3213005" id="Fill-813" fill="#524F79"></path>
                            <path d="M98.1756531,93.1640171 L98.0567235,88.020314 C98.0567235,88.020314 98.6838695,87.7866036 99.5903616,87.5757111 C99.5156849,89.2676914 99.2176696,91.7202677 98.1756531,93.1640171" id="Fill-814" fill="#63BFCD"></path>
                            <path d="M98.1963966,94.0525315 L98.1756531,93.1640171 C99.2176696,91.7202677 99.5156849,89.2676914 99.5903616,87.5757111 C99.7818935,87.5314583 99.9858715,87.4878969 100.198838,87.4477927 C100.12831,89.4191192 99.7556184,92.5285738 98.1963966,94.0525315" id="Fill-815" fill="#524F79"></path>
                            <path d="M95.4126154,42.2794555 C92.8646189,42.2794555 90.9091958,41.5575807 89.5940562,40.1311176 C87.4401867,37.7933222 87.8080386,34.4446256 87.8246334,34.3035696 L88.4185897,34.3734061 C88.4151325,34.4052129 88.069407,37.5976416 90.0372762,39.7293846 C91.314386,41.1129778 93.2884783,41.7663989 95.9000882,41.6723616 C99.6014248,41.5389116 102.038789,40.6683749 103.143728,39.0849524 C103.958257,37.9170919 104.051603,36.3516471 103.423074,34.431488 L103.990755,34.2447962 C104.681514,36.3537214 104.561893,38.0968691 103.633966,39.4272206 C102.416321,41.1731341 99.8213062,42.1294106 95.9215232,42.2704666 C95.749352,42.2766897 95.579255,42.2794555 95.4126154,42.2794555" id="Fill-816" fill="#7876AA"></path>
                            <path d="M88.6440027,17.8097003 C88.6440027,17.8097003 87.4111458,24.4289596 88.6440027,26.9797219 C89.8768596,29.5297927 96.7512643,31.8938633 96.7512643,31.8938633 C96.7512643,31.8938633 104.577105,28.8915835 105.25127,26.5046951 C105.926126,24.1178067 104.775552,17.7260347 104.775552,17.7260347 C104.775552,17.7260347 104.719544,24.3743349 103.332494,25.5836825 C101.944752,26.7930301 101.21458,24.5534207 99.9934775,23.3710397 C98.7723752,22.1893502 95.100771,21.9404279 94.1686952,23.24727 C93.2366195,24.5534207 93.1736974,26.6519741 91.6186244,26.5046951 C90.0635514,26.3574161 88.717988,21.8277214 88.6440027,17.8097003" id="Fill-817" fill="#53231A"></path>
                            <path d="M94.791001,24.6619785 L99.7085997,24.5223054 C99.7085997,24.5223054 99.9450759,26.886376 97.3369232,27.3212986 C94.7287705,27.7569126 94.791001,24.6619785 94.791001,24.6619785" id="Fill-818" fill="#F9D5A4"></path>
                            <path d="M99.0952828,15.9911845 L98.8290742,15.8549687 C98.8601895,15.7934295 99.6048821,14.3565946 100.696683,14.3095759 C101.314149,14.2826094 101.907413,14.709926 102.448128,15.5790798 L102.194366,15.7367306 C101.714499,14.9664543 101.21458,14.5861563 100.709129,14.6089742 C99.7908823,14.6476954 99.1021973,15.9773555 99.0952828,15.9911845" id="Fill-819" fill="#1B1A19"></path>
                            <path d="M91.3150775,16.2283521 L91.0488689,16.0928278 C91.0799842,16.0319801 91.8246768,14.5944537 92.9157863,14.5481265 C93.5387835,14.5204685 94.1265167,14.9477851 94.6679228,15.8169389 L94.4141603,15.9745897 C93.9336019,15.2043134 93.4302257,14.821941 92.9289238,14.8468333 C92.0099856,14.886246 91.321992,16.2152146 91.3150775,16.2283521" id="Fill-820" fill="#1B1A19"></path>
                            <path d="M91.2770477,12.8858786 L91.0862072,12.0091189 C91.2065197,11.9835352 94.05184,11.3722926 95.5453739,11.8217357 L95.2874628,12.6805177 C94.2302344,12.3624503 92.0341864,12.7213133 91.2770477,12.8858786" id="Fill-821" fill="#1B1A19"></path>
                            <path d="M97.9716751,12.7143988 L97.7801432,11.8376391 C97.9011471,11.8113639 100.746467,11.2008128 102.23931,11.6495644 L101.981399,12.5090379 C100.92417,12.1909705 98.7281223,12.549142 97.9716751,12.7143988" id="Fill-822" fill="#1B1A19"></path>
                            <path d="M96.6226544,26.5040037 C95.0758788,26.5040037 94.0712007,25.4875709 94.0552973,25.470976 L94.2703385,25.2635408 C94.3636844,25.3603439 96.5825503,27.5881986 99.549566,24.8825513 L99.7507782,25.1038156 C98.5856835,26.1658842 97.5139346,26.5040037 96.6226544,26.5040037" id="Fill-823" fill="#1B1A19"></path>
                            <g id="Group-826" transform="translate(95.420221, 13.137567)">
                                <mask id="mask-2" fill="white">
                                    <use xlink:href="#path-1"></use>
                                </mask>
                                <g id="Clip-825"></g>
                                <path d="M1.56129609,0.63682626 C1.56129609,0.63682626 3.84723269,6.84743806 3.19381161,7.99593797 C2.54039053,9.14512933 0.280037606,8.50968597 0.280037606,8.50968597 L0.544863293,0.876068264 L1.56129609,0.63682626" id="Fill-824" fill="url(#linearGradient-3)" mask="url(#mask-2)"></path>
                            </g>
                            <path d="M93.7068061,8.91833344 C91.7984016,8.91833344 90.202533,8.72126994 89.7046884,8.13077089 C88.2118459,6.35789083 89.6113425,1.87867204 94.6036179,1.64565309 C94.7529712,1.63873858 94.9009417,1.63528133 95.0461464,1.63528133 C99.7590756,1.63528133 102.355474,5.23428316 102.581578,8.13077089 C102.581578,8.13077089 97.522232,8.91833344 93.7068061,8.91833344" id="Fill-827" fill="#653529"></path>
                            <path d="M91.8239853,9.79371025 L91.8025503,9.79371025 L91.8101563,9.49500347 C91.8654724,9.48947187 96.0065717,9.48324881 96.8819485,0.661027041 L97.1792724,0.690759428 C96.2969811,9.58558354 92.2001346,9.79371025 91.8239853,9.79371025" id="Fill-828" fill="#8D5835"></path>
                            <path d="M97.1488485,9.58281774 L96.9123723,9.4002747 C98.7834384,6.97812227 98.3097946,0.901651947 98.304263,0.840804269 L98.6029697,0.815912038 C98.6237133,1.07036596 99.0904426,7.07008524 97.1488485,9.58281774" id="Fill-829" fill="#8D5835"></path>
                            <path d="M91.2832707,9.77227528 L91.0799842,9.55308535 C93.2995415,7.48979592 92.7187228,1.19551857 92.7124997,1.13259654 L93.010515,1.1035556 C93.0354073,1.36768984 93.6113858,7.60803402 91.2832707,9.77227528" id="Fill-830" fill="#8D5835"></path>
                            <path d="M162.577388,102.837415 L159.507346,101.820291 L131.247749,93.4060249 L131.776017,90.0220643 L160.906843,93.939825 L173.503695,78.962999 L175.118233,75.7664215 L176.640807,79.588762 C176.640807,79.588762 176.668465,82.7943283 176.640807,84.7082643 C176.59932,87.6932578 162.577388,102.837415 162.577388,102.837415" id="Fill-831" fill="#F1F0ED"></path>
                            <polyline id="Fill-832" fill="#202231" points="174.102491 129.635977 178.814729 166.768963 180.284754 166.768963 176.992756 128.645128 174.102491 129.635977"></polyline>
                            <polyline id="Fill-833" fill="#202231" points="156.528576 129.635977 151.816338 166.768963 150.346313 166.768963 153.63762 128.645128 156.528576 129.635977"></polyline>
                            <polyline id="Fill-834" fill="#202231" points="138.498994 115.691487 149.378282 158.963174 153.437099 156.284494 150.29238 127.513914 140.905243 114.919828 138.498994 115.691487"></polyline>
                            <path d="M143.775456,122.969007 C143.775456,122.969007 141.12789,132.048449 162.728816,131.331414 C173.556245,130.97186 181.162896,130.849473 186.599083,121.196127 C193.927079,108.18233 190.083995,80.6715741 183.331286,78.2155406 C171.810332,74.0253482 161.524308,118.011304 157.143967,120.979012 C152.763626,123.946719 143.775456,122.969007 143.775456,122.969007" id="Fill-835" fill="#EC962D"></path>
                            <path d="M181.349588,115.384483 L159.737599,111.615384 C159.737599,111.615384 140.754507,111.736388 134.644155,116.403681 C131.497362,124.664445 140.423302,163.873858 140.423302,163.873858 L144.655673,164.158045 L144.356966,134.119344 L142.306123,123.201335 C142.306123,123.201335 170.990271,123.32303 175.335348,122.239527 C179.681117,121.155332 181.349588,115.384483 181.349588,115.384483" id="Fill-836" fill="#202231"></path>
                            <path d="M144.600357,161.623877 L144.879011,167.015811 L130.197435,166.997142 C130.197435,166.997142 130.020423,166.040865 130.776179,165.140596 C136.24763,164.969808 139.737383,161.576859 139.737383,161.576859 L144.600357,161.623877" id="Fill-837" fill="#1B1B1B"></path>
                            <path d="M153.377634,155.593043 L156.00653,160.309429 L142.822636,166.768963 C142.822636,166.768963 142.241818,165.989007 142.522547,164.847421 C147.357171,162.280756 148.993144,157.696436 148.993144,157.696436 L153.377634,155.593043" id="Fill-838" fill="#1B1B1B"></path>
                            <path d="M161.442717,80.6715741 C164.383458,64.6866127 172.888303,69.6463898 172.888303,69.6463898 C172.888303,69.6463898 180.300657,77.4265951 181.349588,86.1236643 C183.00423,99.8475813 181.349588,115.384483 181.349588,115.384483 L159.263264,111.53241 C159.263264,111.53241 160.527236,85.6486375 161.442717,80.6715741" id="Fill-839" fill="#F2F5F7"></path>
                            <path d="M162.818704,103.922993 L159.620744,103.443126 L130.341948,99.9568306 L130.286632,96.5320744 L159.659465,95.4388905 L169.525778,78.5391396 L170.573326,75.1136919 L173.056326,74.3475643 C173.056326,74.3475643 176.331037,75.6205254 176.629744,77.5102607 C177.095782,80.4599901 162.818704,103.922993 162.818704,103.922993" id="Fill-840" fill="#F2F5F7"></path>
                            <path d="M141.462552,160.184276 L137.880145,123.393558 C137.880145,123.393558 142.683655,126.82108 142.983744,133.116049 C143.283834,139.411709 143.149693,159.752811 143.149693,159.752811 L141.462552,160.184276" id="Fill-841" fill="#373745"></path>
                            <path d="M133.784682,165.927467 C133.784682,165.927467 140.345859,164.338513 141.673445,162.190867 C141.892635,162.199856 142.106293,162.203313 142.310271,162.203313 C143.352288,162.203313 144.149531,162.10651 144.149531,162.10651 L144.186178,163.805405 C143.679344,164.176022 143.126183,164.527279 142.522547,164.847421 C142.432658,165.21389 142.431275,165.543021 142.470688,165.820984 L133.784682,165.927467" id="Fill-842" fill="#323131"></path>
                            <path d="M142.470688,165.820984 C142.431275,165.543021 142.432658,165.21389 142.522547,164.847421 C143.126183,164.527279 143.679344,164.176022 144.186178,163.805405 L144.229047,165.798858 L142.470688,165.820984" id="Fill-843" fill="#323131"></path>
                            <path d="M145.303562,164.70844 C145.303562,164.70844 150.429979,160.316344 150.638797,157.799462 C151.854368,157.242844 152.807879,156.601178 152.807879,156.601178 L154.553101,159.856529 L145.303562,164.70844" id="Fill-844" fill="#323131"></path>
                            <path d="M158.683137,46.4164061 L157.759358,52.3034189 L158.881583,53.4456957 L156.246464,60.2350519 L158.695583,61.2729197 C158.695583,61.2729197 159.210714,67.0140363 162.107201,67.8693611 C165.003689,68.7246858 170.696404,65.4375283 170.696404,65.4375283 L173.039731,54.68685 L166.424621,45.1641885 L158.683137,46.4164061" id="Fill-845" fill="#FAD9A9"></path>
                            <path d="M158.330497,48.6622385 C158.330497,48.6622385 156.208434,46.1916845 155.142908,44.2307298 C154.076691,42.2697752 155.51076,42.0381391 155.51076,42.0381391 C155.51076,42.0381391 156.572137,42.2345112 158.592557,41.539603 C160.613667,40.8446949 160.028009,41.307967 162.034599,40.9829851 C164.040498,40.6586946 164.669027,39.0856439 165.943371,39.688589 C167.217715,40.2915342 168.590245,42.8651144 169.434506,43.5378961 C170.278768,44.2099863 171.356048,43.594595 172.3386,44.207912 C173.32046,44.8219203 173.52513,45.6343751 173.543107,46.2020563 C173.561777,46.769046 175.268969,49.1407225 175.268969,49.1407225 L172.30057,58.0791081 L170.795973,58.3224988 C170.795973,58.3224988 169.709012,53.4235693 168.169151,53.4519188 C166.62929,53.4802683 167.295157,56.4023397 167.295157,56.4023397 L166.153572,56.5869571 C166.153572,56.5869571 166.145966,51.4024584 164.587436,49.4961283 C163.028214,47.5897982 158.330497,48.6622385 158.330497,48.6622385" id="Fill-846" fill="#582F1D"></path>
                            <path d="M163.829606,66.0764289 C164.697376,65.9443618 171.812406,59.1515484 171.812406,59.1515484 L172.205841,70.1532233 L168.2542,72.5622382 L166.444673,72.190929 L163.829606,66.0764289" id="Fill-847" fill="#FAD9A9"></path>
                            <polyline id="Fill-848" fill="#FFFFFE" points="164.850878 72.1819402 164.383458 70.0398254 174.327213 68.1521645 174.182008 71.6377683 165.105332 73.0531683 164.850878 72.1819402"></polyline>
                            <path d="M158.228853,61.3482878 C158.228853,61.3482878 160.440805,60.6962496 161.403996,61.423656 C162.367878,62.1503708 163.196237,63.6342244 163.196237,63.6342244 L166.153572,56.5869571 L167.295157,56.4023397 C167.295157,56.4023397 168.74029,66.3052992 166.802844,68.200566 C164.86609,70.0951414 161.905989,71.5762292 160.591541,70.4968744 C159.276401,69.4175196 158.228853,61.3482878 158.228853,61.3482878" id="Fill-849" fill="#582F1D"></path>
                            <polyline id="Fill-850" fill="#582F1D" points="157.195826 51.5483545 161.141936 51.3886293 161.280918 52.2487942 157.083811 52.449315 157.195826 51.5483545"></polyline>
                            <polyline id="Fill-851" fill="#582F1D" points="155.197533 53.7478597 156.003073 57.5895608 156.504375 57.5086611 155.667028 53.6718002 155.197533 53.7478597"></polyline>
                            <polyline id="Fill-852" fill="#E0605B" points="155.65389 54.4095782 167.510199 53.7423281 167.585567 54.208366 155.790106 55.2517654 155.65389 54.4095782"></polyline>
                            <polyline id="Fill-853" fill="#F2F2F2" points="137.528888 107.208076 137.528888 168.947725 135.786432 168.947725 134.915204 106.600982 137.528888 107.208076"></polyline>
                            <path d="M184.641586,108.670495 C184.641586,108.670495 162.789663,102.940441 155.850954,105.588007 C148.912244,108.23488 184.202514,113.245134 184.202514,113.245134 L184.641586,108.670495" id="Fill-854" fill="#EC962D"></path>
                            <polyline id="Fill-855" fill="#202231" points="110.681234 103.922993 132.143869 103.333185 132.143869 105.498118 110.681234 105.498118 110.681234 103.922993"></polyline>
                            <polyline id="Fill-856" fill="#202231" points="112.859995 104.415306 99.2446362 80.4599901 98.0463518 81.3312182 110.681234 104.415306 112.859995 104.415306"></polyline>
                            <path d="M130.286632,96.5320744 C130.286632,96.5320744 125.712684,96.2534196 124.405151,97.451704 C123.098309,98.6499884 122.935126,102.461957 122.935126,102.461957 L125.059263,102.842947 C125.059263,102.842947 125.494877,100.719501 127.074151,100.392445 C128.653425,100.065388 130.341948,99.9568306 130.341948,99.9568306 L130.286632,96.5320744" id="Fill-857" fill="#FAD9A9"></path>
                            <path d="M131.776017,90.0220643 C131.776017,90.0220643 127.316159,88.9689846 125.824008,89.9273356 C124.332548,90.8856865 123.522859,94.6146811 123.522859,94.6146811 L125.551576,95.3517677 C125.551576,95.3517677 126.341905,93.3327311 127.953677,93.2794894 C129.565449,93.2262477 131.247749,93.4060249 131.247749,93.4060249 L131.776017,90.0220643" id="Fill-858" fill="#FAD9A9"></path>
                            <path d="M182.62324,111.175621 C182.62324,111.175621 155.460284,107.018618 159.263264,106.056119 C159.696804,105.94687 160.334321,105.897777 161.125341,105.897777 C167.270957,105.897777 182.62324,108.833677 182.62324,108.833677 L182.62324,111.175621" id="Fill-859" fill="#EEA031"></path>
                            <path d="M158.524103,128.737091 C157.859619,128.737091 157.194443,128.70805 156.528576,128.645128 C146.879379,127.731721 145.968046,123.883105 145.968046,123.883105 L175.997067,123.393558 C175.997067,123.393558 167.484615,128.737091 158.524103,128.737091" id="Fill-860" fill="#EEA031"></path>
                            <path d="M183.549093,117.202307 C183.549093,117.202307 183.867161,115.632022 184.174856,113.240985 C184.193525,113.243751 184.202514,113.245134 184.202514,113.245134 L184.307615,112.147801 C184.399578,111.342952 184.486009,110.470341 184.557229,109.552094 L184.641586,108.670495 C184.641586,108.670495 184.63398,108.66842 184.619459,108.664963 C184.755675,106.538751 184.799236,104.218934 184.641586,101.953741 C184.129912,94.6195212 182.085292,82.2024463 182.085292,82.2024463 C182.085292,82.2024463 187.034697,84.3086057 187.978527,97.0886923 C188.922358,109.868779 183.549093,117.202307 183.549093,117.202307" id="Fill-861" fill="#EEA031"></path>
                            <path d="M184.202514,113.245134 C184.202514,113.245134 184.193525,113.243751 184.174856,113.240985 C184.219801,112.893185 184.264745,112.528099 184.307615,112.147801 L184.202514,113.245134 M184.557229,109.552094 C184.579355,109.260994 184.60079,108.964361 184.619459,108.664963 C184.63398,108.66842 184.641586,108.670495 184.641586,108.670495 L184.557229,109.552094" id="Fill-862" fill="#EEA031"></path>
                            <path d="M32.0425252,46.7939383 L32.9642292,52.6685049 L31.8440788,53.8087074 C31.8440788,53.8087074 34.1127291,58.7871538 34.0574131,59.9280477 C33.980662,61.5163104 32.0300791,61.6186451 32.0300791,61.6186451 C32.0300791,61.6186451 31.5163311,67.3473156 28.625375,68.200566 C25.7351103,69.0545079 20.0548413,65.7742649 20.0548413,65.7742649 L17.7163544,55.0464045 L18.5481698,47.8712187 L24.317636,45.5444865 L32.0425252,46.7939383" id="Fill-863" fill="#FAD9A9"></path>
                            <path d="M32.3149568,48.9325958 C32.3149568,48.9325958 27.4367709,48.6864393 26.9071195,49.8598315 C26.3767767,51.033915 26.0946647,57.9899109 26.0946647,57.9899109 L25.0727003,57.9899109 C25.0727003,57.9899109 25.006321,53.9324771 23.5183188,54.2947974 C22.029625,54.6571177 21.9570227,61.1781909 21.9570227,61.1781909 L18.9049585,60.4998776 L17.7163544,56.9437457 L17.392064,47.4743259 L23.6234193,45.2374823 L30.7246198,45.2374823 L32.3149568,48.9325958" id="Fill-864" fill="#F0CC9C"></path>
                            <polyline id="Fill-865" fill="#B6D8A8" points="26.9071195 81.7841185 40.3613707 97.8057269 60.6395507 101.392283 60.6395507 105.527159 37.2768084 103.51158 29.1114649 95.3600651 26.9071195 81.7841185"></polyline>
                            <polyline id="Fill-866" fill="#202231" points="16.6556688 129.835115 11.9544943 166.889276 10.486544 166.889276 13.7716272 128.84634 16.6556688 129.835115"></polyline>
                            <polyline id="Fill-867" fill="#202231" points="34.192246 129.835115 38.894112 166.889276 40.3613707 166.889276 37.076979 128.84634 34.192246 129.835115"></polyline>
                            <polyline id="Fill-868" fill="#202231" points="52.1831064 115.920357 41.3273276 159.09939 37.2768084 156.426932 40.4153039 127.7172 49.7816975 115.150772 52.1831064 115.920357"></polyline>
                            <path d="M46.917708,123.182666 C46.917708,123.182666 49.5604332,132.242746 28.0051435,131.527095 C17.2012235,131.168232 9.61047577,131.046536 4.18673507,121.413243 C-3.12604943,108.427795 0.708737151,80.9758125 7.44692597,78.5253106 C18.9436797,74.3441071 29.2075766,118.235335 33.5782376,121.196819 C37.9488986,124.158303 46.917708,123.182666 46.917708,123.182666" id="Fill-869" fill="#EC962D"></path>
                            <path d="M9.42447548,115.614044 L30.990137,111.853243 C30.990137,111.853243 49.9324338,111.974247 56.0303391,116.631169 C59.1695261,124.874646 50.2629473,164.000394 50.2629473,164.000394 L46.0402568,164.283197 L46.3375807,134.309493 L48.3842753,123.414302 C48.3842753,123.414302 19.7616661,123.535997 15.4255777,122.454568 C11.0887978,121.372447 9.42447548,115.614044 9.42447548,115.614044" id="Fill-870" fill="#202231"></path>
                            <path d="M46.0948814,161.754561 L45.8169182,167.135432 L60.4666879,167.116763 C60.4666879,167.116763 60.6430079,166.162561 59.8900179,165.263675 C54.4303218,165.093578 50.9467922,161.707543 50.9467922,161.707543 L46.0948814,161.754561" id="Fill-871" fill="#1B1B1B"></path>
                            <path d="M37.3362731,155.736864 L34.7129085,160.442879 L47.8684529,166.889276 C47.8684529,166.889276 48.4478888,166.110702 48.1685426,164.971882 C43.3435984,162.410057 41.7110828,157.835418 41.7110828,157.835418 L37.3362731,155.736864" id="Fill-872" fill="#1B1B1B"></path>
                            <path d="M29.2884763,80.9758125 C26.3546503,65.0247321 17.8670907,69.9741375 17.8670907,69.9741375 C17.8670907,69.9741375 10.4706407,77.737748 9.42447548,86.416148 C7.77329078,100.111024 9.42447548,115.614044 9.42447548,115.614044 L31.4637808,111.77096 C31.4637808,111.77096 30.201883,85.9425041 29.2884763,80.9758125" id="Fill-873" fill="#C9E1B8"></path>
                            <path d="M56.8877382,166.049163 L48.21971,165.942679 C48.2591227,165.665408 48.2577398,165.336968 48.1685426,164.971882 C47.5662889,164.651741 47.0138196,164.301175 46.508369,163.931249 L46.5443245,162.235811 C46.5443245,162.235811 47.3401844,162.333306 48.3801266,162.333306 C48.5841046,162.333306 48.7970715,162.329157 49.0155699,162.320168 C50.3403898,164.463666 56.8877382,166.049163 56.8877382,166.049163" id="Fill-874" fill="#323131"></path>
                            <path d="M48.21971,165.942679 L46.4654991,165.920553 L46.508369,163.931249 C47.0138196,164.301175 47.5662889,164.651741 48.1685426,164.971882 C48.2577398,165.336968 48.2591227,165.665408 48.21971,165.942679" id="Fill-875" fill="#323131"></path>
                            <path d="M45.3930588,164.832901 L36.1635724,159.99067 L37.9053372,156.742925 C37.9053372,156.742925 38.8567736,157.382518 40.068887,157.938444 C40.2770137,160.449794 45.3930588,164.832901 45.3930588,164.832901" id="Fill-876" fill="#323131"></path>
                            <path d="M26.9071195,66.4124741 C26.041423,66.2797155 18.9409139,59.502114 18.9409139,59.502114 L18.5481698,70.4795881 L22.4922057,72.8837628 L24.2975839,72.5131452 L26.9071195,66.4124741" id="Fill-877" fill="#FAD9A9"></path>
                            <polyline id="Fill-878" fill="#FFFFFE" points="25.8872295 72.5041563 26.3539588 70.3668816 16.4316387 68.4833694 16.5768434 71.9606759 25.6341584 73.3740015 25.8872295 72.5041563"></polyline>
                            <polyline id="Fill-879" fill="#582F1D" points="33.5263788 51.9155149 30.4881436 51.6098936 30.4134669 52.4583039 33.6459998 52.8130182 33.5263788 51.9155149"></polyline>
                            <polyline id="Fill-880" fill="#F2F2F2" points="53.1511376 107.454924 53.1511376 169.062506 54.8901366 169.062506 55.7592904 106.849213 53.1511376 107.454924"></polyline>
                            <path d="M6.13939236,108.914577 C6.13939236,108.914577 27.9442958,103.196969 34.8684849,105.838312 C41.7919826,108.479654 6.57777221,113.479535 6.57777221,113.479535 L6.13939236,108.914577" id="Fill-881" fill="#EC962D"></path>
                            <path d="M8.15358877,111.414172 L8.15358877,109.077759 C8.15358877,109.077759 23.4733744,106.148082 29.6051608,106.148082 C30.3947978,106.148082 31.0309326,106.196483 31.4637808,106.305733 C35.2584632,107.266158 8.15358877,111.414172 8.15358877,111.414172" id="Fill-882" fill="#EEA031"></path>
                            <path d="M32.2008674,128.938303 C23.2597161,128.938303 14.7652421,123.605834 14.7652421,123.605834 L44.7299574,124.094689 C44.7299574,124.094689 43.8206995,127.935007 34.192246,128.84634 C33.5277617,128.909262 32.8639688,128.938994 32.2008674,128.938303" id="Fill-883" fill="#EEA031"></path>
                            <path d="M7.22981039,117.428411 C7.22981039,117.428411 1.86760882,110.110095 2.80936492,97.3576667 C3.75181247,84.6045467 8.69015465,82.5039189 8.69015465,82.5039189 C8.69015465,82.5039189 6.64968311,94.8940272 6.13939236,102.212343 C5.98174156,104.472005 6.02530296,106.787674 6.16151879,108.909045 C6.14699832,108.912502 6.13939236,108.914577 6.13939236,108.914577 L6.22374936,109.795485 C6.2949688,110.713732 6.38140016,111.586343 6.47336313,112.391883 L6.57777221,113.479535 C6.57777221,113.479535 6.58676108,113.478153 6.6047388,113.475387 C6.91174299,115.860892 7.22981039,117.428411 7.22981039,117.428411" id="Fill-884" fill="#EEA031"></path>
                            <path d="M6.57777221,113.479535 L6.47336313,112.391883 C6.51623309,112.768724 6.56048594,113.131044 6.6047388,113.475387 C6.58676108,113.478153 6.57777221,113.479535 6.57777221,113.479535 M6.22374936,109.795485 L6.13939236,108.914577 C6.13939236,108.914577 6.14699832,108.912502 6.16151879,108.909045 C6.18018796,109.208443 6.20162294,109.504384 6.22374936,109.795485" id="Fill-885" fill="#EEA031"></path>
                            <polyline id="Fill-886" fill="#9B9B9B" points="78.955393 52.2847497 85.0906367 52.2847497 82.1194722 96.7747736 76.3126677 96.7747736 78.955393 52.2847497"></polyline>
                            <path d="M82.6166254,80.5153062 C82.6166254,80.5153062 86.9644685,83.6669393 87.3986997,88.7753784 C87.8336223,93.883126 87.9421801,105.749115 87.9421801,105.749115 L86.4202967,106.148082 C86.4202967,106.148082 86.4202967,89.8616477 85.2794027,87.3620528 C84.1378173,84.8624579 81.7467802,82.5039189 81.7467802,82.5039189 L82.6166254,80.5153062" id="Fill-887" fill="#9B9B9B"></path>
                            <polyline id="Fill-888" fill="#F1F0ED" points="80.0084727 104.906236 91.5833604 104.906236 91.5833604 105.947561 80.0084727 106.148082 80.0084727 104.906236"></polyline>
                            <polyline id="Fill-889" fill="#D2D2CC" points="80.0084727 52.2847497 77.9431089 96.7747736 78.9754451 96.7747736 80.7019979 52.2847497 80.0084727 52.2847497"></polyline>
                            <path d="M60.6395507,101.392283 C60.6395507,101.392283 65.2045094,101.890127 66.9435083,103.194204 C68.6825073,104.49828 68.827712,105.749115 68.827712,105.749115 L60.6395507,105.527159 L60.6395507,101.392283" id="Fill-890" fill="#FAD9A9"></path>
                            <polyline id="Fill-891" fill="#C9E1B8" points="19.9642612 81.3761625 38.1238357 91.7665949 58.3930268 88.1309462 59.8201814 92.0113685 37.1993659 98.1867163 26.7218107 93.3562405 19.9642612 81.3761625"></polyline>
                            <path d="M58.3930268,88.1309462 C58.3930268,88.1309462 62.8494277,87.021859 64.9313863,87.6455477 C67.0140363,88.2685449 67.5817175,89.3921526 67.5817175,89.3921526 L59.8201814,92.0113685 L58.3930268,88.1309462" id="Fill-892" fill="#FAD9A9"></path>
                            <path d="M37.9793224,119.387292 C37.4558941,119.387292 36.9414547,119.364474 36.4387699,119.316072 C29.7005811,118.664034 18.1028755,115.614044 18.1028755,115.614044 L31.8281754,112.794999 L52.1831064,115.920357 C52.1831064,115.920357 44.4699718,119.387292 37.9793224,119.387292" id="Fill-893" fill="#373745"></path>
                            <path d="M32.3149568,48.9325958 C32.3149568,48.9325958 36.2036766,41.8320867 26.9071195,41.4697665 C17.609871,41.1074462 15.3633471,47.4743259 15.3633471,47.4743259 L14.7113089,47.4743259 L15.1462315,49.2223137 L14.4941933,50.4371929 C14.4941933,50.4371929 15.7256673,51.5352169 15.2188339,51.7557898 C14.7113089,51.9756711 13.914066,52.2847497 13.914066,52.2847497 L14.6387066,53.6427592 C14.6387066,53.6427592 14.2044754,54.2221951 14.4941933,54.511913 C14.7839112,54.8016309 15.2188339,54.856947 15.2188339,54.856947 C15.2188339,54.856947 15.5085518,56.7667343 15.2907447,56.9437457 C15.0736292,57.1207571 16.4316387,57.9428922 16.4316387,57.9428922 L15.5811541,59.502114 L16.0879876,59.502114 L16.4316387,60.5980636 L18.9049585,60.4998776 C18.9049585,60.4998776 15.955229,48.8053689 23.1587643,46.4689563 C30.3622996,44.1325438 32.3149568,48.9325958 32.3149568,48.9325958" id="Fill-894" fill="#582F1D"></path>
                            <polyline id="Fill-895" fill="#EAEAEC" points="137.532346 105.749115 53.1511376 105.749115 53.1511376 108.012233 137.532346 107.454924 137.532346 105.749115"></polyline>
                        </g>
                        <g id="Group-4" transform="translate(0.000000, 138.726056)">
                            <path d="M19.3255349,53.405945 C19.3255349,53.8831018 15.2617116,54.2703066 10.2490539,54.2703066 C5.23593964,54.2703066 1.17211625,53.8831018 1.17211625,53.405945 C1.17211625,52.9283316 5.23593964,52.5415835 10.2490539,52.5415835 C15.2617116,52.5415835 19.3255349,52.9283316 19.3255349,53.405945" id="Fill-672" fill="#D9B07F"></path>
                            <path d="M8.75411483,8.68562342 C8.8454367,8.67192514 10.2102421,8.68562342 10.2102421,8.68562342 L10.7937889,5.9117215 L10.9686703,6.03317959 L10.5440236,9.03584281 L8.75411483,9.23446788 L8.75411483,8.68562342" id="Fill-673" fill="#4B2B1F"></path>
                            <polyline id="Fill-674" fill="#4B2B1F" points="8.2459086 17.0434013 5.17521059 14.3439267 4.99302345 14.5886693 8.0655479 17.5187317 8.2459086 17.0434013"></polyline>
                            <path d="M6.6916103,24.2477839 L9.51254299,24.2477839 C9.51254299,24.2477839 9.31254808,21.5930571 9.26095123,21.5021918 C9.20935437,21.4108699 11.3627242,19.378045 11.3627242,19.378045 L11.3627242,19.6214178 L9.54313582,21.5629208 L10.0586478,24.6263131 L9.60340825,24.8993655 L6.6916103,25.0660279 L6.6916103,24.2477839" id="Fill-675" fill="#4B2B1F"></path>
                            <path d="M7.9048214,43.4546004 L9.63400108,36.6524907 C9.63400108,36.6524907 6.26696359,25.8687472 6.26696359,25.3988962 C6.26696359,24.9295017 7.95048234,17.9150686 7.95048234,17.9150686 L7.45003847,11.6978754 L9.63400108,5.04142404 L10.088784,5.24918131 L8.1778738,11.6978754 L8.72397861,18.342455 L6.8130684,25.0235633 L10.7549771,36.6524907 L9.63400108,43.3409047 L7.9048214,43.4546004" id="Fill-676" fill="#4B2B1F"></path>
                            <path d="M0.391770839,40.7998736 L18.0013678,40.7998736 C18.0013678,40.7998736 20.4172879,53.2863134 9.85865289,53.3511519 C-0.699982163,53.4159904 0.391770839,40.7998736 0.391770839,40.7998736" id="Fill-677" fill="#FFFFFE"></path>
                            <path d="M14.5073929,20.5045003 C13.9261291,21.3095026 11.9316594,20.8624821 10.0517987,19.5058956 C8.17239449,18.1493092 7.11990989,16.3968424 7.70117362,15.5918401 C8.28198074,14.7868378 10.2769071,15.2338584 12.1563112,16.5904448 C14.0357154,17.9470313 15.0882,19.699498 14.5073929,20.5045003" id="Fill-678" fill="#4DAA4F"></path>
                            <path d="M9.10113795,12.0640761 C8.51987422,12.8690785 6.52540449,12.4220579 4.64554372,11.0654715 C2.76613956,9.70888502 1.71365496,7.95687487 2.29491869,7.15141594 C2.87572581,6.34641362 4.87065214,6.79343419 6.7500563,8.15002063 C8.62946047,9.50660707 9.68194506,11.2590738 9.10113795,12.0640761" id="Fill-679" fill="#38773C"></path>
                            <path d="M14.5073929,7.70573971 C13.9261291,8.51074203 11.9316594,8.06372146 10.0517987,6.70713502 C8.17239449,5.35054859 7.11990989,3.59808183 7.70117362,2.79307951 C8.28198074,1.98807719 10.2769071,2.43509777 12.1563112,3.7916842 C14.0357154,5.14827064 15.0882,6.90028079 14.5073929,7.70573971" id="Fill-680" fill="#4DAA4F"></path>
                            <path d="M10.3842103,20.7026688 C10.1915211,21.6766166 8.19202869,22.1017199 5.91857064,21.6519597 C3.64465598,21.2026561 1.95748437,20.0483476 2.15017352,19.0743998 C2.34240606,18.100452 4.34189849,17.6753487 6.61581315,18.1251089 C8.88972781,18.5748691 10.5768994,19.728721 10.3842103,20.7026688" id="Fill-681" fill="#4DAA4F"></path>
                            <path d="M9.29245727,13.7261342 C9.09976812,14.700082 7.10027569,15.1251854 4.82636103,14.6754251 C2.55244637,14.2256649 0.865274755,13.071813 1.05796391,12.0974086 C1.25065306,11.1234608 3.25014549,10.6988141 5.52406015,11.1481177 C7.79797481,11.597878 9.48514643,12.7521865 9.29245727,13.7261342" id="Fill-682" fill="#4DAA4F"></path>
                            <path d="M15.3018932,12.6298152 C15.0644563,13.8284147 13.0293483,14.4352486 10.7554337,13.9854884 C8.48151903,13.5357281 6.83041955,12.1996891 7.06739982,11.0015461 C7.30438008,9.80340316 9.33948804,9.19611269 11.6134027,9.64587292 C13.8873174,10.0956332 15.5384168,11.4316722 15.3018932,12.6298152" id="Fill-683" fill="#4DAA4F"></path>
                            <path d="M10.3842103,4.30126026 C10.1915211,5.27520804 8.19202869,5.70031136 5.91857064,5.25055114 C3.64465598,4.80124752 1.95748437,3.64693903 2.15017352,2.67299125 C2.34240606,1.69904346 4.34189849,1.27394014 6.61581315,1.72370037 C8.88972781,2.17300399 10.5768994,3.32731247 10.3842103,4.30126026" id="Fill-684" fill="#4DAA4F"></path>
                            <path d="M10.7842001,2.08944447 C10.6654816,2.6903424 9.43263635,2.95197957 8.03084558,2.67481768 C6.62859821,2.3976558 5.58844207,1.68580179 5.70716051,1.08536047 C5.82587894,0.48491915 7.05872424,0.222825372 8.46097161,0.499987259 C9.86276237,0.777149146 10.9029185,1.48900315 10.7842001,2.08944447" id="Fill-685" fill="#4DAA4F"></path>
                            <path d="M13.1960108,1.46069337 C13.1129079,1.88077399 12.2508294,2.06387435 11.2704891,1.87027198 C10.2896921,1.67621299 9.56231341,1.17850878 9.64541631,0.758428162 C9.72851922,0.338347543 10.5905977,0.155247186 11.570938,0.349306167 C12.5517349,0.54290854 13.2791137,1.04061275 13.1960108,1.46069337" id="Fill-686" fill="#38773C"></path>
                            <path d="M9.31665757,6.74914309 C9.23355466,7.16922371 8.37147617,7.35278067 7.39067925,7.15872169 C6.41033893,6.96466271 5.6825036,6.4669585 5.7656065,6.04733449 C5.84870941,5.62725387 6.71124451,5.4436969 7.69158482,5.63775588 C8.67192514,5.83181486 9.39976047,6.32951908 9.31665757,6.74914309" id="Fill-687" fill="#4DAA4F"></path>
                            <path d="M14.2124232,14.8932278 C14.1402789,15.2576021 13.3918962,15.4169587 12.5407763,15.2484699 C11.6896565,15.0804376 11.0581657,14.6480286 11.13031,14.2836543 C11.2024543,13.91928 11.950837,13.7599233 12.8019569,13.9284122 C13.6530767,14.0969011 14.2845675,14.5288535 14.2124232,14.8932278" id="Fill-688" fill="#38773C"></path>
                            <path d="M13.2288866,40.7998736 C13.2288866,40.7998736 14.4119615,48.2384968 11.727555,50.6498509 C9.04314856,53.061205 6.26696359,52.3406754 6.26696359,52.3406754 C6.26696359,52.3406754 9.4983881,54.4716713 13.956722,51.6050777 C18.4155125,48.7389407 16.5959241,40.7998736 16.5959241,40.7998736 L13.2288866,40.7998736" id="Fill-689" fill="#F4F4F1"></path>
                        </g>
                        <g id="Group-5" transform="translate(154.475771, 0.000000)">
                            <path d="M3.88520201,30.7161929 L26.4399043,30.7379509 C26.4399043,30.7379509 37.7401293,8.4365343 14.8127511,8.3210494 C-8.81702077,8.20221712 3.88520201,30.7161929 3.88520201,30.7161929" id="Fill-390" fill="#282738"></path>
                            <path d="M11.0938027,29.8034717 L5.98010919,29.8034717 C5.98010919,29.8034717 2.23326589,20.0396979 5.98010919,14.3803801 C8.65857772,10.3345035 12.5811589,9.75763688 14.6007498,9.75763688 C15.4063546,9.75763688 15.9090208,9.84913216 15.9090208,9.84913216 C15.9090208,9.84913216 10.3177665,10.178292 8.48618722,14.7374349 C6.65460793,19.2960198 11.0938027,29.8034717 11.0938027,29.8034717" id="Fill-391" fill="#3E3C4C"></path>
                            <polyline id="Fill-671" fill="#282738" points="14.5187388 8.47726086 14.5187388 0.0914952801 15.1815217 0.0914952801 15.1815217 9.34367653 14.5187388 8.47726086"></polyline>
                        </g>
                        <g id="Group-5" transform="translate(61.616740, 0.000000)">
                            <path d="M3.88520201,30.7161929 L26.4399043,30.7379509 C26.4399043,30.7379509 37.7401293,8.4365343 14.8127511,8.3210494 C-8.81702077,8.20221712 3.88520201,30.7161929 3.88520201,30.7161929" id="Fill-390" fill="#282738"></path>
                            <path d="M11.0938027,29.8034717 L5.98010919,29.8034717 C5.98010919,29.8034717 2.23326589,20.0396979 5.98010919,14.3803801 C8.65857772,10.3345035 12.5811589,9.75763688 14.6007498,9.75763688 C15.4063546,9.75763688 15.9090208,9.84913216 15.9090208,9.84913216 C15.9090208,9.84913216 10.3177665,10.178292 8.48618722,14.7374349 C6.65460793,19.2960198 11.0938027,29.8034717 11.0938027,29.8034717" id="Fill-391" fill="#3E3C4C"></path>
                            <polyline id="Fill-671" fill="#282738" points="14.5187388 8.47726086 14.5187388 0.0914952801 15.1815217 0.0914952801 15.1815217 9.34367653 14.5187388 8.47726086"></polyline>
                        </g>
                    </g>
                </g>
            </g>
        </g>
    </g>
</svg>