<svg xmlns="http://www.w3.org/2000/svg" width="25" height="17" viewBox="0 0 25 17">
    <g fill="none" fill-rule="evenodd">
        <path fill="#FFF" d="M-1087-23H193v3032h-1280z"/>
        <path fill="#00A1E9" fill-rule="nonzero" d="M20.141.185H4.25A4.065 4.065 0 0 0 .185 4.25v8.5a4.065 4.065 0 0 0 4.065 4.065h15.891a4.065 4.065 0 0 0 4.066-4.065v-8.5A4.065 4.065 0 0 0 20.14.185zm-3.24 8.478l-7.207 3.695a.185.185 0 0 1-.27-.162V4.804a.185.185 0 0 1 .27-.162L16.9 8.337a.185.185 0 0 1 0 .33v-.004z"/>
    </g>
</svg>
