<?xml version="1.0" encoding="UTF-8"?>
<svg width="654px" height="445px" viewBox="0 0 654 445" version="1.1" xmlns="http://www.w3.org/2000/svg" xmlns:xlink="http://www.w3.org/1999/xlink">
    <!-- Generator: sketchtool 51.2 (57519) - http://www.bohemiancoding.com/sketch -->
    <title>E69C1344-F560-4A11-A244-6CD9198AF867</title>
    <desc>Created with sketchtool.</desc>
    <defs></defs>
    <g id="For-business" stroke="none" stroke-width="1" fill="none" fill-rule="evenodd">
        <g id="For-business-|-Website" transform="translate(-626.000000, -55.000000)" fill="#E1F2F7">
            <g id="Header">
                <g id="Back">
                    <g id="Map" transform="translate(626.000000, 55.000000)">
                        <path d="M532.158614,114.267228 C532.458969,115.930165 534.696975,116.102319 535.26838,116.563839 C535.843449,117.025359 535.836123,117.648045 536.671255,118.706611 C537.502723,119.761514 539.385432,122.072777 540.927495,123.823623 C542.473221,125.574468 544.626981,126.827166 545.341238,127.61468 C546.04817,128.398532 545.231352,128.548709 544.619655,128.501092 C544.011621,128.457137 542.055655,128.160446 541.502564,129.142092 C540.949472,130.123737 542.795552,131.270212 542.795552,132.087029 C542.795552,132.903846 541.531867,132.141972 541.502564,133.163909 C541.473261,134.189509 541.799255,136.526412 542.649038,137.475092 C543.506147,138.427435 544.828438,137.438464 545.813747,137.980566 C546.799055,138.522669 546.234975,140.189269 548.256873,140.566544 C550.27877,140.940155 555.197987,141.438304 557.025753,140.064732 C558.846193,138.691161 554.886645,137.086829 554.652222,135.749886 C554.417799,134.420269 555.344502,133.955086 555.516656,133.398332 C555.685147,132.841578 555.721776,132.391046 555.121067,132.0504 C554.520359,131.709755 552.967307,131.859932 552.209096,130.720783 C551.454547,129.585297 552.055256,128.072537 551.63769,126.4096 C551.212799,124.746663 550.776919,122.241268 549.696376,120.805428 C548.61217,119.365925 546.879638,119.530754 545.528044,118.289045 C544.172787,117.050999 542.062981,114.681131 541.429306,113.835011 C540.802958,112.985228 541.429306,113.069473 542.008038,113.223313 C542.583107,113.380816 544.311975,114.981485 545.169084,114.410079 C546.026193,113.835011 543.806501,112.307599 544.736867,111.607993 C545.670895,110.908388 547.777038,112.241668 548.527924,112.201376 C549.27881,112.157422 548.725718,111.325953 548.564553,110.47617 C548.40705,109.622725 548.418038,108.058684 548.256873,107.186924 C548.103033,106.318827 547.94553,106.24557 547.092084,106.036787 C546.238638,105.828004 544.667272,104.842696 542.942067,105.355496 C541.213198,105.864633 539.583226,108.21985 538.198666,109.018353 C536.814106,109.820519 535.817809,109.16853 534.748255,110.098896 C533.675037,111.029262 531.861923,112.596965 532.158614,114.267228 Z M515.778316,119.080222 C514.177648,117.915434 512.342556,115.820279 510.459847,114.552931 C508.580801,113.289245 505.097424,113.413782 504.569973,111.534736 C504.035195,109.659353 507.72003,109.882787 508.804236,108.73265 C509.892104,107.586176 513.159373,105.165027 510.892064,104.853684 C508.624756,104.538679 504.434447,107.186924 502.049927,107.798622 C499.672732,108.410319 498.617829,108.674045 496.665526,108.516542 C494.713223,108.359039 491.797589,107.069713 491.211532,106.846279 C490.625475,106.622844 490.669429,106.062427 489.83796,106.80965 C489.002829,107.560536 486.867383,109.633713 485.669628,111.249033 C484.468211,112.860691 483.731977,114.465022 483.083651,116.347731 C482.428,118.234102 481.116697,120.688217 481.787,122.457377 C482.460965,124.226537 484.101926,124.413343 486.317954,124.830908 C488.53032,125.248474 492.563126,125.20452 494.720549,124.900503 C496.885298,124.596486 497.801012,123.479314 498.559224,123.167971 C499.313772,122.852965 500.445595,123.0764 501.416252,123.219251 C502.383247,123.362103 502.577378,123.534257 504.855675,123.893217 C507.13031,124.25584 510.562407,124.97376 512.902973,125.189868 C515.247202,125.405977 517.415613,125.937091 518.866105,125.189868 C520.320259,124.438983 520.671894,122.823663 520.016242,121.523348 C519.360591,120.223034 517.375322,120.245011 515.778316,119.080222 Z M432.151619,138.376155 C437.045197,140.405378 433.213848,147.961853 435.602031,150.734636 C437.990214,153.511082 441.616443,151.324356 444.513763,152.745545 C447.40742,154.170396 450.205843,157.485282 452.561061,159.071299 C454.916278,160.657317 456.714741,161.737859 458.59745,162.232345 C460.483821,162.730494 462.970901,163.825688 463.483701,161.946642 C463.996501,160.063934 459.57177,158.096979 460.322655,155.910253 C461.073541,153.723528 463.85365,152.478156 466.644747,152.745545 C469.439507,153.016596 472.003508,155.811356 475.267114,157.346093 C478.530719,158.880831 482.911497,161.785477 486.189754,161.946642 C489.468012,162.104145 490.138315,158.514545 493.090578,158.210528 C496.042841,157.902848 500.115938,161.496111 502.863081,160.221437 C505.606561,158.943099 504.819047,155.880951 505.449058,152.459842 C506.075407,149.03507 509.730939,142.797224 506.599196,139.811995 C503.46379,136.826766 497.310189,140.771664 493.37628,140.962132 C489.446034,141.152601 486.032251,143.734915 483.028708,140.962132 C480.025165,138.193012 481.695428,130.2556 478.717525,127.453514 C475.739622,124.651428 470.175742,124.398691 468.369953,127.167811 C466.560501,129.933269 474.032731,132.0504 473.831273,134.925743 C473.633479,137.801086 470.358885,140.255201 467.509182,139.526292 C464.655816,138.797384 462.806073,134.878126 461.46913,131.764697 C460.13585,128.651269 462.487404,124.530554 459.747587,121.417125 C457.011432,118.303697 449.883512,116.721342 446.814037,115.095034 C443.744563,113.465062 443.085249,110.018313 441.352717,111.644622 C439.616523,113.270931 439.726408,116.809251 442.213488,119.402554 C444.700569,121.99952 451.766221,123.186285 454.575632,125.442606 C457.377718,127.695263 459.28973,130.182343 458.311747,132.339766 C457.330101,134.500852 455.048141,127.493806 453.136129,128.603652 C451.220455,129.713497 453.586661,133.046698 452.850426,135.500812 C452.114192,137.958589 452.513443,140.592184 449.469609,141.141612 C446.429437,141.694704 442.217151,141.742321 442.217151,138.592264 C442.217151,135.438543 447.000843,137.672886 448.824946,135.790178 C450.649049,133.900143 450.879809,131.735395 448.824946,128.889354 C446.773746,126.046977 441.015734,122.211965 437.616602,120.266988 C434.213808,118.325674 432.162608,117.812874 428.70487,117.395308 C425.247133,116.974079 419.840756,116.952102 417.170532,117.787234 C414.503972,118.626028 416.01307,120.036228 414.046115,121.992194 C412.079161,123.94816 407.013429,127.20444 405.423749,129.464423 C403.830406,131.724406 406.218589,132.779309 405.134383,134.640041 C404.05384,136.497109 401.911069,138.522669 399.38736,139.811995 C396.859988,141.101321 392.658691,142.273435 390.406034,142.167212 C388.149713,142.057327 389.222931,139.852287 387.314582,139.236927 C385.406233,138.621567 380.999816,141.555515 379.552987,138.661858 C378.109821,135.771863 380.750741,130.709795 381.278193,127.167811 C381.805644,123.622166 380.17201,119.398891 382.714033,117.395308 C385.256056,115.388062 388.977519,118.446548 392.200834,118.545445 C395.424148,118.637017 399.43864,120.028902 401.973337,117.966714 C403.79744,116.483256 404.174714,114.168331 404.357857,111.754508 C404.698503,107.252856 404.262623,108.93777 402.654629,107.853564 C400.863491,106.644822 394.537737,104.659553 393.92604,101.29705 C393.314342,97.9382095 400.38732,99.5242268 401.973337,98.9967753 C403.559354,98.4693238 401.533794,98.7110724 403.409177,98.1360038 C405.28456,97.5572723 410.009646,97.8136724 413.181681,95.5463636 C416.353715,93.2790549 418.745561,88.5796089 420.349893,86.7811459 C421.954224,84.9826829 422.045796,85.0925687 423.386401,84.8068658 C424.73067,84.5175 428.389865,85.6932773 429.565642,83.4735857 C430.745082,81.257557 426.770882,78.0159282 427.554733,75.7156537 C428.338585,73.4153793 431.528933,72.1590192 433.301756,72.5546078 C435.078242,72.9465336 432.331099,75.067328 432.730351,76.865791 C433.125939,78.6569282 433.701008,81.6714599 435.602031,82.9021799 C437.503054,84.1329 440.169614,83.4809114 442.502854,83.1878828 C444.832431,82.8985171 448.0997,81.513957 449.400015,81.1769741 C450.696666,80.8399912 449.158266,80.9865055 450.260786,81.1769741 C451.366969,81.3674427 453.912655,82.9021799 456.011472,82.3271113 C458.106627,81.7520427 460.535101,79.7521226 461.758495,78.0159282 C462.985553,76.2760709 461.231044,73.8878879 462.908633,72.5546078 C464.586221,71.2213277 468.772867,72.9025793 470.095159,71.4044706 C471.41745,69.9063619 464.974484,69.7818248 467.219816,67.6683561 C469.465147,65.5548873 484.153206,65.3644188 479.867662,62.2070357 C475.585782,59.0459898 465.926827,65.2472073 461.758495,63.6428758 C457.590164,62.0385443 459.967358,57.8702125 461.183427,55.0205095 C462.399496,52.1671436 468.274719,50.9547378 468.369953,48.1196862 C468.46885,45.2882974 464.124701,45.4128346 461.46913,46.6838461 C458.820884,47.9548576 456.440027,52.5773836 454.575632,54.7348066 C452.703912,56.8885668 450.059329,57.4233439 450.260786,59.6210584 C450.465906,61.81511 455.037152,61.9286585 455.436404,63.9285787 C455.835655,65.9321617 452.894381,67.437596 451.985992,68.2434247 C451.081266,69.0455904 450.601432,67.181196 450.260786,68.5291275 C449.927466,69.8807219 452.601352,72.9721736 450.260786,75.1405851 C447.92022,77.3089967 441.598128,80.0781169 438.477374,79.4517683 C435.356619,78.8290825 440.733694,75.4629166 440.20258,73.1296764 C439.671465,70.7927734 438.979185,67.5364932 435.602031,66.8039217 C432.224876,66.0750131 426.547447,71.3495277 422.954184,69.389899 C420.434138,68.0163275 419.939653,66.1079788 419.639298,63.2033329 C419.478133,61.6173157 419.976281,58.6101097 423.426693,56.9471725 C425.785573,55.8080238 430.14071,54.4344523 433.876825,51.5700978 C437.61294,48.7094062 440.092694,44.4421774 443.652991,41.2225257 C447.205963,38.0065369 449.839558,33.8821595 455.150701,32.3144566 C460.458181,30.7467536 468.805833,31.7833422 473.831273,32.3144566 C478.856714,32.841908 480.157028,34.0359995 485.039617,35.4755025 C489.925869,36.9113426 499.764304,38.7427713 503.148784,40.9368228 C506.529601,43.1272116 503.84839,44.7828231 500.562807,45.5337089 C497.277224,46.2882575 488.834337,42.3836515 485.614686,44.9586403 C482.395034,47.5372919 489.010154,51.4565493 491.94044,52.4345322 C494.867063,53.4088523 497.804675,51.0096807 500.273441,49.8485549 C502.74587,48.6837662 504.793407,47.3907776 506.599196,45.5337089 C508.404984,43.680303 508.320739,39.0101599 510.910379,38.9222513 C513.496356,38.8343427 512.525699,44.9732917 515.221562,45.248006 C517.917425,45.5227203 517.349682,41.8745143 522.122385,40.0723885 C526.887763,38.2739255 536.407529,34.8601424 543.392598,34.6110681 C550.370341,34.3693196 558.194205,38.8563199 562.937605,38.6365484 C567.677343,38.416777 556.981799,36.7831426 555.751079,34.0359995 C554.520359,31.2925193 551.48385,23.5895303 556.61185,24.5528618 C561.739851,25.5161932 568.816491,35.5341082 573.607509,37.9552569 C578.394863,40.3727428 581.043109,38.2519484 584.489858,38.6365484 C581.043109,38.2519484 577.002977,38.596257 574.2888,36.7318626 C571.57096,34.8638053 565.747017,30.7723936 569.256034,28.0032734 C572.768714,25.2304904 581.215263,30.069125 585.068589,28.8640449 C588.921915,27.6589648 575.193526,28.2779877 577.882063,25.702999 C580.570601,23.1243474 589.17099,24.1499474 591.96575,22.2525873 C594.764173,20.3552272 582.072372,21.0658215 586.790132,19.66661 C591.507893,18.2673985 603.313282,17.4139527 610.364283,16.7912669 C617.41162,16.1685812 623.711735,15.2455411 629.044855,15.9304955 C634.374313,16.6117869 640.659776,16.8022555 641.692702,20.8167472 C642.725628,24.8312389 625.773924,23.9668046 631.630833,25.9887018 C637.487741,28.0105991 651.413925,26.7139476 657.501594,26.2780676 C663.5856,25.8421876 663.768743,23.0510902 667.845504,23.4027245 C671.925927,23.7543588 676.85247,26.6626676 680.779053,28.2889763 C684.712962,29.9189478 688.855653,32.9078395 691.419654,33.175228 C693.979991,33.4462795 688.665185,30.1277307 691.705357,29.4391135 C694.741865,28.7504963 703.653597,30.3621536 706.653478,29.7248164 C709.649695,29.0911421 702.975969,26.6736562 706.653478,26.2780676 C710.327323,25.882479 720.356227,26.5417933 725.33405,27.7139077 C730.315536,28.886022 731.454685,32.5745194 735.970988,33.175228 C740.479966,33.7759367 747.490675,30.915245 751.201149,31.1643193 C754.915286,31.4133936 752.237738,33.5451766 757.237538,34.6110681 C762.244664,35.6806225 776.229454,37.6549026 780.808025,37.4864112 C785.386597,37.3179197 772.998813,32.841908 780.522322,33.7502967 C788.045832,34.6586853 811.561376,40.4569885 821.333879,42.3726629 C831.110046,44.2920002 835.597046,43.6107087 839.157344,45.248006 C842.717641,46.8853032 842.131584,49.9840806 839.446709,50.7093264 C836.758172,51.4345721 832.315126,48.3174805 828.520406,48.1196862 C824.725685,47.9292176 818.293708,45.9805775 817.026359,49.5591891 C815.755348,53.1378008 824.527891,54.3025895 825.35936,57.0314182 C826.194491,59.760247 821.912611,58.9507555 820.187405,59.9067613 C818.462199,60.862767 818.114228,61.9103442 815.011788,62.7821043 C811.909347,63.6538644 803.210061,60.7199156 801.788872,65.0823787 C800.371347,69.441179 808.737313,72.3201849 810.700604,76.0013566 C812.663896,79.6861911 813.088787,83.7409743 813.286582,86.6382945 C813.484376,89.5356147 815.312142,94.1398264 811.854405,92.9603863 C808.389341,91.7809462 803.755827,85.392923 800.642398,82.3271113 C797.525306,79.2612997 794.210421,77.4701624 793.170169,74.5655165 C792.129918,71.6608706 794.510775,69.6792648 795.181078,67.0932875 C795.851381,64.5073101 797.719438,61.0935271 797.195649,59.0423269 C796.664535,56.9947896 794.287341,57.4819497 792.880803,58.1815554 C791.474266,58.884824 791.811249,62.17407 790.294826,62.4927386 C788.778403,62.8114072 789.305854,59.708967 787.419483,59.3316926 C785.533111,58.9544183 781.602865,58.3573726 780.232957,60.4818299 C778.863048,62.6062872 784.829843,66.9650874 781.668797,68.2434247 C778.515077,69.5217619 774.126973,65.1812759 769.596019,64.793013 C765.07239,64.4047501 758.427967,64.5182987 754.937264,65.9431502 C751.453886,67.3680018 751.974012,70.1041562 750.629743,72.5546078 C749.285475,75.0013966 745.655583,77.609351 746.889966,80.6019055 C748.124349,83.59446 753.713869,85.4368772 756.087401,85.7738601 C758.460932,86.1145059 755.483029,82.5285685 756.951835,82.0377456 C758.420641,81.5469227 759.35467,81.821637 762.12379,83.7629514 C764.896573,85.7079287 770.339579,90.5612147 772.760728,94.3998893 C775.181876,98.234901 776.317362,100.993033 775.921774,105.608233 C775.526185,110.223433 773.584871,117.527171 771.035522,120.266988 C768.489836,123.006805 766.427647,118.017994 764.424064,117.966714 C762.420481,117.915434 760.241081,118.116891 759.823515,119.981285 C759.413275,121.842017 761.786807,123.970137 762.266641,125.079983 C762.750138,126.193491 763.035841,125.797903 762.197047,126.735594 C761.35459,127.676949 756.274207,127.427874 757.81627,131.189629 C759.358332,134.955046 768.66199,139.973161 769.889047,144.123178 C771.112442,148.276859 766.17491,150.284104 762.988224,148.723727 C760.96999,147.734756 759.30339,144.324635 758.07267,141.438304 C757.76499,140.713058 756.461012,136.804789 756.376767,136.650949 C755.794372,135.533778 755.439075,131.350795 752.930018,130.903926 C750.417298,130.453395 747.578583,135.039292 745.168423,134.640041 C742.7546,134.237126 743.70328,130.739097 742.578783,129.17872 C741.457948,127.618343 739.75472,125.629411 737.54968,126.805189 C736.516754,127.354617 736.535068,129.120114 735.901394,130.270252 C735.187137,131.581555 733.890485,132.339766 733.956416,133.775606 C734.077291,136.482458 736.443497,136.427515 738.377485,137.189389 C740.311474,137.954926 742.963383,137.258984 744.879057,138.086789 C746.794732,138.914595 749.329429,135.394589 748.904537,138.086789 C748.479646,140.782652 742.238137,145.145116 743.157514,149.00943 C744.073229,152.873745 751.274406,153.042236 752.930018,155.045819 C754.581966,157.053065 750.710326,156.924865 751.201149,158.781934 C751.695635,160.642665 755.204652,161.444831 755.515995,164.818323 C755.827338,168.191814 755.270584,173.323477 752.930018,177.466169 C750.582126,181.608861 746.329549,186.092198 742.003714,188.678176 C737.685205,191.26049 732.139639,191.212873 727.92369,192.41429 C723.704079,193.608382 718.828815,193.359307 716.711684,195.861039 C714.594552,198.366433 716.176907,199.985416 718.43689,203.622634 C720.696873,207.259851 728.458468,212.384189 729.930936,217.134915 C731.407068,221.878315 728.51341,225.405647 726.194822,228.628961 C723.879896,231.852276 720.165758,235.903396 716.711684,235.529784 C713.253947,235.15251 715.477301,229.79375 712.971907,227.193121 C710.473838,224.588829 706.008815,218.651338 702.338632,220.581663 C698.672111,222.511989 701.562106,229.519035 702.052929,232.940144 C702.540089,236.364916 703.137134,238.471059 705.213975,240.701739 C707.294478,242.932419 712.177066,243.097248 713.836341,245.587991 C715.495615,248.078734 713.594592,251.177511 713.836341,253.635288 C714.074427,256.093066 718.612707,261.499443 715.272181,260.246746 C711.935318,258.994049 706.616849,253.129814 704.638906,250.18854 C702.660963,247.243602 705.42642,246.100791 704.063837,243.573419 C702.701254,241.053373 698.162974,239.97283 696.877311,235.815487 C695.595311,231.661807 697.558603,224.588829 696.877311,220.292298 C696.192357,215.999429 695.566008,212.329246 692.855494,210.519794 C690.141316,208.714005 686.46747,213.739446 683.947425,211.669931 C681.420053,209.600417 682.932813,204.051188 681.64715,201.322359 C680.354161,198.593531 678.05755,197.930553 676.471533,195.861039 C674.881853,193.791524 675.489887,189.56825 672.16035,188.963878 C668.830812,188.359507 664.109389,190.77333 660.66264,192.989359 C657.215891,195.201725 655.20132,198.879233 652.040274,201.897428 C648.875565,204.919285 643.37029,207.204908 641.692702,211.094863 C640.015113,214.98848 643.42157,219.010298 643.128542,222.592572 C642.835513,226.17851 641.57549,229.66555 639.967496,232.079373 C638.355839,234.493196 636.747844,238.412453 633.931107,236.390556 C631.11437,234.368659 630.531975,227.958658 628.755489,224.032075 C626.982666,220.101829 624.748323,217.556143 623.294169,212.820069 C621.84734,208.083994 621.389483,199.077028 620.136786,195.861039 C618.880426,192.648713 618.51414,196.150405 616.682712,195.861039 C614.854946,195.571673 610.635334,195.90133 609.210482,194.139496 C607.789294,192.373999 611.931985,190.787981 610.649985,188.38881 C609.364322,185.989638 604.609934,183.454941 602.602688,181.777352 C600.588116,180.103426 600.76027,178.795786 598.577207,178.326941 C596.394144,177.861758 593.844796,179.191375 590.52991,179.191375 C587.207698,179.191375 582.339761,178.711541 578.742835,178.326941 C575.149572,177.946003 571.025194,177.975306 568.970331,176.8911 C566.915468,175.806895 569.959303,173.389409 568.398925,172.869283 C566.834885,172.345494 565.300148,174.931472 562.937605,174.880192 C560.571399,174.828912 557.289479,174.469952 554.886645,172.579917 C552.487473,170.689883 551.666993,165.777991 549.425324,164.243254 C547.183655,162.71218 542.509849,161.239711 543.099569,164.53262 C543.692952,167.825528 549.40701,172.074443 551.439896,175.45526 C553.469119,178.836078 552.66329,182.920164 555.172347,184.652695 C557.685068,186.385227 561.014605,185.194798 563.512674,183.791924 C566.003417,182.385387 566.486914,179.858015 567.464897,180.575935 C568.435554,181.286529 568.080257,181.187632 569.867731,183.180227 C571.655206,185.169158 576.812509,183.806575 577.882063,187.528038 C578.95528,191.245839 576.296046,195.831736 573.57088,199.597153 C570.845714,203.366234 565.311137,207.651777 562.073171,209.369657 C558.835205,211.0912 557.824256,207.864223 555.172347,209.369657 C552.527764,210.878754 551.117564,215.482966 547.410753,217.70632 C543.707604,219.929675 537.400163,223.489972 533.616432,222.306869 C529.836363,221.120103 533.942426,216.222863 532.75566,213.105771 C531.568894,209.992343 528.492094,207.124325 526.719271,204.197702 C524.942785,201.271079 524.082014,199.168599 522.122385,195.575336 C520.155431,191.982073 517.184853,186.473135 514.932196,182.641787 C512.683202,178.806775 511.185093,175.491889 508.610104,172.579917 C506.035116,169.667946 500.141578,160.375277 499.702035,165.393391 C499.258829,170.411506 505.826333,178.748169 507.74567,182.352421 C509.672333,185.956673 510.218099,184.407284 511.199744,186.95297 C512.174065,189.494993 512.060516,194.373919 513.496356,197.300542 C514.932196,200.223502 517.364333,200.728976 519.532745,203.908337 C521.704819,207.09136 524.367717,212.772451 526.429905,216.27048 C528.492094,219.768509 529.814386,222.812344 531.894889,224.892847 C533.975392,226.97335 534.151209,228.801115 538.506346,228.343258 C542.854158,227.881738 551.952696,217.515852 556.326147,222.306869 C560.695936,227.094224 553.198067,236.02427 550.575461,241.562511 C547.952856,247.100751 545.209375,249.08602 540.806621,255.071129 C536.39654,261.063563 527.433528,270.689552 524.133294,277.491479 C520.829397,284.293405 521.393477,290.915851 521.543654,294.739874 C521.697494,298.560234 524.34574,295.31128 524.994065,299.051057 C525.642391,302.787172 526.708283,311.91135 525.279768,316.29579 C523.85858,320.68023 520.162757,320.024579 517.232471,322.907247 C514.302185,325.789916 509.525819,329.115791 507.74567,333.544185 C505.969184,337.968917 508.408647,344.576712 507.174264,347.913575 C505.936218,351.246775 502.961978,348.726729 501.134212,351.360324 C499.310109,353.997581 498.896207,358.770284 496.826692,362.861696 C494.757178,366.953107 493.405583,372.608559 488.775732,375.795245 C484.153206,378.981931 475.809216,379.674211 470.95593,380.681497 C466.102644,381.688783 462.780433,383.7876 459.747587,381.827971 C456.718404,379.872005 458.461924,375.190874 457.161609,371.769765 C455.861295,368.352319 453.568346,365.165633 451.985992,361.422193 C450.403638,357.682415 448.97146,353.957289 447.674809,349.349415 C446.378157,344.74154 445.71518,338.591603 444.224397,333.829888 C442.737277,329.068174 438.660517,325.65439 438.76674,320.896339 C438.8693,316.134624 444.008289,313.208001 444.803129,307.673424 C445.590643,302.138846 445.949603,295.219708 443.363626,288.703485 C440.777648,282.183599 431.741379,275.630747 429.855008,270.01925 C427.964973,264.407752 432.917156,261.345603 433.016054,257.946472 C433.114951,254.551003 432.895179,251.825837 430.430076,250.474243 C427.609676,248.921191 425.316727,250.814888 423.620824,251.426585 C422.763716,251.737928 422.060447,251.719614 421.518344,250.759945 C420.697864,249.309454 421.056824,243.360974 416.632092,243.002013 C412.207361,242.639391 404.482394,248.338797 400.248131,249.038402 C396.013868,249.734345 395.786771,246.877317 392.200834,247.023831 C388.614896,247.174008 383.010724,250.104294 379.263621,249.899174 C375.520181,249.697717 373.769335,248.866248 370.930621,245.873694 C368.091906,242.888465 365.9821,236.430847 362.883323,232.654441 C359.784546,228.874373 353.660248,228.471458 352.535751,223.457006 C351.407591,218.438892 356.835946,211.457486 357.132637,207.073045 C357.432991,202.684942 354.308574,201.780216 354.257294,198.161313 C354.209677,194.546073 356.143666,188.297238 356.846934,186.088535 C357.54654,183.883495 356.817631,188.253284 358.282774,185.513467 C359.75158,182.773649 362.245986,174.059712 365.4693,169.99394 C368.692615,165.928168 374.871855,164.73774 376.96701,161.946642 C379.062164,159.151882 375.062324,157.335105 376.677644,155.045819 C378.296627,152.760196 383.102296,151.939716 385.303673,150.159567 C387.501388,148.383081 386.589336,145.390527 389.629508,144.57371 C392.673342,143.756893 397.321508,146.36851 401.398269,145.848384 C405.475029,145.331921 408.328395,142.786235 413.471047,141.537201 C418.617361,140.288167 427.261705,136.343269 432.151619,138.376155 Z M274.04438,12.0149009 C276.601055,10.1468436 283.117278,11.2457009 286.549375,10.7219123 C289.97781,10.1944608 292.963038,10.1798094 294.59301,8.85019213 C296.226644,7.52423776 287.739804,8.51320925 290.428341,7.55720348 C293.116878,6.6011977 300.43893,6.38875197 303.076188,5.8356605 C305.709782,5.27524332 303.907656,4.68918614 306.090719,4.25330611 C308.281108,3.81742608 312.797411,3.39253463 316.009737,3.24602033 C319.222063,3.10316889 322.888583,3.12514604 325.350023,3.39253463 C327.811464,3.65626036 329.360852,4.87965473 330.668492,4.82837472 C331.976133,4.77709472 326.155852,4.09580324 328.943287,3.24602033 C331.730721,2.39990027 338.627882,1.21313448 343.891408,0.802894453 C349.151271,0.396317283 355.147368,0.638065871 360.41822,0.802894453 C365.689072,0.971385893 371.622901,1.39994021 374.446964,1.56476879 C377.27469,1.73326023 378.487096,1.3230202 377.37725,1.81018023 C376.267404,2.29367741 371.212661,2.2167574 369.901358,3.82108894 C368.593718,5.42908333 372.381112,5.68914621 374.216204,5.68914621 C376.051295,5.68914621 377.399227,3.96760324 380.252593,3.82108894 C383.102296,3.67457464 388.754085,4.65988328 391.028719,4.82837472 C393.307017,4.99686616 395.350891,4.63424328 393.186142,5.1140776 C391.017731,5.59391192 384.549125,5.09576331 382.406353,5.54629477 C380.263581,5.99316337 385.14617,5.9565348 384.27441,6.98213487 C383.40265,8.00773493 380.802021,8.65972355 379.102456,9.42526074 C377.40289,10.1944608 374.205215,9.65602076 374.073352,11.5826837 C373.934164,13.5093467 378.358896,13.9928439 378.670238,15.608164 C378.981581,17.2198213 375.886467,15.3664154 374.934124,16.0367183 C373.981781,16.7070212 373.930501,18.1904785 373.783987,19.0549128 C373.637472,19.9193472 373.827941,20.6482558 374.073352,21.0658215 C374.315101,21.4870501 375.40297,21.413793 374.538535,21.6775187 C373.674101,21.9412444 371.428769,21.7361244 370.480089,22.362473 C369.527746,22.9851588 372.501987,23.9081989 370.480089,24.5162332 C368.454529,25.1279304 361.952957,23.2928388 359.986003,25.523519 C358.022711,27.7505363 365.073712,27.9739706 366.165243,29.4024849 C367.260438,30.8309993 367.359335,32.7466737 365.593838,32.8528966 C363.824677,32.9591195 361.05922,29.7760964 359.125231,29.8347021 C357.191243,29.889645 354.894631,31.7357251 356.107037,33.1422623 C357.319443,34.5451367 364.062763,31.6331651 362.714832,34.0030338 C361.374226,36.3692397 356.465997,36.4681368 353.663911,37.4497826 C350.861825,38.4314284 348.294162,39.673137 345.902316,39.8929085 C343.51047,40.1126799 342.118585,37.8124055 339.723076,38.7427713 C337.323904,39.6767999 335.411893,43.629023 332.968767,44.9256745 C330.525641,46.2186632 328.111818,45.5959774 325.639389,46.2186632 C323.16696,46.841349 319.57736,47.9035776 318.163497,48.6617891 C316.75696,49.4163377 318.93636,49.3797091 317.877794,50.3869949 C316.822891,51.3942807 313.687486,52.8777379 312.130771,54.4088123 C310.574057,55.9435496 309.903754,57.9031783 308.68036,59.4379155 C307.456965,60.9763156 306.951491,63.1410643 304.797731,63.6099101 C302.647633,64.075093 299.358387,62.6941957 297.468353,61.8810414 C295.581982,61.0752128 294.761501,60.7455556 293.732239,58.8665098 C292.706638,56.9838011 291.915461,53.8630466 291.578478,51.104915 C291.237833,48.3467833 291.534524,45.4714403 291.629758,43.936703 C291.728656,42.4019658 291.911798,41.9111429 292.512507,41.3140972 C293.109553,40.7133885 293.886079,39.7244171 295.314593,38.8856227 C296.739444,38.0504912 299.526879,37.5816455 300.49021,37.1640797 C301.446216,36.746514 301.424239,36.6622683 300.918765,36.4424968 C300.416953,36.2300511 299.768628,36.4681368 298.475639,36.2996454 C297.18265,36.1348168 294.164456,36.4461597 293.15717,35.4388739 C292.149884,34.4315881 293.74689,33.7173309 295.171741,32.995748 C296.596593,32.2705023 301.350982,33.3766852 301.350982,31.2705422 C301.350982,29.1680621 296.369496,31.8968908 295.171741,30.6954736 C293.970324,29.4977192 297.702776,29.735805 297.757719,27.6772791 C297.812662,25.6224161 296.852993,21.5493187 295.457444,19.6299814 C294.065559,17.7106442 293.303684,17.5055241 290.142638,17.1868555 C286.97793,16.868187 280.036815,18.7655471 276.919723,17.7619242 C273.798969,16.7583012 271.487706,13.8829582 274.04438,12.0149009 Z M374.78761,51.8264979 C378.065867,51.3210235 382.007102,47.3175204 377.509113,45.2443431 C373.011124,43.1711659 369.154135,43.9293773 367.872135,44.4897945 C366.586472,45.0502117 367.256775,43.7901888 365.00778,45.4201603 C362.762449,47.0501318 365.667095,43.6363487 359.39262,43.6363487 C353.114482,43.6363487 355.75174,47.3688004 356.755363,48.148989 C357.758986,48.9328405 357.268163,50.0280349 358.23882,51.4931778 C359.21314,52.9546579 358.0337,53.621298 361.93098,53.621298 C365.824598,53.621298 369.069889,53.0718694 371.223649,52.1598179 C373.381072,51.2514293 371.509352,52.3283093 374.78761,51.8264979 Z M400.116268,76.7266024 C399.90016,75.9061223 402.20776,74.9794194 403.248012,73.9648079 C404.291926,72.9501964 405.064789,73.0600821 405.478692,71.4813906 C405.753406,70.4301505 401.896417,71.0308591 399.892834,71.239642 C398.878223,71.342202 398.339783,71.3495277 399.050377,70.9942306 C401.163846,69.9356648 403.409177,66.9211332 398.614497,68.2397618 C393.816154,69.5620533 394.116508,73.3604364 393.973657,75.7742595 C393.830805,78.1880825 396.218988,81.8655913 397.651165,80.8436541 C399.083343,79.8253797 399.680388,81.2136027 400.559474,82.3307742 C401.43856,83.4479457 403.87436,85.7408944 401.141869,85.7482201 C398.409377,85.7592087 396.0798,85.8654316 396.273931,89.7663747 C396.317885,90.6674376 396.501028,91.2791348 396.82336,91.6124548 C397.31052,92.1069405 398.808628,92.0483348 397.277554,92.6527063 C394.889371,93.5977235 391.079999,96.5206837 393.534114,96.5206837 C396.321548,96.5206837 397.599885,93.6490035 399.691377,93.6490035 C401.782869,93.6490035 409.211143,94.1105235 410.141509,93.2167863 C411.071875,92.3230491 411.800784,91.5758262 410.009646,90.9714548 C408.218509,90.3634204 414.130361,89.6601518 412.679869,88.1766946 C411.229378,86.6895745 413.181681,86.6785859 409.749583,86.6785859 C406.321149,86.6785859 409.368646,84.0523172 407.511578,82.7703171 C405.658172,81.4919798 404.394486,80.3711455 404.394486,79.4554311 C404.394486,78.5433796 404.280937,77.2064367 403.302954,77.0379453 C402.324971,76.865791 400.332377,77.5434196 400.116268,76.7266024 Z M392.321708,83.8838257 C392.321708,86.5284087 390.402371,90.7809862 387.135102,90.5465633 C383.86417,90.3121404 384.637033,94.1618035 381.717736,90.9568033 C378.805764,87.7518031 384.739593,86.4075345 384.259759,85.1365229 C383.779925,83.8691743 381.922856,84.5284886 382.578507,83.7519628 C383.234159,82.9717742 383.878822,83.9241171 382.692056,82.4553113 C381.50529,80.9901684 388.845656,82.7886314 387.779765,81.4736656 C386.713873,80.1586998 386.585673,80.1074197 387.889651,79.5067111 C389.197291,78.9096654 389.468342,78.2247111 390.486616,78.7191968 C391.504891,79.2100197 392.204497,78.9169911 392.698982,79.3089168 C393.193468,79.6935169 395.295948,80.9278998 394.6696,81.6787856 C393.969994,82.5102542 392.321708,80.9278998 392.321708,83.8838257 Z M549.289798,307.746681 C548.249547,308.409658 545.363215,315.933167 541.986061,316.226196 C538.612569,316.519224 532.015763,320.870699 534.85814,322.965853 C537.696855,325.06467 529.323563,326.929065 534.235455,330.471048 C539.143683,334.009368 529.715489,339.379117 531.506626,342.61342 C533.297763,345.847723 528.682563,347.474032 531.444357,348.587541 C534.209815,349.701049 536.513752,350.796244 539.938524,349.774306 C543.363295,348.752369 543.79185,345.69022 543.79185,344.038272 C543.79185,342.386323 545.645255,334.298734 548.48397,331.027802 C551.326347,327.764196 550.308073,319.251716 552.17613,317.797561 C554.051513,316.343407 554.436113,317.16755 553.267662,315.24455 C552.102873,313.317887 552.527764,305.614898 551.183496,305.640538 C549.835564,305.666178 550.333713,307.080041 549.289798,307.746681 Z M805.78505,316.119973 C805.162364,316.42399 816.183902,304.190046 805.909587,304.190046 C795.635272,304.190046 798.697421,303.805446 795.583992,306.915212 C792.477889,310.028641 793.488838,312.585315 789.119049,316.548527 C784.741934,320.515402 780.478368,310.164167 775.727642,318.34699 C770.976916,326.529813 772.32851,318.541121 766.984402,319.998939 C761.640293,321.456756 764.515636,329.346551 761.596338,329.749465 C758.673378,330.145054 755.926235,333.33174 751.387955,333.247494 C746.846012,333.159585 735.080914,341.133626 735.080914,348.792661 C735.080914,356.451695 732.872211,366.36705 732.513251,371.590285 C732.161616,376.809857 730.454725,387.091497 739.315177,384.908434 C748.175629,382.725371 751.01068,374.707377 760.896733,373.249559 C770.786448,371.788079 776.244105,370.194736 782.503928,372.601234 C788.763752,375.004068 787.445123,375.472914 787.653906,380.769406 C787.859026,386.06956 791.034723,384.183189 796.514358,378.780474 C801.993992,373.381422 790.221569,398.988458 800.565478,395.783458 C810.905724,392.578458 809.473547,396.354864 815.704068,394.853092 C821.938251,393.354984 831.234583,388.424777 833.454275,384.282086 C835.673966,380.143057 842.688338,375.374017 843.988652,368.363308 C845.29263,361.348936 849.299796,366.205885 849.735676,359.814198 C850.171556,353.422512 851.017676,355.114752 846.962893,347.25426 C842.908109,339.393768 843.285384,343.492506 840.706732,335.33166 C838.124418,327.174476 836.391886,323.211265 836.542063,318.196813 C836.69224,313.186024 832.74368,302.46484 830.432417,302.46484 C828.121154,302.46484 822.169011,305.266926 822.169011,314.900241 C822.169011,324.529893 806.407736,315.815955 805.78505,316.119973 Z M815.125336,403.640287 C813.473388,403.640287 808.466261,404.083493 804.927941,405.863641 C802.261381,407.204247 800.42629,409.303065 801.47753,412.552019 C802.517781,415.775334 805.675164,414.625196 808.737313,412.255328 C812.854365,409.061316 816.791936,403.640287 815.125336,403.640287 Z M894.602016,382.370074 C894.602016,392.029029 885.258067,393.380624 884.877129,399.493933 C884.499855,405.610904 843.809172,422.610225 856.735396,422.610225 C869.66162,422.610225 870.364888,412.196722 877.569729,409.061316 C884.778232,405.92591 898.612845,400.482904 900.726313,395.043561 C902.843445,389.600555 898.49197,391.135292 897.836319,385.366292 C897.18433,379.600954 894.602016,372.714782 894.602016,382.370074 Z M851.501173,301.314703 C846.047178,300.245149 839.340486,286.970954 835.029303,293.011005 C830.263926,299.692057 829.703509,303.475789 824.418005,294.278354 C819.139828,285.077256 818.176496,297.827663 814.411079,294.988948 C810.641999,292.15756 819.561056,291.923137 816.231519,288.241965 C812.901982,284.560793 808.96441,275.264461 803.074535,274.271827 C797.188324,273.282856 800.488558,270.55769 796.038186,266.686049 C791.584152,262.810746 804.572644,261.72654 808.634753,272.473364 C812.696862,283.220188 813.09245,264.144026 821.718479,275.084981 C830.340846,286.029599 841.369709,275.37801 843.75423,283.905142 C844.578372,286.861068 845.406178,288.025856 846.069155,288.509354 C847.325515,289.425068 847.999481,287.923296 846.962893,291.446965 C845.376875,296.831366 852.171476,295.970594 852.589042,299.204897 C852.665962,299.79828 852.926024,300.171892 853.263007,300.402652 C854.746465,301.391623 855.435082,302.087566 851.501173,301.314703 Z M782.430671,290.245548 C785.331654,287.820736 785.295026,292.084302 784.719957,293.923057 C784.152214,295.761811 780.207317,296.325891 778.793454,296.596943 C777.375928,296.871657 773.471322,303.193749 773.291842,299.267166 C773.116025,295.340583 771.848676,297.146371 766.339739,297.146371 C760.830801,297.146371 768.651002,303.768818 763.248287,300.164566 C757.84191,296.563977 754.827378,298.380754 747.281892,295.20872 C739.736405,292.040348 733.809902,295.428491 725.674696,291.912148 C717.543153,288.399468 722.378124,286.000296 723.055753,286.428851 C723.733382,286.861068 733.311754,287.176074 736.102851,287.088165 C738.890285,287.000256 742.230811,289.820657 745.564012,290.245548 C748.893549,290.677765 757.336435,295.058543 761.427847,293.831485 C765.522921,292.604428 779.533351,292.681348 782.430671,290.245548 Z M752.538092,241.027733 C752.860423,240.551562 759.387635,246.218002 760.156835,248.210597 C760.926035,250.203191 755.157035,250.228831 756.699098,252.943008 C758.241161,255.653523 755.171686,256.459352 758.153252,259.689992 C761.138481,262.916969 755.852978,261.250369 755.761407,266.191564 C755.669835,271.132758 751.329349,269.649301 751.461212,273.411056 C751.593075,277.169147 749.043726,282.436336 747.186657,278.58301 C745.329589,274.729684 742.641051,278.568359 741.556846,275.780924 C740.47264,273.000815 741.432308,275.96773 737.846371,276.033661 C734.260434,276.099593 736.996588,271.271947 733.714668,267.568798 C730.425422,263.861986 730.158033,257.144306 732.729359,259.876797 C735.300685,262.609289 737.637588,260.788849 737.52404,258.023392 C737.403165,255.254271 741.24184,256.39342 743.076931,253.181094 C744.912023,249.968768 743.743571,250.661048 746.351526,250.177551 C748.955817,249.694054 752.215761,241.503905 752.538092,241.027733 Z M698.789323,252.019968 C697.76006,251.228791 696.613585,251.089603 696.313231,248.488974 C696.012877,245.888345 688.086453,243.049631 688.086453,248.437694 C688.086453,253.82942 694.37558,252.4705 697.137374,257.386054 C699.895506,262.297946 701.181169,263.938906 703.52906,266.081678 C705.880615,268.224449 706.283529,269.53209 706.752375,272.887267 C707.224883,276.242444 712.312592,281.143347 715.220901,282.414359 C718.132873,283.68537 720.993564,284.227473 720.993564,280.824679 C720.993564,277.425547 718.294038,274.553867 718.132873,271.986204 C717.97537,269.414878 713.136735,261.056238 710.492152,259.975695 C707.843906,258.895152 702.331306,253.756163 700.979711,253.565694 C699.63178,253.375226 699.822249,252.811146 698.789323,252.019968 Z M778.192745,259.711969 C776.200151,262.29062 769.878059,259.810866 766.519219,260.382272 C763.156716,260.950015 762.530367,260.045289 762.530367,267.173209 C762.530367,274.297467 758.992047,274.744336 759.222807,277.887067 C759.453567,281.037125 760.22643,280.330193 760.552424,282.27517 C760.882081,284.220148 764.555927,281.853942 763.427767,276.235119 C762.299607,270.616295 766.988064,272.055798 767.401967,279.509713 C767.819533,286.959965 774.698379,287.198051 773.918191,281.267885 C773.141665,275.341381 768.255413,272.052135 771.500705,270.048552 C774.745996,268.044969 772.995151,266.488255 770.504408,266.850878 C768.017327,267.206175 763.988184,270.45513 765.273847,265.876558 C766.552184,261.297986 773.467659,264.396763 776.075614,263.312558 C778.683568,262.232015 780.18534,257.129654 778.192745,259.711969 Z M765.259196,212.497737 C764.863607,210.42456 767.731624,209.311051 764.768373,204.607942 C761.808784,199.901171 766.878179,201.322359 761.017607,201.838822 C755.153372,202.351622 761.651281,210.303686 758.885824,211.2194 C756.120367,212.131451 762.958921,216.669732 762.958921,219.614669 C762.958921,222.559606 768.577745,221.087138 771.090465,225.383669 C773.599522,229.680201 766.654744,227.958658 771.12343,232.30647 C775.599442,236.657944 765.295824,237.086499 769.17479,241.892168 C773.057419,246.694174 776.566436,234.84483 775.438276,243.328008 C774.310116,251.807523 781.320825,244.957979 779.643237,242.078973 C777.969311,239.199968 780.602905,240.723716 782.408694,241.716351 C784.207157,242.712648 778.559031,238.84467 780.002197,233.43463 C781.452688,228.02459 778.95462,233.540853 777.438197,233.804579 C775.921774,234.07563 774.123311,231.105053 776.518819,230.570276 C778.910665,230.039161 779.009562,221.947909 774.661751,221.372841 C770.313939,220.797772 772.064785,222.050469 772.028156,219.790486 C771.987865,217.534166 769.306653,219.808801 771.394482,218.101909 C773.478648,216.402343 765.728041,216.717349 765.834264,214.11672 C765.936824,211.512429 765.654784,214.574577 765.259196,212.497737 Z M768.55943,81.7850084 C771.247968,82.5835113 768.63635,83.0193914 770.215042,83.1439285 C771.797396,83.26114 776.914408,91.6820491 779.507711,93.3339978 C782.101014,94.9822836 779.6469,94.1691293 782.969111,96.5792894 C786.294986,98.9894496 787.163083,97.7294266 784.738271,99.6121353 C782.31346,101.491181 783.976397,102.978301 785.49282,104.948919 C786.071551,105.696141 786.785809,106.293187 787.39018,106.736393 C788.375489,107.457976 789.016489,107.849902 788.379152,107.747342 C788.137403,107.70705 787.95426,107.923159 787.712512,108.340724 C786.950637,109.65569 786.1851,112.153759 785.243746,108.948759 C784.0057,104.725484 781.452688,104.187044 780.097431,100.461918 C778.738511,96.7331294 774.339419,95.1727522 773.676442,93.018992 C773.006139,90.8652319 765.71339,87.6858717 765.607167,84.8691344 C765.493619,82.0487342 765.874556,80.9938312 768.55943,81.7850084 Z M795.653586,128.28132 C795.085843,126.94804 793.785529,125.23016 792.419283,126.266749 C791.053037,127.307 791.591477,129.061509 793.397266,130.365486 C795.206718,131.673126 791.39002,141.310104 789.56958,138.134406 C787.74914,134.958709 787.694197,137.742481 788.6209,139.852287 C789.547603,141.962092 786.382894,142.940075 787.324249,144.925344 C788.272929,146.914276 779.632248,143.973001 778.559031,147.456379 C777.485814,150.936093 773.639813,151.877447 775.940088,152.65031 C778.240362,153.423173 775.460254,155.884613 777.445522,157.346093 C779.434454,158.807574 778.767814,160.591385 780.709128,155.910253 C782.64678,151.229122 778.764151,151.038653 778.408854,150.218173 C778.053557,149.397693 782.15962,149.148619 782.203574,150.950744 C782.247528,152.749207 784.496523,155.723448 784.371986,151.298716 C784.243786,146.873984 787.650243,156.847945 787.533032,151.93239 C787.41582,147.016836 788.924917,151.544127 790.353432,151.415927 C791.792935,151.29139 793.162843,151.152202 793.148192,148.925184 C793.13354,146.698167 792.096952,146.08647 794.298329,146.939916 C796.499706,147.789699 796.796398,149.555196 798.250552,145.720184 C799.701044,141.88151 800.86217,149.346413 802.177135,145.262327 C803.495764,141.178241 798.437358,140.244212 800.679027,134.350675 C802.920695,128.464463 796.217666,129.610937 795.653586,128.28132 Z M533.949752,31.3364736 C532.49926,30.9482108 530.158694,29.6478964 529.231991,27.6406505 C528.158774,25.3220618 532.682403,24.2927989 532.213557,23.0181245 C531.748374,21.747113 531.93518,21.7104844 533.048689,21.106113 C534.169523,20.4980786 534.08894,21.0401815 535.187798,20.4174958 C536.290318,19.7911471 536.015603,20.1574329 536.616312,19.33329 C537.213358,18.5054842 537.993546,19.6519586 540.205912,19.1318328 C542.421941,18.6190328 543.898072,17.5531413 546.84301,17.6190727 C549.784284,17.6813413 549.678061,15.3883926 545.912644,15.3883926 C542.150889,15.3883926 543.348644,16.4579469 540.978775,16.3224212 C538.612569,16.1905583 539.385432,16.146604 537.890986,17.3516841 C536.392878,18.5531014 531.283192,17.8278556 529.030534,19.1245071 C526.774214,20.4248215 524.389694,20.7801186 525.642391,22.5932331 C526.887763,24.4100103 523.305488,23.9961074 523.169962,25.6956733 C523.0381,27.3989019 520.858699,26.241439 520.496077,28.1571134 C520.129791,30.0727878 522.096745,29.4940564 523.052751,30.1020907 C524.008757,30.710125 523.917185,30.1313936 524.635105,30.4573879 C525.3457,30.7833822 528.059877,32.1642794 529.173386,32.3950394 C530.279569,32.6221366 529.437111,32.9224909 532.118323,32.9224909 C533.334392,32.9224909 534.11458,32.9371423 534.565112,32.7869652 C536.989923,31.9811365 534.099929,31.3767651 533.949752,31.3364736 Z M604.470745,10.8281351 C604.598945,11.1687809 596.917933,11.0808723 594.679927,9.82084934 C592.438258,8.56448926 591.112304,8.72199212 589.998795,8.93443785 C588.88895,9.14688358 589.724081,8.26779781 588.37615,8.46559211 C587.024555,8.66338641 584.870795,10.4618494 584.958704,7.95279207 C585.050275,5.44007191 584.947715,6.53160341 585.647321,6.13967767 C586.343264,5.74775193 591.141607,4.90529473 591.81191,5.46204905 C592.489538,6.01880337 593.804504,6.05176909 594.485796,6.50962626 C595.163424,6.96382058 595.665236,6.76236342 597.082762,8.04802637 C598.500287,9.33735217 600.423288,6.67079199 601.815173,8.11029494 C603.203396,9.54613504 602.818796,8.90147214 603.386539,9.64869504 C603.957945,10.395918 604.349871,10.4874894 604.470745,10.8281351 Z M451.557438,12.0478666 C451.249758,11.883038 449.616123,14.5129697 447.575912,15.0770497 C445.539363,15.6374669 443.162169,16.4286441 441.360043,14.5532611 C439.554254,12.6778781 443.620026,12.835381 442.568786,11.9526323 C441.521208,11.0735466 436.678911,11.6632666 435.543425,10.9050551 C434.407939,10.1468436 434.587419,10.6669694 434.920739,9.34834074 C435.254059,8.03337494 443.044957,7.65243777 444.011951,9.56078647 C444.978946,11.4654723 445.341569,10.7219123 445.341569,9.08461501 C445.341569,7.45098061 445.989894,8.37035782 447.345152,8.27512352 C448.704072,8.17988923 448.956809,10.1102151 449.832232,8.16157494 C450.703992,6.21659767 452.648969,6.95649486 454.125101,7.04440344 C455.593906,7.13231202 456.022461,7.48760919 457.428998,7.48760919 C458.831872,7.48760919 467.278422,6.73306056 465.743684,8.71466641 C464.208947,10.6962723 452.938335,9.07362643 451.414586,9.50950646 C449.890838,9.94538649 454.919941,9.97835221 456.963815,11.0405809 C459.00769,12.1064724 465.75101,13.4580667 458.359364,14.3664554 C450.964055,15.274844 454.440106,11.9416438 452.788158,11.9416438 C451.139872,11.9416438 451.865118,12.2163581 451.557438,12.0478666 Z M260.345293,96.3778323 C260.971642,96.8173751 262.718825,95.1874036 262.381842,96.4291123 C262.041196,97.6781466 263.092436,97.0920895 262.608939,98.0041409 C262.125442,98.9125296 264.762699,98.6414781 265.370734,98.157981 C265.975105,97.6671581 268.982311,96.8137123 266.949425,98.7183981 C264.920202,100.623084 266.3011,101.209141 267.238791,100.384998 C268.176483,99.5608553 270.366871,99.5278896 268.117877,101.439901 C265.868882,103.34825 270.055528,103.212724 267.956711,106.132021 C265.857894,109.051319 266.271797,106.805987 265.301139,106.648484 C264.334145,106.487319 265.561202,105.952541 264.656477,104.187044 C263.748088,102.421547 264.473334,106.201616 260.843442,106.443364 C257.209888,106.685113 262.242654,104.842696 260.583379,104.249313 C258.927768,103.652267 259.916739,103.132141 256.363767,103.132141 C252.810796,103.132141 256.759356,103.905004 253.59831,103.780467 C250.437264,103.652267 252.755853,102.351953 251.950024,101.857467 C251.140533,101.366644 251.323676,99.8392325 253.374876,99.5352153 C255.422413,99.2311982 255.180665,97.2422666 256.810636,95.9016608 C258.440608,94.561055 259.554116,92.5757863 260.872745,92.2351406 C262.191374,91.890832 264.392751,89.4220661 264.315831,90.5209233 C264.235248,91.6197805 259.718945,95.9382894 260.345293,96.3778323 Z M180.791694,192.223822 C181.692757,192.432604 183.476568,194.395896 183.575465,194.436187 C185.959986,195.450799 184.604728,198.168639 182.960105,197.428742 C181.315482,196.685182 179.663534,197.410428 177.037265,197.410428 C174.410996,197.410428 179.487717,195.483765 176.414579,194.674273 C173.345105,193.864782 171.205996,190.780656 168.68595,190.729376 C166.165904,190.674433 167.715293,191.601136 164.997453,189.51697 C162.279613,187.436467 159.312698,190.165296 157.712029,190.392393 C156.107698,190.623153 156.459332,190.51693 156.836607,188.806376 C157.210218,187.099484 162.140424,186.344935 164.111041,186.344935 C166.081659,186.344935 169.96795,186.813781 171.447745,188.088456 C172.927539,189.36313 175.312059,188.495033 176.352311,190.908856 C177.385236,193.322679 179.026197,191.820907 180.791694,192.223822 Z M192.72162,198.058753 C194.498106,198.058753 197.366124,196.143079 197.963169,198.436028 C198.560215,200.728976 199.538198,199.208891 200.527169,199.945125 C201.516141,200.681359 204.197353,202.369936 201.420907,202.369936 C198.651786,202.369936 199.366044,204.505382 196.728786,203.194079 C194.091529,201.886439 194.128158,205.267257 192.703306,204.805737 C191.282117,204.344217 191.087986,202.095222 189.787672,202.838782 C188.487357,203.578679 185.7219,204.168399 184.022334,203.117159 C182.322768,202.069582 185.590037,201.179508 187.117449,201.758239 C188.64486,202.340634 191.359037,201.791205 189.582552,200.311411 C187.809729,198.827953 188.941552,197.099085 189.271209,197.534965 C189.604529,197.974508 190.948797,198.058753 192.72162,198.058753 Z M304.570634,2.46216885 C307.848891,3.19474033 296.842004,4.33022612 295.219359,5.01518045 C293.59305,5.70013478 285.966981,4.43278612 284.366312,6.09206052 C282.761981,7.74767206 280.996483,7.74034634 276.835477,7.92348921 C272.667146,8.10663208 277.542409,10.0772494 273.71106,10.0772494 C269.879711,10.0772494 269.641625,9.80986077 264.920202,12.9013124 C260.202442,15.9964269 252.64963,16.8901641 247.539944,15.7217126 C242.430258,14.5495982 236.093515,13.6412096 236.016595,17.8388442 C235.943338,22.0364787 251.026984,16.8242327 253.001264,18.7728728 C254.975545,20.7251758 248.814618,19.3955586 246.005207,20.4980786 C243.195795,21.6042616 235.580715,20.3222615 234.544126,21.1683815 C233.503875,22.0181644 229.262286,23.4723188 228.401514,21.2379758 C227.544406,19.0036328 232.181583,18.3040271 230.987491,17.1209241 C229.7934,15.9341583 226.811834,18.4798442 224.892497,16.7509755 C222.969497,15.0257697 229.782411,13.0991067 232.07536,14.6155297 C234.368309,16.1319526 236.122818,14.3737811 238.646526,14.4433754 C241.170235,14.5166325 244.276338,11.0918609 246.990515,13.5496382 C249.704693,16.0110783 249.353058,6.60486055 242.759915,11.421518 C236.166772,16.2345126 234.654012,6.71108342 243.792841,4.04086038 C252.928007,1.37430021 250.891459,6.44369483 252.327299,9.53880932 C253.766802,12.6339238 257.356402,12.2713009 256.363767,9.71096362 C255.371133,7.14330059 258.374676,7.54987776 259.770225,8.32274067 C261.162111,9.09194072 265.94214,9.5754379 263.528317,7.26417488 C261.118156,4.95291187 258.466248,6.15799195 253.550693,4.76244329 C248.635138,3.36689462 253.173419,2.70391744 254.220996,2.27902598 C255.268573,1.85413452 262.945922,1.66366594 266.678374,2.21309455 C270.410826,2.75519744 293.992301,0.17654584 296.783399,1.52814022 C299.578159,2.87973459 301.296039,1.72593451 304.570634,2.46216885 Z M192.505512,20.2453415 C191.223512,20.4394729 187.897637,20.5676729 186.846397,21.0365187 C185.795157,21.5053644 181.483974,22.5859073 180.473025,21.7178101 C179.454751,20.8533758 184.754906,19.56405 181.176294,19.56405 C177.594019,19.56405 175.062985,19.9596386 178.106819,19.02561 C181.150654,18.0879185 185.520443,18.5714156 186.102837,17.6483756 C186.677906,16.7253355 186.7475,15.7583412 188.989169,16.8498727 C191.230837,17.945067 192.333357,19.0695642 194.49078,18.1794899 C196.648203,17.2894156 195.150095,16.4909126 196.926581,16.2564898 C198.703066,16.0257298 197.391764,15.685084 199.981404,15.685084 C202.571044,15.685084 202.369587,15.5349069 200.058324,16.7289984 C197.747061,17.9230899 199.662735,18.8021757 201.618701,18.0549527 C203.567341,17.3077298 204.087467,19.6812614 200.772581,19.8570786 C197.457695,20.0328957 194.857066,20.9779129 194.168449,20.3222615 C193.483495,19.66661 193.787512,20.05121 192.505512,20.2453415 Z M208.351033,23.0510902 C211.292307,23.2415588 209.867456,22.7250959 210.86009,22.7250959 C211.852724,22.7250959 213.435079,22.4284045 213.453393,23.3367931 C213.47537,24.237856 209.709953,24.6920503 211.281319,25.5161932 C212.849022,26.3403362 212.127439,26.0436447 210.926022,26.6443533 C209.724604,27.2377362 209.336341,29.0618392 205.03981,30.3804679 C200.743278,31.6990965 203.281638,30.4207593 202.45017,30.1680221 C201.615038,29.9116221 201.88609,28.5490392 201.384278,28.0435648 C200.875141,27.5344277 199.464941,28.4647934 198.593181,27.6626277 C197.717758,26.856799 201.384278,24.1792503 201.384278,25.7139875 C201.384278,27.2450619 203.109484,26.2853933 204.391484,26.318359 C205.677147,26.3513247 205.413421,22.8569588 208.351033,23.0510902 Z M216.830548,19.7801586 C214.343468,20.9302958 207.479273,22.5382902 210.460839,20.4431358 C213.442405,18.3553071 206.699084,19.61533 206.699084,18.4688556 C206.699084,17.3223813 206.695421,17.380987 206.699084,17.1209241 C206.702747,16.8571984 208.06533,16.5495184 208.24481,16.5348669 C208.42429,16.5165526 209.955364,16.3260841 210.083564,16.6117869 C210.211764,16.893827 209.991993,18.0109985 210.233742,18.1318728 C210.471827,18.2564099 211.402193,18.7325814 211.028582,17.3113927 C210.658633,15.890204 213.984507,18.5604271 214.60353,17.5531413 C215.226216,16.5421926 213.435079,16.6044612 215.497268,16.0477069 C217.559456,15.4946154 218.409239,17.4395927 219.760834,16.5751584 C221.108765,15.7143869 220.720502,18.3772842 218.885411,18.9523528 C217.050319,19.5274214 219.321291,18.6300214 216.830548,19.7801586 Z M171.499025,241.163259 C172.78835,244.518436 173.623482,250.23982 172.315842,254.210357 C171.011865,258.180894 166.246487,259.067306 164.268544,263.118426 C159.418921,273.066747 159.613052,278.546382 164.554247,287.549685 C167.25011,292.457914 174.835888,302.38792 176.916391,307.094692 C178.996894,311.805127 174.165585,311.904024 176.627025,314.856287 C179.092128,317.815876 186.535054,320.409179 189.84994,322.617882 C193.164826,324.830248 194.974278,324.079362 196.461398,328.079202 C197.948518,332.079042 197.805666,338.855328 198.186604,345.034569 C198.571204,351.221135 198.186604,359.34169 198.761672,365.158307 C199.336741,370.974925 201.633352,375.399657 201.633352,379.817063 C201.633352,384.234469 198.395386,387.629937 198.761672,391.025406 C199.124295,394.424538 202.798141,395.651595 203.647924,398.501298 C204.497707,401.347338 202.688255,405.427761 203.647924,407.41303 C204.60393,409.394636 206.91153,405.197001 207.959107,407.41303 C209.003021,409.621733 208.878484,415.086716 208.534176,417.756939 C208.186204,420.4235 204.820038,419.60302 205.944536,422.932557 C207.072696,426.258431 210.178799,430.804037 214.570565,435.576741 C218.958668,440.353107 226.112228,448.785004 232.101,451.389296 C238.093435,453.993588 248.799967,455.663851 247.62419,449.949793 C246.448413,444.235735 233.551492,444.97197 230.090091,441.616792 C226.628691,438.261615 228.463783,435.093243 229.22932,432.129992 C229.994857,429.163077 235.130183,427.851774 234.401275,424.943466 C233.676029,422.03882 227.225737,423.32082 226.353977,420.632282 C225.48588,417.947408 230.74208,417.603099 230.954526,414.310191 C231.163309,411.013619 226.068274,405.863641 227.504114,402.812481 C228.939954,399.761321 233.635737,406.449699 235.551412,404.537687 C237.467086,402.622013 231.22924,399.010435 233.540503,396.772429 C235.848103,394.538086 242.166532,396.809058 244.748847,395.625955 C247.331161,394.442852 248.576533,393.329344 247.334824,390.454 C246.096778,387.574995 236.218052,384.706977 238.426755,380.9672 C240.635458,377.231085 246.82935,386.432183 251.070939,384.128246 C255.31619,381.820646 256.151322,374.311788 258.54683,370.044559 C260.942339,365.780993 264.707757,362.176741 265.443991,358.54685 C266.180225,354.916958 259.374636,353.536061 262.568648,350.213849 C265.766322,346.887975 275.487546,347.170015 280.102746,343.313026 C284.721609,339.456037 287.380844,334.401294 288.725112,328.368568 C290.073044,322.328516 286.322278,314.043133 287.864341,308.534195 C289.406404,303.02892 295.395176,302.124195 297.351142,297.611554 C299.303445,293.098914 300.728296,286.619319 299.072685,282.663433 C297.420736,278.71121 292.197501,280.040827 289.303844,278.35225 C286.406524,276.663673 285.084232,273.934844 281.827952,272.605227 C278.575335,271.27561 274.374037,271.748118 270.330243,270.590655 C266.286448,269.436855 261.400196,268.821495 257.686059,265.704404 C253.968259,262.594638 252.100201,256.389757 249.06003,252.770854 C246.023521,249.151951 242.994338,246.250968 239.576892,244.152151 C236.155783,242.046008 232.328097,242.624739 228.939954,240.412373 C225.551811,238.20367 222.866937,233.196544 219.742519,231.214938 C216.618102,229.22967 213.914913,229.350544 210.830787,228.914664 C207.746661,228.482447 204.867655,229.555664 201.34765,228.628961 C197.827644,227.698595 194.64462,223.079732 190.135643,223.453344 C185.630328,223.826955 180.128717,228.211395 177.202094,230.63987 C174.279133,233.068344 175.872476,237.181733 173.136322,237.551682 C170.400167,237.92163 169.781145,232.99875 166.568819,232.079373 C163.356493,231.156333 157.419001,236.987602 155.071109,232.365076 C152.723218,227.738887 160.012304,217.805218 156.796315,212.820069 C153.580326,207.83492 142.884783,216.376703 140.987423,210.519794 C139.090062,204.666548 150.891789,196.985536 149.895492,191.549856 C148.899195,186.114175 141.071668,191.00409 137.826377,193.275062 C134.581085,195.546033 135.313657,201.714285 132.650759,203.622634 C129.987862,205.530982 127.288336,204.706839 124.603462,202.758199 C121.92225,200.813222 118.354627,198.428702 117.992004,192.985696 C117.629381,187.546353 120.12745,177.561403 122.592553,172.579917 C125.057656,167.598431 128.438473,165.913517 132.075691,164.53262 C135.716571,163.14806 139.192622,165.503277 142.998331,164.818323 C146.807703,164.133368 150.7526,160.609699 154.496041,160.507139 C158.239481,160.404579 161.349247,160.877088 163.982841,164.243254 C166.612773,167.613083 165.143967,176.773889 168.869093,178.905672 C172.594219,181.033792 173.48063,173.612843 174.041048,169.99394 C174.601465,166.375037 169.180436,163.01986 172.030139,158.496231 C174.879842,153.968939 185.0809,150.88115 188.699803,146.712818 C192.318706,142.537161 190.36274,137.526372 192.725283,134.640041 C195.087826,131.750046 197.787352,133.065012 201.633352,130.903926 C205.483015,128.739177 213.11641,124.15328 215.720702,121.702828 C218.324993,119.252377 213.625547,118.919057 216.295771,117.105942 C218.962331,115.289165 226.899743,112.241668 230.090091,111.930325 C233.28044,111.622645 223.97312,116.710354 228.079183,115.955805 C232.185246,115.201256 243.389927,112.29661 247.334824,108.769279 C251.287047,105.241947 238.434081,111.325953 236.12648,108.769279 C233.81888,106.212604 244.276338,100.63041 239.291189,99.8575468 C234.302377,99.0883467 222.855948,112.197713 219.456816,106.183301 C216.054022,100.165227 229.712817,95.1800779 235.551412,93.2497521 C241.390006,91.3194262 246.31655,96.615918 251.64967,95.5463636 C256.979128,94.4804721 263.455059,90.4403404 265.733357,87.2133631 C268.011654,83.9863857 263.652854,82.7849685 261.993579,80.8876084 C260.341631,78.9902482 257.345413,79.4920597 255.960853,76.0013566 C254.576293,72.5143164 257.806933,63.8516587 254.235647,61.3426014 C250.660699,58.833544 248.228561,67.9613847 245.323915,68.5291275 C242.422932,69.0968704 240.946801,66.0603617 241.012732,63.9285787 C241.078664,61.7967957 247.437384,61.5220814 245.613281,59.3316926 C243.789178,57.1413039 238.141052,57.7017211 235.265709,57.0314182 C232.390366,56.3611153 231.412383,53.5919951 228.364886,55.3062124 C225.321051,57.0240925 221.031845,62.2802928 219.456816,65.9431502 C217.878125,69.6060076 221.258942,72.9465336 219.456816,76.0013566 C217.654691,79.0598425 212.273953,78.8107682 209.970016,82.0377456 C207.666078,85.2647229 209.017673,91.8944948 206.523267,94.1105235 C204.028861,96.3265523 200.611415,94.0812207 199.626107,91.2351805 C198.633472,88.3928032 203.179078,83.8398714 201.922718,80.8876084 C200.666358,77.9353453 197.226935,79.1147854 193.87542,77.7265624 C190.520243,76.3383395 183.890471,75.5947794 181.802642,72.5546078 C179.714814,69.5144362 181.205597,67.6610303 184.38862,63.9285787 C187.571643,60.1997898 195.501729,53.7348466 200.197512,50.9950292 C204.893295,48.2588748 208.882147,46.6252404 211.984587,47.8339833 C215.079702,49.0427262 208.266787,54.9765552 211.984587,55.5955781 C215.698725,56.2109382 223.262525,52.2806922 225.778908,50.1342577 C228.295291,47.9841605 221.401794,48.4090519 223.768,45.5337089 C226.130543,42.6620287 233.199857,36.8344226 237.851686,35.4755025 C242.507178,34.1165824 247.723087,34.8125253 249.349396,38.0614798 C250.972041,41.3104343 246.206664,43.7352459 243.023641,45.8194117 C239.844281,47.9072405 230.954526,45.9586003 230.954526,50.1342577 C230.954526,54.3099152 239.595206,50.8704921 243.023641,52.1451665 C246.455738,53.4198408 248.964796,56.5772239 251.074601,57.6064868 C253.180744,58.6357497 255.173339,59.9946698 255.385785,58.1815554 C255.59823,56.3647782 249.558178,54.1121209 251.64967,52.7202351 C253.737499,51.3283493 257.502916,55.6724981 259.696968,55.3062124 C261.891019,54.9435895 262.217014,52.8337836 261.993579,50.9950292 C261.773808,49.1599377 255.986493,46.4970404 258.54683,45.8194117 C261.107168,45.1491088 264.520951,49.9584406 267.458562,49.5591891 C270.392511,49.1562748 274.806254,46.7607661 273.205586,43.808503 C271.604917,40.8635657 263.872625,42.0210286 261.993579,39.4973199 C260.121859,36.977274 267.24978,36.3692397 265.733357,33.7502967 C264.216934,31.1313536 257.744665,30.2449421 255.671487,28.578342 C253.601973,26.9080791 254.334544,25.1279304 253.949944,24.263496 C253.565344,23.3990617 253.089173,23.6151703 250.177201,23.7616846 C247.261567,23.9118617 240.584178,24.2415189 236.990915,25.1279304 C233.393989,26.010679 234.104583,29.0508506 232.390366,28.578342 C230.679811,28.1021706 234.877446,22.8130045 231.815297,23.6920903 C228.753148,24.5638503 222.81932,29.5746392 220.317588,32.0250908 C217.815856,34.4792053 218.383599,36.8563997 217.156542,38.0614798 C215.933148,39.2665599 214.354456,38.5559655 213.684153,38.5559655 C213.010187,38.5596284 213.596245,38.8087027 213.903925,38.0138627 C214.211605,37.2153597 217.152879,35.4242225 215.160285,34.691651 C213.16769,33.9590795 211.62929,35.3546282 213.207982,33.7319824 C214.786673,32.1093365 215.720702,33.0873195 214.878245,32.1716051 C214.03945,31.2558908 213.621885,31.2229251 214.519285,30.2449421 C215.413022,29.2706221 212.508376,28.6515992 215.233542,28.1314734 C217.958708,27.6150105 217.944056,25.7835818 219.163788,26.2524276 C220.379856,26.7212733 216.585136,27.2450619 219.273674,26.7872048 C221.962211,26.3256847 224.181902,24.2781474 226.566423,23.3367931 C228.950943,22.3954388 220.713177,22.7250959 220.020896,22.516313 C219.328616,22.311193 216.764616,21.6079244 216.823222,23.4137131 C216.885491,25.2158389 212.555993,26.292719 212.592622,28.0801934 C212.62925,29.8676678 209.248433,31.6588051 208.010387,31.8602622 C206.776004,32.0543937 203.91165,34.2081538 206.241227,35.1934625 C208.567141,36.1787711 205.37313,38.4570684 203.864033,38.5925941 C202.358598,38.7281198 201.043632,40.7829828 202.212084,37.3215826 C203.380535,33.8638452 196.223312,36.4315083 195.977901,37.9845598 C195.736152,39.5376113 195.977901,39.1310342 194.435838,39.3947599 C192.893775,39.6584856 195.974238,39.9661656 193.758209,40.1969257 C191.534855,40.4313485 184.835488,40.62548 181.513277,40.3617542 C177.615996,40.0504114 174.000756,39.8269771 174.209539,37.8856626 C174.385356,36.2044111 180.919894,36.2996454 182.168928,35.4425368 C183.421625,34.5854281 183.425288,36.5230797 187.480071,36.5230797 C191.534855,36.5230797 190.549546,33.6770395 193.238083,33.948091 C195.930283,34.2154795 186.963609,31.6807822 190.751003,30.5672736 C194.54206,29.4537649 193.10622,26.0656219 196.703146,25.4795647 C200.296409,24.8935075 196.948558,21.6299016 192.509175,24.5125703 C188.069791,27.3952391 186.72186,23.9081989 186.868374,27.2523876 C187.014889,30.5929136 181.648802,30.2669193 184.198151,27.3842505 C186.7475,24.5015817 181.714734,24.3880332 180.61954,26.6443533 C179.520682,28.8970106 179.110442,27.0985476 177.667276,26.5344676 C176.227774,25.9703876 176.550105,26.2011476 176.674642,23.9008731 C176.802842,21.5969358 169.828762,21.1500672 168.53211,22.3441587 C167.235459,23.5382503 157.129635,20.4907529 157.799938,23.981456 C158.470241,27.4721591 152.389898,24.0766903 151.968669,26.9044162 C151.54744,29.7321421 148.364417,29.1131192 151.151852,29.9226107 C153.935623,30.735765 153.078515,31.6661308 156.005138,30.4170964 C158.931761,29.1680621 160.521441,26.9373819 162.385835,26.9044162 C164.25023,26.8714505 167.469882,25.4429361 166.37835,26.9117419 C165.286819,28.3842106 159.689972,28.1497877 163.678824,29.9738907 C167.667676,31.7943308 155.180995,31.3401365 161.612973,32.1716051 C168.041287,33.0067366 172.868933,30.9372222 172.938528,33.999371 C172.99347,36.2556911 165.129316,35.3179996 160.777841,35.0103196 C159.232115,34.9004339 158.125932,34.8674682 157.979418,35.0835767 C157.770635,35.3949196 158.371344,35.6586454 159.041647,35.8674282 C160.166144,36.2263882 161.473784,36.4424968 159.407932,36.515754 C156.115024,36.6293026 149.551183,35.8088225 141.851857,36.0505711 C134.148868,36.2886568 121.35817,38.1640398 113.395118,37.4864112 C105.432066,36.8087826 98.1063512,32.8126052 94.7108824,32.0250908 C91.3190764,31.2412393 95.8427053,33.2374966 93.5607452,32.8895252 C91.278785,32.5415537 87.245979,29.5709764 81.4879672,30.0141821 C75.7299554,30.453725 65.928149,34.2264681 59.9320515,35.4755025 C53.9359539,36.720874 48.617485,34.7539196 45.562662,37.4864112 C42.5005132,40.2189028 49.9434394,45.1307946 46.4234334,47.5482804 C42.9034275,49.9621034 38.0135129,47.6691547 32.5521925,47.1893204 C27.094535,46.7094861 26.5158035,48.2039319 29.7244666,48.6947548 C32.9294668,49.1855777 40.5335588,49.9108234 36.9366328,53.1524522 C33.336044,56.3904182 22.1826433,56.0314581 18.541763,58.1815554 C14.9008828,60.3316527 17.8787858,61.3059728 18.8311287,63.3571729 C19.7798088,65.4083731 27.9662951,66.4815903 24.0030834,69.9649676 C20.0362088,73.4520079 -4.98843285,73.7267222 2.15780192,78.0159282 C9.30403668,82.3014713 20.1753974,75.1076194 28.3142665,72.5546078 C36.4531356,70.0015962 44.2293819,64.2582358 50.7346166,62.7821043 C57.2361885,61.3059728 61.8916802,63.0092015 66.2541433,63.9285787 C70.6202693,64.8516187 74.6567382,64.8259787 76.6017155,68.2434247 C78.5466927,71.6608706 74.9387782,77.5507453 75.740944,80.6019055 C76.5431097,83.6530657 80.5099843,81.8509399 80.9128986,84.6237229 C81.3194758,87.4001688 78.1877327,90.6015062 77.7518527,94.3998893 C77.3159727,98.1946095 80.2316071,102.461838 78.3269213,107.044073 C76.4222354,111.626308 69.7375207,115.999759 67.1185777,119.981285 C64.4959718,123.959148 63.052806,125.702669 62.8073945,130.61456 C62.5583202,135.530115 64.0930575,144.115853 65.6790747,148.434361 C67.2687548,152.756533 70.5580008,152.130185 72.0048294,155.620888 C73.4479952,159.111591 72.3308237,162.96858 74.0157381,168.554437 C75.7006525,174.143957 79.5393271,184.923747 82.0630358,188.963878 C84.5867446,193.000347 83.3230588,185.630678 82.6381044,182.352421 C81.956813,179.074163 79.0521671,173.850929 78.0412184,169.704574 C77.0266069,165.55822 76.0119954,160.342311 76.6017155,157.631796 C77.1950984,154.924945 78.2500013,157.393711 80.0521271,160.507139 C81.8505901,163.624231 84.601396,170.9939 87.2386533,176.026666 C89.8759106,181.066758 94.6852424,186.396215 95.8610196,190.689084 C97.0367968,194.981953 91.2604707,196.641228 93.846448,200.172222 C96.4397511,203.706879 103.388192,206.325822 108.508866,207.933817 C113.629541,209.541811 119.911341,207.930154 124.028393,209.659023 C128.145445,211.387891 128.17841,215.62948 131.789988,217.70632 C135.397902,219.786823 141.785926,219.087218 145.00924,221.731801 C148.236217,224.376384 146.221646,228.727858 149.324086,232.079373 C152.422863,235.427224 159.232115,240.20359 162.832704,240.987442 C166.433293,241.771293 162.726481,235.478504 165.132979,235.529784 C167.535813,235.577402 170.209699,237.808082 171.499025,241.163259 Z M800.741295,116.893496 L799.386038,116.512559 C798.184621,116.179239 797.386118,115.127999 796.074815,114.783691 C795.045552,114.512639 793.46686,114.955845 792.62074,114.563919 C790.126335,113.413782 787.642917,111.677588 787.664894,112.421148 C787.694197,113.494365 790.228895,116.259822 789.664815,117.864154 C789.097072,119.464822 787.144769,119.021617 787.767454,121.69184 C788.393803,124.365726 792.408295,124.764977 791.038386,122.439063 C789.67214,120.109485 793.660992,121.146074 795.096832,122.603891 C796.536335,124.065371 800.111284,123.252217 797.950198,120.724845 C795.785449,118.197474 802.799821,117.831188 800.741295,116.893496 Z" id="Fill-2"></path>
                    </g>
                </g>
            </g>
        </g>
    </g>
</svg>